<svg width="549" height="280" viewBox="0 0 549 280" fill="none" xmlns="http://www.w3.org/2000/svg">
<path d="M530.09 27.7222H0.0898438V137.722H530.09V27.7222Z" fill="#E85B18"/>
<path d="M352.656 250.459C354.558 250.459 356.1 248.803 356.1 246.76C356.1 244.717 354.558 243.061 352.656 243.061C350.753 243.061 349.211 244.717 349.211 246.76C349.211 248.803 350.753 250.459 352.656 250.459Z" fill="#E85B18"/>
<path d="M352.567 266.127C352.268 266.138 351.976 266.211 351.713 266.338C350.806 266.919 350.142 267.757 349.829 268.716C348.999 270.14 348.432 271.675 348.15 273.261C347.797 275.903 349.534 279.524 353.067 279.101C356.011 278.757 357.277 275.666 356.954 273.261C356.668 271.679 356.112 270.146 355.305 268.716C354.775 267.686 353.921 266.1 352.567 266.127Z" fill="#E85B18"/>
<path d="M365.463 137.003H339.996C346.061 137.901 351.773 145.669 351.773 169.343C351.845 179.312 350.67 189.256 348.269 198.989C347.357 202.476 345.325 210.165 350.242 212.199C351.056 212.547 351.946 212.727 352.847 212.727C353.749 212.727 354.639 212.547 355.453 212.199C360.311 210.112 358.397 202.423 357.426 198.989C355.04 189.253 353.865 179.311 353.922 169.343C353.686 145.669 359.575 137.901 365.463 137.003Z" fill="#E85B18"/>
<path d="M192.344 137.056C194.359 137.169 196.343 137.552 198.232 138.192C202.359 140.02 205.911 142.745 208.566 146.119C210.122 147.882 212.004 149.393 214.131 150.584C215.349 151.344 216.798 151.752 218.282 151.752C219.766 151.752 221.215 151.344 222.433 150.584C224.671 149.025 226.585 146.727 229.47 146.092C236.477 144.56 240.216 150.294 241.6 155.578C243.455 162.765 241.6 170.11 239.657 177.085C237.895 182.103 237.011 187.335 237.036 192.595C237.449 198.038 242.159 204.538 249.137 201.763C250.722 201.033 252.085 199.969 253.111 198.662C254.136 197.355 254.793 195.844 255.025 194.259C256.527 186.174 252.081 178.089 251.198 170.11C250.638 164.482 251.198 156.767 258.882 155.446C261.664 154.971 264.535 155.153 267.214 155.974C270.158 156.873 273.103 158.616 276.047 157.295C278.478 155.759 280.54 153.8 282.112 151.535C288.206 144.903 295.213 137.135 305.665 137.135L192.344 137.056Z" fill="#E85B18"/>
<path d="M61.4764 137.003C62.109 137.049 62.7428 136.929 63.3018 136.66H33.3301C33.8902 136.927 34.5231 137.046 35.1555 137.003C45.1951 137.003 45.0185 153.041 44.724 168.709C44.5512 176.569 42.9911 184.354 40.1017 191.776C39.123 193.9 38.3353 196.091 37.7463 198.328C36.5098 204.352 41.3382 211.935 48.3159 211.935C55.2936 211.935 60.0926 204.352 58.8855 198.328C58.31 196.088 57.5221 193.896 56.5302 191.776C53.6274 184.331 52.0767 176.516 51.9373 168.63C51.6134 153.041 51.4662 137.003 61.4764 137.003Z" fill="#E85B18"/>
<path d="M517.213 72.495C513.296 68.4998 509.469 64.3978 505.732 60.1891C503.067 57.2839 500.565 54.2293 498.236 51.0397C495.805 47.5401 496.57 40.9068 491.347 39.8546C490.74 39.7375 490.114 39.779 489.528 39.975C488.941 40.171 488.413 40.5152 487.993 40.9754C487.047 41.9589 487.115 43.4915 486.394 44.6123C485.674 45.7331 483.963 45.8474 482.928 46.7852C482.258 47.3761 481.811 48.185 481.663 49.0736C481.515 49.9623 481.676 50.8756 482.117 51.6573C482.761 52.5779 483.663 53.2795 484.706 53.6701C486.327 54.3335 488.083 54.5165 489.726 55.2027C491.326 55.8916 492.838 56.7749 494.229 57.8331C496.921 59.9615 499.485 62.253 501.905 64.6952C505.845 68.4007 509.649 72.2663 513.409 76.1319C518.902 81.8274 524.35 87.5686 529.167 93.8359C531.67 97.0039 533.481 100.676 534.48 104.609C535.2 107.331 537.429 110.236 540.468 108.566C542.584 107.4 542.494 104.472 544.971 103.786C545.632 103.655 546.28 103.463 546.907 103.214C550.486 101.43 548.37 97.0154 545.849 95.5057C543.327 93.9961 540.153 93.6987 537.632 91.8231C530.589 86.1421 524.029 79.8678 518.024 73.0668L517.213 72.495Z" fill="#EBE8E0"/>
<path d="M412.068 31.3955C407.956 35.1773 403.731 38.8446 399.394 42.3977C396.426 44.965 393.314 47.3555 390.074 49.5571C386.517 51.8444 380.034 50.7007 378.818 55.9387C378.673 56.5504 378.681 57.1895 378.842 57.797C379.004 58.4046 379.313 58.9612 379.741 59.4155C380.664 60.4219 382.172 60.4448 383.231 61.2225C384.289 62.0002 384.311 63.7615 385.189 64.8365C385.729 65.5552 386.501 66.0586 387.368 66.2592C388.236 66.4598 389.146 66.3449 389.939 65.9345C390.871 65.324 391.607 64.4492 392.055 63.4184C392.798 61.7943 393.068 60.0331 393.811 58.4091C394.576 56.8378 395.52 55.3637 396.625 54.0174C398.89 51.3994 401.303 48.9173 403.852 46.5835C407.701 42.7865 411.686 39.1268 415.738 35.5356C421.554 30.1633 427.64 25.1015 433.973 20.3705C437.225 18.0063 440.929 16.3621 444.846 15.5442C447.525 14.9724 450.519 12.8681 449.033 9.68864C447.998 7.4013 445.116 7.40127 444.531 4.97668C444.432 4.30033 444.274 3.63434 444.058 2.9867C442.505 -0.741671 438.047 1.17968 436.426 3.65002C434.805 6.12035 434.355 9.34554 432.374 11.793C426.419 18.6365 419.913 24.9638 412.924 30.7093L412.068 31.3955Z" fill="#EBE8E0"/>
</svg>
