<svg width="487" height="280" viewBox="0 0 487 280" fill="none" xmlns="http://www.w3.org/2000/svg">
<path d="M422.324 28.0493H0.324219V138.049H422.324V28.0493Z" fill="#E85B18"/>
<path d="M353.331 250.508C355.234 250.508 356.776 248.852 356.776 246.809C356.776 244.766 355.234 243.11 353.331 243.11C351.429 243.11 349.887 244.766 349.887 246.809C349.887 248.852 351.429 250.508 353.331 250.508Z" fill="#E85B18"/>
<path d="M353.242 266.176C352.944 266.188 352.652 266.26 352.389 266.387C351.482 266.968 350.818 267.806 350.504 268.766C349.675 270.189 349.108 271.724 348.826 273.31C348.473 275.953 350.21 279.573 353.743 279.15C356.687 278.807 357.953 275.715 357.629 273.31C357.344 271.728 356.788 270.195 355.981 268.766C355.451 267.735 354.597 266.15 353.242 266.176Z" fill="#E85B18"/>
<path d="M366.139 137.052H340.672C346.737 137.951 352.449 145.719 352.449 169.393C352.521 179.361 351.346 189.305 348.945 199.038C348.032 202.526 346.001 210.214 350.918 212.249C351.732 212.596 352.622 212.777 353.523 212.777C354.425 212.777 355.315 212.596 356.129 212.249C360.987 210.161 359.073 202.473 358.101 199.038C355.715 189.303 354.54 179.36 354.598 169.393C354.362 145.719 360.251 137.951 366.139 137.052Z" fill="#E85B18"/>
<path d="M193.02 137.105C195.034 137.218 197.019 137.601 198.908 138.242C203.035 140.07 206.587 142.795 209.242 146.168C210.798 147.932 212.68 149.442 214.806 150.633C216.025 151.394 217.474 151.801 218.958 151.801C220.442 151.801 221.89 151.394 223.109 150.633C225.347 149.075 227.26 146.776 230.146 146.142C237.153 144.609 240.892 150.343 242.276 155.627C244.13 162.814 242.276 170.159 240.332 177.135C238.571 182.152 237.687 187.384 237.712 192.644C238.124 198.087 242.835 204.587 249.813 201.813C251.397 201.082 252.761 200.018 253.786 198.711C254.812 197.404 255.469 195.894 255.701 194.309C257.203 186.224 252.757 178.139 251.874 170.159C251.314 164.531 251.874 156.816 259.558 155.495C262.339 155.02 265.211 155.203 267.89 156.024C270.834 156.922 273.778 158.666 276.722 157.345C279.154 155.808 281.216 153.85 282.787 151.585C288.882 144.953 295.889 137.185 306.341 137.185L193.02 137.105Z" fill="#E85B18"/>
<path d="M62.1522 137.052C62.7848 137.098 63.4186 136.979 63.9776 136.709H34.0059C34.5659 136.976 35.1989 137.095 35.8313 137.052C45.8709 137.052 45.6942 153.091 45.3998 168.759C45.227 176.618 43.6669 184.404 40.7775 191.825C39.7988 193.949 39.0111 196.14 38.4221 198.378C37.1856 204.402 42.014 211.985 48.9917 211.985C55.9694 211.985 60.7684 204.402 59.5613 198.378C58.9858 196.137 58.1978 193.945 57.206 191.825C54.3032 184.38 52.7524 176.566 52.6131 168.679C52.2892 153.091 52.142 137.052 62.1522 137.052Z" fill="#E85B18"/>
<path d="M454.823 72.5443C450.906 68.5491 447.079 64.4471 443.342 60.2384C440.677 57.3332 438.174 54.2786 435.845 51.089C433.414 47.5894 434.179 40.9561 428.956 39.9039C428.35 39.7869 427.724 39.8283 427.137 40.0243C426.55 40.2204 426.022 40.5646 425.602 41.0247C424.657 42.0082 424.724 43.5408 424.004 44.6616C423.283 45.7824 421.573 45.8967 420.537 46.8346C419.867 47.4254 419.42 48.2343 419.272 49.1229C419.124 50.0116 419.285 50.9249 419.727 51.7066C420.37 52.6272 421.273 53.3289 422.315 53.7195C423.936 54.3828 425.692 54.5658 427.336 55.252C428.935 55.9409 430.447 56.8242 431.838 57.8824C434.53 60.0108 437.094 62.3023 439.515 64.7445C443.454 68.45 447.259 72.3156 451.018 76.1812C456.511 81.8767 461.959 87.6179 466.777 93.8852C469.279 97.0532 471.09 100.726 472.089 104.659C472.81 107.381 475.039 110.286 478.078 108.616C480.194 107.449 480.104 104.521 482.58 103.835C483.241 103.704 483.889 103.512 484.516 103.263C488.095 101.479 485.979 97.0647 483.458 95.555C480.937 94.0454 477.763 93.748 475.241 91.8724C468.198 86.1914 461.639 79.9171 455.633 73.1161L454.823 72.5443Z" fill="#EBE8E0"/>
<path d="M349.678 31.4448C345.566 35.2266 341.341 38.894 337.004 42.447C334.036 45.0143 330.924 47.4048 327.684 49.6064C324.127 51.8937 317.643 50.75 316.428 55.9881C316.282 56.5997 316.29 57.2388 316.452 57.8463C316.613 58.4539 316.922 59.0105 317.351 59.4648C318.274 60.4713 319.782 60.4942 320.84 61.2719C321.898 62.0495 321.92 63.8108 322.798 64.8858C323.339 65.6045 324.11 66.1079 324.978 66.3085C325.846 66.5091 326.755 66.3942 327.548 65.9838C328.481 65.3733 329.216 64.4985 329.665 63.4677C330.407 61.8437 330.678 60.0824 331.421 58.4584C332.185 56.8871 333.13 55.413 334.235 54.0667C336.5 51.4487 338.913 48.9666 341.461 46.6328C345.31 42.8358 349.295 39.1761 353.347 35.5849C359.163 30.2126 365.249 25.1508 371.582 20.4199C374.834 18.0556 378.538 16.4114 382.455 15.5936C385.134 15.0217 388.128 12.9174 386.642 9.73796C385.607 7.45061 382.725 7.45058 382.14 5.026C382.041 4.34964 381.883 3.68366 381.667 3.03602C380.114 -0.692354 375.657 1.229 374.036 3.69933C372.415 6.16967 371.965 9.39485 369.984 11.8423C364.029 18.6858 357.523 25.0131 350.533 30.7586L349.678 31.4448Z" fill="#EBE8E0"/>
</svg>
