<svg width="341" height="196" viewBox="0 0 341 196" fill="none" xmlns="http://www.w3.org/2000/svg">
<path d="M325.559 13.4634H0.558594V88.4634H325.559V13.4634Z" fill="#E85B18"/>
<path d="M268.261 173.763C269.703 173.763 270.873 172.507 270.873 170.958C270.873 169.408 269.703 168.152 268.261 168.152C266.818 168.152 265.648 169.408 265.648 170.958C265.648 172.507 266.818 173.763 268.261 173.763Z" fill="#E85B18"/>
<path d="M268.194 185.644C267.967 185.653 267.746 185.708 267.546 185.805C266.858 186.245 266.355 186.88 266.117 187.608C265.488 188.688 265.058 189.852 264.845 191.055C264.577 193.058 265.894 195.804 268.573 195.483C270.806 195.223 271.766 192.878 271.52 191.055C271.304 189.855 270.882 188.692 270.27 187.608C269.868 186.827 269.221 185.624 268.194 185.644Z" fill="#E85B18"/>
<path d="M277.973 87.7236H258.66C263.26 88.4049 267.591 94.2957 267.591 112.249C267.646 119.808 266.755 127.349 264.934 134.73C264.242 137.375 262.701 143.206 266.43 144.749C267.047 145.012 267.722 145.149 268.406 145.149C269.09 145.149 269.765 145.012 270.382 144.749C274.066 143.166 272.615 137.335 271.878 134.73C270.068 127.348 269.177 119.808 269.221 112.249C269.042 94.2957 273.508 88.4049 277.973 87.7236Z" fill="#E85B18"/>
<path d="M146.689 87.7642C148.217 87.8497 149.723 88.1402 151.155 88.6258C154.284 90.0121 156.978 92.0784 158.992 94.6368C160.172 95.9742 161.599 97.1196 163.211 98.0231C164.136 98.5997 165.234 98.9087 166.36 98.9087C167.485 98.9087 168.584 98.5997 169.508 98.0231C171.205 96.8409 172.656 95.0977 174.844 94.6168C180.158 93.4547 182.993 97.8027 184.043 101.81C185.449 107.26 184.043 112.83 182.569 118.12C181.233 121.925 180.563 125.893 180.582 129.882C180.895 134.009 184.467 138.938 189.758 136.835C190.96 136.281 191.994 135.474 192.772 134.483C193.55 133.492 194.048 132.346 194.224 131.144C195.362 125.013 191.991 118.882 191.321 112.83C190.897 108.562 191.321 102.712 197.149 101.71C199.258 101.35 201.435 101.488 203.467 102.111C205.7 102.792 207.933 104.114 210.165 103.112C212.009 101.948 213.573 100.462 214.765 98.7444C219.386 93.7151 224.7 87.8243 232.626 87.8243L146.689 87.7642Z" fill="#E85B18"/>
<path d="M47.4462 87.7239C47.926 87.7584 48.4066 87.6679 48.8305 87.4634H26.1016C26.5263 87.6658 27.0063 87.7561 27.4858 87.7239C35.0994 87.7239 34.9654 99.8863 34.7421 111.768C34.6111 117.729 33.428 123.633 31.2368 129.26C30.4946 130.871 29.8973 132.533 29.4506 134.23C28.5129 138.798 32.1745 144.549 37.466 144.549C42.7576 144.549 46.3969 138.798 45.4815 134.23C45.045 132.53 44.4475 130.868 43.6953 129.26C41.494 123.615 40.318 117.689 40.2123 111.708C39.9667 99.8863 39.855 87.7239 47.4462 87.7239Z" fill="#E85B18"/>
<path d="M322.221 42.3497C319.948 40.0426 317.727 37.6738 315.558 35.2434C314.012 33.5658 312.559 31.8019 311.208 29.96C309.797 27.939 310.241 24.1085 307.21 23.5009C306.858 23.4333 306.494 23.4573 306.154 23.5705C305.813 23.6837 305.507 23.8824 305.263 24.1481C304.715 24.7161 304.754 25.6011 304.336 26.2483C303.918 26.8956 302.925 26.9616 302.324 27.5032C301.935 27.8443 301.675 28.3114 301.59 28.8246C301.504 29.3378 301.597 29.8652 301.853 30.3166C302.227 30.8482 302.751 31.2534 303.356 31.479C304.296 31.862 305.315 31.9677 306.269 32.3639C307.198 32.7618 308.075 33.2718 308.882 33.8829C310.445 35.112 311.932 36.4353 313.337 37.8455C315.624 39.9854 317.832 42.2176 320.013 44.4499C323.201 47.7388 326.363 51.0542 329.159 54.6734C330.611 56.5028 331.662 58.6234 332.242 60.8947C332.66 62.4665 333.954 64.144 335.717 63.1798C336.945 62.5061 336.893 60.8154 338.33 60.4192C338.714 60.3433 339.09 60.2328 339.454 60.0889C341.531 59.0587 340.303 56.5094 338.84 55.6376C337.377 54.7659 335.534 54.5941 334.071 53.511C329.984 50.2304 326.177 46.6072 322.692 42.6799L322.221 42.3497Z" fill="#EBE8E0"/>
<path d="M260.897 18.1681C258.513 20.3635 256.063 22.4925 253.549 24.5551C251.828 26.0456 250.023 27.4333 248.145 28.7114C246.082 30.0393 242.323 29.3753 241.619 32.4161C241.534 32.7712 241.539 33.1422 241.632 33.4949C241.726 33.8476 241.905 34.1707 242.154 34.4345C242.689 35.0188 243.563 35.0321 244.177 35.4835C244.79 35.935 244.803 36.9574 245.312 37.5815C245.626 37.9987 246.073 38.291 246.576 38.4075C247.079 38.5239 247.607 38.4572 248.066 38.2189C248.607 37.8645 249.034 37.3567 249.293 36.7583C249.724 35.8155 249.881 34.793 250.312 33.8502C250.755 32.9381 251.303 32.0823 251.943 31.3007C253.256 29.7809 254.655 28.34 256.133 26.9851C258.365 24.7809 260.675 22.6563 263.025 20.5715C266.397 17.4528 269.926 14.5142 273.597 11.7678C275.483 10.3953 277.631 9.44074 279.902 8.96597C281.455 8.634 283.191 7.41237 282.33 5.56663C281.729 4.23876 280.058 4.23874 279.719 2.8312C279.662 2.43856 279.57 2.05193 279.445 1.67596C278.544 -0.488467 275.96 0.626934 275.02 2.06103C274.08 3.49513 273.819 5.36745 272.671 6.78827C269.218 10.7611 265.446 14.4343 261.393 17.7697L260.897 18.1681Z" fill="#EBE8E0"/>
</svg>
