<svg width="256" height="374" viewBox="0 0 256 374" fill="none" xmlns="http://www.w3.org/2000/svg">
<g clip-path="url(#clip0_1866_939)">
<path d="M255.787 0H0.787109V255.103H255.787V0Z" fill="#E85B18"/>
<path d="M160.034 255.015C159.577 255.069 159.115 255.069 158.658 255.015C156.911 255.017 155.199 255.499 153.707 256.408C152.215 257.317 151.002 258.617 150.198 260.169C147.598 265.023 143.383 268.814 138.284 270.887C135.261 271.751 132.056 271.751 129.033 270.887C123.343 269.028 118.141 265.916 113.811 261.78C111.958 259.942 109.895 258.33 107.664 256.977C105.122 255.657 102.302 254.964 99.438 254.956C98.8242 255.005 98.2075 255.005 97.5938 254.956L160.034 255.015Z" fill="#E85B18"/>
<path d="M215.331 350.103C217.142 350.103 218.61 348.333 218.61 346.15C218.61 343.966 217.142 342.196 215.331 342.196C213.521 342.196 212.053 343.966 212.053 346.15C212.053 348.333 213.521 350.103 215.331 350.103Z" fill="#E85B18"/>
<path d="M215.214 360.177C214.936 360.195 214.666 360.275 214.424 360.411C213.458 360.88 213.048 362.022 212.609 362.93C211.834 364.449 211.301 366.079 211.028 367.762C210.706 370.69 212.345 374.41 215.712 373.97C218.639 373.59 219.722 370.31 219.429 367.762C219.16 366.074 218.616 364.442 217.819 362.93C217.322 361.846 216.531 360.148 215.214 360.177Z" fill="#E85B18"/>
<path d="M227.568 254.604H203.359C209.214 255.571 214.659 263.8 214.454 288.927C214.517 299.512 213.397 310.071 211.117 320.408C210.239 324.127 208.365 332.298 213.02 334.494C213.789 334.856 214.628 335.046 215.479 335.051C216.339 335.05 217.188 334.86 217.967 334.494C222.592 332.298 220.718 324.127 219.84 320.408C217.574 310.069 216.455 299.511 216.503 288.927C216.269 263.8 221.802 255.571 227.568 254.604Z" fill="#E85B18"/>
</g>
<defs>
<clipPath id="clip0_1866_939">
<rect width="255" height="374" fill="white" transform="translate(0.787109)"/>
</clipPath>
</defs>
</svg>
