<svg width="42" height="51" viewBox="0 0 42 51" fill="none" xmlns="http://www.w3.org/2000/svg">
<g clip-path="url(#clip0_1135_294)">
<path d="M18.7189 0.122981C14.4178 0.596154 10.3665 2.39999 7.11932 5.28767C3.87217 8.17535 1.58781 12.0058 0.578822 16.2549C-0.43017 20.504 -0.114508 24.9642 1.48262 29.0252C3.07974 33.0862 5.8803 36.5496 9.50111 38.9415C10.3384 40.4067 10.7688 42.073 10.7469 43.7646C10.7495 43.9245 10.7469 44.084 10.7434 44.2434C10.6714 44.921 10.6359 45.6021 10.6372 46.2835C10.5271 47.5948 10.374 48.9057 10.3569 50.2215C10.3454 50.3867 10.3843 50.5515 10.4683 50.6937C10.5017 50.7801 10.5592 50.8549 10.6339 50.9088C10.7086 50.9628 10.7972 50.9936 10.889 50.9976C11.4049 51.0468 11.4268 50.4709 11.4285 50.1005C11.4285 49.4289 11.3347 48.7586 11.2873 48.0892C11.2412 47.4385 11.2145 46.7859 11.2171 46.1333C11.1716 44.8443 11.3332 43.5563 11.6957 42.3194C11.807 41.9554 12.0049 41.6244 12.2721 41.3554C12.4767 41.2577 12.6866 41.1715 12.9007 41.0972C13.1004 41.0279 13.3125 41.0028 13.5227 41.0236C14.4909 41.3959 15.4851 41.6953 16.4972 41.9194C16.8091 42.2865 17.1723 42.6057 17.5754 42.867C17.9334 43.0495 18.3239 43.1578 18.724 43.1858C19.124 43.2137 19.5256 43.1606 19.905 43.0296C20.3719 42.878 20.8188 42.6697 21.2359 42.4094C21.9114 42.4018 22.5927 42.3699 23.2809 42.2964C25.1855 42.0905 27.0524 41.6174 28.8277 40.8907C28.887 40.9691 28.9378 41.0538 28.979 41.1432C29.1856 41.6239 29.2093 42.3079 29.7063 42.4577C29.8596 42.4875 30.0183 42.4696 30.1613 42.4063C30.3044 42.343 30.425 42.2373 30.5072 42.1033C30.6659 41.8317 30.7823 41.5373 30.8525 41.2301C31.0606 40.5898 31.3609 39.9839 31.7438 39.4319C35.8645 36.9551 39.0217 33.1286 40.6908 28.5886C42.3599 24.0485 42.4402 19.0683 40.9185 14.4757C39.3967 9.88314 36.3646 5.95484 32.326 3.34377C28.2874 0.732703 23.4857 -0.403867 18.7189 0.122981ZM18.9659 40.0189C15.4548 39.6316 12.1236 38.2499 9.35647 36.033C6.58939 33.8162 4.49917 30.8545 3.32689 27.4896C2.15462 24.1247 1.94805 20.4936 2.73102 17.0153C3.51398 13.5369 5.25458 10.3529 7.75205 7.8306C10.2495 5.30824 13.4021 3.55027 16.8462 2.75945C20.2903 1.96863 23.8856 2.17717 27.2174 3.36103C30.5492 4.54488 33.4818 6.65582 35.6769 9.45037C37.872 12.2449 39.2402 15.6092 39.6237 19.1552C39.9221 21.9688 39.5929 24.8142 38.6603 27.4825C37.7276 30.1508 36.2152 32.5744 34.2341 34.5753C32.2529 36.5762 29.8532 38.1037 27.2112 39.0457C24.5692 39.9876 21.7518 40.3202 18.9659 40.0189Z" fill="#EBE8E0"/>
<path d="M15.4361 21.2092C15.6347 21.2092 15.8313 21.1697 16.0147 21.093C16.1982 21.0162 16.3649 20.9037 16.5053 20.7619C16.6457 20.6201 16.7571 20.4518 16.833 20.2665C16.909 20.0813 16.9481 19.8827 16.9481 19.6821V11.4519C16.9481 11.0469 16.7888 10.6585 16.5053 10.3721C16.2217 10.0857 15.8371 9.9248 15.4361 9.9248C15.0351 9.9248 14.6505 10.0857 14.3669 10.3721C14.0834 10.6585 13.9241 11.0469 13.9241 11.4519V19.6821C13.9241 19.8827 13.9632 20.0813 14.0392 20.2665C14.1152 20.4518 14.2265 20.6201 14.3669 20.7619C14.5073 20.9037 14.674 21.0162 14.8575 21.093C15.0409 21.1697 15.2375 21.2092 15.4361 21.2092Z" fill="#EBE8E0"/>
<path d="M26.14 21.2089C26.3385 21.2089 26.5352 21.1694 26.7186 21.0926C26.9021 21.0159 27.0687 20.9034 27.2092 20.7616C27.3496 20.6198 27.4609 20.4514 27.5369 20.2662C27.6129 20.0809 27.652 19.8823 27.652 19.6818V11.4515C27.6554 11.2488 27.6189 11.0475 27.5444 10.8592C27.47 10.6709 27.3592 10.4995 27.2184 10.3549C27.0777 10.2104 26.9099 10.0956 26.7248 10.0172C26.5397 9.9388 26.3409 9.89844 26.1402 9.89844C25.9395 9.89844 25.7408 9.9388 25.5556 10.0172C25.3705 10.0956 25.2027 10.2104 25.062 10.3549C24.9212 10.4995 24.8104 10.6709 24.736 10.8592C24.6616 11.0475 24.625 11.2488 24.6284 11.4515V19.6818C24.6283 19.8823 24.6674 20.0809 24.7433 20.2661C24.8193 20.4514 24.9306 20.6198 25.071 20.7616C25.2113 20.9034 25.378 21.0159 25.5614 21.0926C25.7448 21.1693 25.9414 21.2089 26.14 21.2089Z" fill="#EBE8E0"/>
<path d="M33.4968 20.1037C33.2184 20.1888 32.9756 20.3644 32.8062 20.6032C32.6369 20.8421 32.5504 21.1307 32.5602 21.4243C32.5486 24.5209 31.3195 27.4859 29.1432 29.6672C26.9669 31.8485 24.0218 33.0674 20.9557 33.0556C17.8896 33.0439 14.9538 31.8025 12.7939 29.6046C10.6341 27.4067 9.42729 24.4323 9.43892 21.3357C9.43879 21.1426 9.3952 20.9521 9.31144 20.7785C9.22768 20.6049 9.10595 20.4528 8.95545 20.3337C8.80494 20.2146 8.6296 20.1316 8.44268 20.091C8.25575 20.0504 8.06213 20.0532 7.87644 20.0993C7.59918 20.1733 7.35439 20.3389 7.18097 20.5696C7.00754 20.8003 6.91544 21.0829 6.91931 21.3725C6.92413 25.144 8.41226 28.7592 11.0563 31.4226C13.7004 34.0861 17.2838 35.5797 21.0182 35.5748C24.7527 35.5699 28.3322 34.067 30.9695 31.3966C33.6067 28.7263 35.0856 25.1073 35.0807 21.3357C35.0807 21.1407 35.0363 20.9482 34.951 20.7732C34.8657 20.5982 34.7418 20.4453 34.5888 20.3263C34.4357 20.2073 34.2577 20.1253 34.0684 20.0867C33.8791 20.0481 33.6835 20.0539 33.4968 20.1037Z" fill="#EBE8E0"/>
<path d="M30.2423 46.9365L30.2269 46.9972C30.1247 47.0391 30.0377 47.1118 29.9778 47.2054C29.9179 47.2991 29.888 47.409 29.8922 47.5204C29.899 47.5745 29.918 47.6263 29.9478 47.6718C29.9776 47.7172 30.0174 47.7552 30.0641 47.7825C30.1108 47.8099 30.1631 47.8261 30.217 47.8297C30.2709 47.8333 30.3249 47.8244 30.3748 47.8035C30.4424 47.7539 30.4925 47.6836 30.5175 47.603C30.5426 47.5224 30.5413 47.4358 30.5138 47.3561C30.4552 47.1976 30.3624 47.0543 30.2423 46.9365Z" fill="#EBE8E0"/>
</g>
<defs>
<clipPath id="clip0_1135_294">
<rect width="42" height="51" fill="white"/>
</clipPath>
</defs>
</svg>
