<svg width="68" height="59" viewBox="0 0 68 59" fill="none" xmlns="http://www.w3.org/2000/svg">
<g clip-path="url(#clip0_1111_179)">
<path d="M63.8862 8.93789C63.558 8.85806 63.2232 8.80822 62.886 8.78895C64.1917 6.62696 63.6389 3.63941 61.9082 1.71683C59.2969 -1.18344 55.0698 -0.118459 52.9139 2.75139C52.3018 3.55356 51.8562 4.47094 51.6037 5.44917C51.3512 6.42739 51.2969 7.44655 51.444 8.44624C41.202 16.4056 31.3266 24.8115 21.8179 33.6639C19.1848 36.1195 16.5847 38.6095 14.0176 41.134C12.069 40.6485 10.1724 39.973 8.35475 39.1169C7.38569 38.6573 6.43019 38.1696 5.4715 37.6892C4.9377 37.3855 4.387 37.1128 3.82211 36.8725C3.35074 36.7027 3.03649 36.9109 2.64249 37.1871C1.86008 37.7342 1.21473 38.456 0.757141 39.2958C0.299556 40.1356 0.0422143 41.0705 0.00534425 42.027C-0.0315258 42.9835 0.153081 43.9356 0.544653 44.8084C0.936225 45.6812 1.52409 46.4509 2.26204 47.057C2.97721 47.6441 3.81668 48.059 4.71619 48.2702C5.60417 48.3799 6.48087 48.5674 7.33624 48.8307C8.56451 49.3472 7.90172 50.3801 7.43195 51.2529C6.90619 52.207 6.69259 53.303 6.82137 54.3857C6.95015 55.4684 7.41479 56.4831 8.14955 57.2861C8.88431 58.0891 9.85198 58.6398 10.9156 58.8603C11.9793 59.0808 13.0851 58.96 14.0766 58.5148C14.9455 58.1104 15.6896 57.4779 16.2302 56.6841C16.7709 55.8903 17.088 54.9647 17.1481 54.005C17.1716 52.764 17.2884 51.5266 17.4974 50.3032C17.7776 49.2805 18.2285 48.3128 18.8309 47.4414C20.1398 45.6525 21.6927 44.0573 23.4441 42.7026C25.5179 40.9594 27.6075 39.2346 29.69 37.5018L42.6706 26.6935L49.0353 21.3958C50.0889 20.519 51.1393 19.6342 52.1961 18.7646C53.1342 17.9213 54.1922 17.2232 55.3353 16.693C55.8663 16.4628 56.438 16.3418 57.0164 16.3372C57.5948 16.3327 58.1682 16.4447 58.7027 16.6666C59.6925 17.067 60.585 17.6771 61.574 18.0863C62.3976 18.4801 63.3233 18.6052 64.2213 18.4441C65.1192 18.283 65.9445 17.8437 66.5812 17.1879C67.1941 16.5677 67.6293 15.7932 67.8412 14.9459C68.0531 14.0986 68.0339 13.2096 67.7856 12.3723C67.4677 11.5216 66.9454 10.763 66.2651 10.1639C65.5848 9.5647 64.7676 9.14357 63.8862 8.93789Z" fill="#EBE8E0"/>
</g>
<defs>
<clipPath id="clip0_1111_179">
<rect width="68" height="59" fill="white"/>
</clipPath>
</defs>
</svg>
