<svg width="539" height="305" viewBox="0 0 539 305" fill="none" xmlns="http://www.w3.org/2000/svg">
<path d="M510.549 29H0.548828V156H510.549V29Z" fill="#E85B18"/>
<path d="M418.049 275C419.982 275 421.549 273.209 421.549 271C421.549 268.791 419.982 267 418.049 267C416.116 267 414.549 268.791 414.549 271C414.549 273.209 416.116 275 418.049 275Z" fill="#E85B18"/>
<path d="M418.061 291C417.759 291.013 417.464 291.09 417.198 291.228C416.28 291.853 415.609 292.754 415.292 293.787C414.453 295.319 413.879 296.971 413.594 298.679C413.237 301.522 414.994 305.419 418.568 304.964C421.546 304.594 422.826 301.267 422.499 298.679C422.21 296.976 421.648 295.326 420.831 293.787C420.295 292.678 419.431 290.972 418.061 291Z" fill="#E85B18"/>
<path d="M431.549 154H404.549C410.979 154.961 417.034 163.27 417.034 188.593C417.111 199.256 415.865 209.893 413.32 220.304C412.352 224.035 410.199 232.259 415.411 234.435C416.274 234.807 417.218 235 418.174 235C419.129 235 420.073 234.807 420.936 234.435C426.086 232.203 424.058 223.978 423.027 220.304C420.498 209.891 419.252 199.255 419.313 188.593C419.063 163.27 425.306 154.961 431.549 154Z" fill="#E85B18"/>
<path d="M248.549 154C250.683 154.121 252.784 154.531 254.784 155.217C259.154 157.174 262.916 160.092 265.727 163.705C267.375 165.593 269.368 167.211 271.62 168.486C272.91 169.3 274.444 169.737 276.016 169.737C277.587 169.737 279.121 169.3 280.412 168.486C282.781 166.817 284.808 164.355 287.863 163.676C295.283 162.035 299.243 168.175 300.708 173.834C302.672 181.53 300.708 189.395 298.65 196.865C296.785 202.237 295.849 207.84 295.875 213.473C296.312 219.301 301.3 226.262 308.689 223.291C310.367 222.509 311.811 221.37 312.897 219.97C313.983 218.57 314.679 216.953 314.925 215.256C316.515 206.598 311.807 197.94 310.872 189.395C310.279 183.369 310.872 175.107 319.009 173.692C321.954 173.184 324.994 173.379 327.832 174.258C330.949 175.22 334.067 177.088 337.185 175.673C339.759 174.028 341.943 171.93 343.607 169.505C350.061 162.403 357.481 154.085 368.549 154.085L248.549 154Z" fill="#E85B18"/>
<path d="M246.096 163.752H248.804C247.904 163.674 246.996 163.674 246.096 163.752Z" fill="#E85B18"/>
<path d="M498.583 91.5499C493.629 86.4742 488.788 81.263 484.061 75.9161C480.69 72.2253 477.525 68.3447 474.579 64.2925C471.504 59.8465 472.472 51.4193 465.866 50.0826C465.098 49.9339 464.306 49.9865 463.564 50.2356C462.822 50.4846 462.154 50.9219 461.623 51.5065C460.427 52.756 460.513 54.703 459.601 56.1269C458.69 57.5508 456.526 57.6961 455.216 58.8875C454.369 59.6381 453.804 60.6657 453.617 61.7948C453.43 62.9238 453.633 64.084 454.191 65.0771C455.005 66.2467 456.147 67.1381 457.466 67.6343C459.516 68.477 461.737 68.7095 463.816 69.5812C465.839 70.4565 467.751 71.5786 469.51 72.923C472.916 75.627 476.159 78.5382 479.22 81.6408C484.203 86.3483 489.016 91.2593 493.771 96.1703C500.719 103.406 507.61 110.7 513.703 118.662C516.868 122.687 519.159 127.352 520.423 132.349C521.334 135.807 524.153 139.497 527.997 137.376C530.674 135.894 530.56 132.174 533.692 131.303C534.528 131.136 535.348 130.893 536.141 130.576C540.669 128.31 537.992 122.701 534.803 120.783C531.614 118.865 527.599 118.488 524.41 116.105C515.501 108.888 507.204 100.916 499.608 92.2764L498.583 91.5499Z" fill="#EBE8E0"/>
<path d="M366.999 38.6708C361.766 43.4661 356.389 48.1163 350.868 52.6215C347.091 55.8769 343.13 58.908 339.006 61.6996C334.479 64.5999 326.228 63.1497 324.68 69.7915C324.495 70.5671 324.506 71.3775 324.711 72.1479C324.916 72.9182 325.31 73.624 325.855 74.2001C327.03 75.4762 328.95 75.5053 330.296 76.4914C331.643 77.4775 331.671 79.7107 332.789 81.0739C333.477 81.9851 334.458 82.6235 335.563 82.8779C336.667 83.1322 337.825 82.9865 338.834 82.4661C340.021 81.692 340.957 80.5828 341.528 79.2757C342.473 77.2164 342.817 74.9832 343.763 72.9239C344.736 70.9315 345.938 69.0624 347.344 67.3553C350.227 64.0357 353.298 60.8883 356.541 57.9291C361.441 53.1146 366.512 48.474 371.67 43.9204C379.072 37.1084 386.818 30.69 394.878 24.6912C399.017 21.6933 403.732 19.6084 408.717 18.5715C412.126 17.8464 415.937 15.1781 414.046 11.1466C412.728 8.24622 409.061 8.24619 408.316 5.17182C408.19 4.3142 407.989 3.46973 407.714 2.64853C405.737 -2.07903 400.064 0.357239 398.001 3.48961C395.938 6.62199 395.365 10.7115 392.844 13.8149C385.264 22.4924 376.984 30.5154 368.088 37.8007L366.999 38.6708Z" fill="#EBE8E0"/>
<path d="M109.6 154.365C110.275 154.413 110.952 154.287 111.549 154H79.5488C80.1468 154.284 80.8226 154.41 81.4978 154.365C92.2168 154.365 92.0282 171.41 91.7139 188.061C91.5294 196.414 89.8636 204.688 86.7787 212.575C85.7338 214.833 84.8928 217.161 84.264 219.539C82.9437 225.941 88.0989 234 95.5488 234C102.999 234 108.123 225.941 106.834 219.539C106.219 217.158 105.378 214.828 104.319 212.575C101.22 204.663 99.564 196.358 99.4152 187.977C99.0695 171.41 98.9123 154.365 109.6 154.365Z" fill="#E85B18"/>
</svg>
