<svg width="434" height="297" viewBox="0 0 434 297" fill="none" xmlns="http://www.w3.org/2000/svg">
<path d="M383.787 26.9652H0.787109V153.61H383.787V26.9652Z" fill="#E85B18"/>
<path d="M353.353 266.41C355.255 266.41 356.798 264.753 356.798 262.71C356.798 260.667 355.255 259.011 353.353 259.011C351.45 259.011 349.908 260.667 349.908 262.71C349.908 264.753 351.45 266.41 353.353 266.41Z" fill="#E85B18"/>
<path d="M353.264 282.077C352.965 282.089 352.673 282.161 352.41 282.289C351.503 282.87 350.84 283.707 350.526 284.667C349.696 286.09 349.129 287.625 348.848 289.212C348.494 291.854 350.231 295.474 353.764 295.051C356.709 294.708 357.975 291.616 357.651 289.212C357.366 287.629 356.81 286.096 356.002 284.667C355.472 283.636 354.618 282.051 353.264 282.077Z" fill="#E85B18"/>
<path d="M366.159 152.954H340.691C346.756 153.852 352.468 161.62 352.468 185.294C352.541 195.262 351.365 205.206 348.965 214.939C348.052 218.427 346.02 226.116 350.937 228.15C351.751 228.498 352.641 228.678 353.543 228.678C354.444 228.678 355.334 228.498 356.148 228.15C361.006 226.063 359.093 218.374 358.121 214.939C355.735 205.204 354.56 195.261 354.617 185.294C354.382 161.62 360.27 153.852 366.159 152.954Z" fill="#E85B18"/>
<path d="M193.041 153.007C195.056 153.119 197.041 153.502 198.929 154.143C203.056 155.971 206.609 158.696 209.263 162.069C210.819 163.833 212.702 165.343 214.828 166.535C216.046 167.295 217.495 167.702 218.979 167.702C220.463 167.702 221.912 167.295 223.13 166.535C225.368 164.976 227.282 162.677 230.167 162.043C237.174 160.51 240.913 166.244 242.297 171.528C244.152 178.715 242.297 186.06 240.354 193.036C238.592 198.053 237.709 203.285 237.734 208.545C238.146 213.988 242.856 220.488 249.834 217.714C251.419 216.984 252.782 215.919 253.808 214.613C254.834 213.306 255.491 211.795 255.723 210.21C257.224 202.125 252.778 194.04 251.895 186.06C251.336 180.433 251.895 172.717 259.579 171.396C262.361 170.922 265.232 171.104 267.911 171.925C270.856 172.823 273.8 174.567 276.744 173.246C279.175 171.71 281.238 169.751 282.809 167.486C288.903 160.854 295.911 153.086 306.362 153.086L193.041 153.007Z" fill="#E85B18"/>
<path d="M190.334 153.903H193.043C192.142 153.824 191.235 153.824 190.334 153.903Z" fill="#E85B18"/>
<path d="M384.662 82.8552C380.138 78.2401 375.717 73.5019 371.4 68.6402C368.322 65.2844 365.431 61.7559 362.741 58.0715C359.932 54.029 360.817 46.3666 354.784 45.1512C354.083 45.016 353.359 45.0639 352.682 45.2903C352.004 45.5168 351.394 45.9144 350.909 46.4459C349.817 47.582 349.895 49.3523 349.063 50.647C348.23 51.9416 346.254 52.0738 345.058 53.157C344.284 53.8395 343.768 54.7739 343.597 55.8004C343.426 56.827 343.612 57.8819 344.122 58.7849C344.865 59.8484 345.908 60.6588 347.112 61.11C348.985 61.8762 351.013 62.0876 352.911 62.8803C354.759 63.6761 356.506 64.6963 358.112 65.9188C361.222 68.3773 364.183 71.0243 366.98 73.8453C371.53 78.1257 375.925 82.591 380.268 87.0563C386.613 93.6353 392.906 100.267 398.471 107.507C401.361 111.166 403.453 115.408 404.608 119.951C405.44 123.096 408.014 126.451 411.525 124.522C413.969 123.175 413.865 119.793 416.726 119C417.489 118.848 418.238 118.627 418.962 118.34C423.097 116.279 420.652 111.179 417.74 109.436C414.827 107.692 411.161 107.348 408.248 105.182C400.113 98.6193 392.536 91.3717 385.599 83.5157L384.662 82.8552Z" fill="#EBE8E0"/>
<path d="M263.207 35.3795C258.457 39.7479 253.577 43.9842 248.567 48.0884C245.139 51.054 241.544 53.8153 237.801 56.3584C233.693 59.0006 226.203 57.6795 224.799 63.7301C224.631 64.4367 224.641 65.1749 224.827 65.8767C225.013 66.5785 225.37 67.2214 225.865 67.7462C226.931 68.9088 228.674 68.9352 229.896 69.8336C231.118 70.7319 231.144 72.7664 232.158 74.0082C232.782 74.8383 233.673 75.4199 234.676 75.6516C235.678 75.8833 236.729 75.7506 237.645 75.2765C238.722 74.5713 239.572 73.5608 240.09 72.37C240.948 70.4941 241.26 68.4596 242.118 66.5837C243.001 64.7686 244.092 63.0659 245.368 61.5107C247.985 58.4866 250.772 55.6194 253.716 52.9236C258.163 48.5376 262.765 44.3101 267.446 40.1618C274.164 33.9561 281.195 28.1091 288.51 22.6442C292.266 19.9132 296.545 18.0139 301.07 17.0692C304.164 16.4087 307.623 13.9778 305.906 10.3052C304.71 7.66303 301.382 7.663 300.706 4.86229C300.592 4.08101 300.409 3.31171 300.159 2.5636C298.365 -1.74316 293.216 0.476259 291.344 3.32982C289.472 6.18337 288.952 9.90888 286.663 12.736C279.784 20.6412 272.269 27.95 264.196 34.5868L263.207 35.3795Z" fill="#EBE8E0"/>
<path d="M62.1737 152.954C62.8063 152.999 63.4401 152.88 63.9991 152.61H34.0273C34.5874 152.877 35.2203 152.996 35.8527 152.954C45.8924 152.954 45.7157 168.992 45.4213 184.66C45.2485 192.52 43.6884 200.305 40.799 207.726C39.8202 209.851 39.0326 212.042 38.4436 214.279C37.2071 220.303 42.0355 227.886 49.0132 227.886C55.9909 227.886 60.7899 220.303 59.5828 214.279C59.0073 212.038 58.2193 209.846 57.2275 207.726C54.3247 200.282 52.7739 192.467 52.6345 184.581C52.3107 168.992 52.1635 152.954 62.1737 152.954Z" fill="#E85B18"/>
</svg>
