<svg width="257" height="201" viewBox="0 0 257 201" fill="none" xmlns="http://www.w3.org/2000/svg">
<path d="M227.311 22H0.310547V98H227.311V22Z" fill="#E85B18"/>
<path d="M216.811 180C218.191 180 219.311 178.881 219.311 177.5C219.311 176.119 218.191 175 216.811 175C215.43 175 214.311 176.119 214.311 177.5C214.311 178.881 215.43 180 216.811 180Z" fill="#E85B18"/>
<path d="M216.82 192C216.585 192.008 216.356 192.058 216.149 192.146C215.435 192.548 214.913 193.128 214.666 193.792C214.014 194.777 213.568 195.839 213.346 196.936C213.068 198.764 214.435 201.269 217.214 200.977C219.53 200.739 220.526 198.6 220.272 196.936C220.047 195.842 219.61 194.781 218.975 193.792C218.558 193.079 217.886 191.982 216.82 192Z" fill="#E85B18"/>
<path d="M226.311 98H208.311C212.597 98.6525 216.634 104.295 216.634 121.489C216.685 128.729 215.855 135.952 214.158 143.021C213.513 145.554 212.077 151.139 215.552 152.617C216.128 152.869 216.757 153 217.394 153C218.031 153 218.66 152.869 219.235 152.617C222.669 151.101 221.316 145.516 220.63 143.021C218.943 135.951 218.113 128.729 218.153 121.489C217.987 104.295 222.149 98.6525 226.311 98Z" fill="#E85B18"/>
<path d="M101.311 98C102.769 98.0829 104.205 98.3641 105.571 98.8343C108.558 100.177 111.128 102.177 113.049 104.655C114.175 105.95 115.537 107.059 117.076 107.933C117.957 108.492 119.006 108.791 120.08 108.791C121.154 108.791 122.202 108.492 123.083 107.933C124.703 106.789 126.087 105.101 128.175 104.635C133.246 103.51 135.951 107.72 136.953 111.6C138.295 116.877 136.953 122.271 135.546 127.393C134.272 131.077 133.632 134.919 133.65 138.781C133.949 142.778 137.357 147.551 142.406 145.514C143.553 144.978 144.54 144.196 145.282 143.237C146.024 142.277 146.499 141.168 146.667 140.004C147.754 134.067 144.537 128.13 143.898 122.271C143.493 118.139 143.898 112.473 149.458 111.503C151.471 111.155 153.548 111.288 155.487 111.891C157.618 112.551 159.748 113.831 161.878 112.861C163.638 111.733 165.13 110.295 166.267 108.632C170.677 103.762 175.748 98.0582 183.311 98.0582L101.311 98Z" fill="#E85B18"/>
<path d="M189.857 149.752H192.566C191.665 149.674 190.758 149.674 189.857 149.752Z" fill="#E85B18"/>
<path d="M227.629 55.7459C224.074 52.1122 220.6 48.3815 217.208 44.5536C214.788 41.9113 212.517 39.1331 210.403 36.2321C208.196 33.0492 208.891 27.0161 204.15 26.0592C203.599 25.9527 203.031 25.9904 202.498 26.1687C201.966 26.347 201.486 26.66 201.105 27.0785C200.247 27.9731 200.308 29.3669 199.654 30.3863C199 31.4057 197.447 31.5097 196.507 32.3627C195.899 32.9 195.493 33.6357 195.359 34.444C195.225 35.2522 195.371 36.0829 195.772 36.7938C196.356 37.6312 197.175 38.2693 198.122 38.6245C199.593 39.2278 201.187 39.3943 202.678 40.0184C204.131 40.645 205.503 41.4483 206.765 42.4108C209.209 44.3466 211.536 46.4307 213.734 48.6519C217.31 52.0221 220.763 55.5379 224.176 59.0537C229.162 64.2338 234.107 69.4555 238.48 75.1557C240.752 78.0371 242.395 81.3771 243.303 84.9543C243.957 87.4299 245.98 90.072 248.738 88.5533C250.659 87.4923 250.577 84.8295 252.825 84.2053C253.425 84.0858 254.013 83.9118 254.583 83.6853C257.832 82.0626 255.911 78.0475 253.622 76.6744C251.334 75.3014 248.452 75.0309 246.164 73.325C239.77 68.1581 233.816 62.4516 228.365 56.266L227.629 55.7459Z" fill="#EBE8E0"/>
<path d="M149.498 27.9548C145.776 31.4213 141.952 34.7829 138.027 38.0396C135.34 40.3929 132.524 42.5841 129.591 44.6021C126.372 46.6987 120.504 45.6504 119.404 50.4517C119.272 51.0124 119.28 51.5982 119.426 52.1551C119.572 52.712 119.852 53.2221 120.239 53.6386C121.075 54.5611 122.44 54.5821 123.398 55.295C124.355 56.0078 124.376 57.6222 125.17 58.6076C125.659 59.2664 126.357 59.7278 127.143 59.9117C127.928 60.0956 128.751 59.9903 129.469 59.614C130.313 59.0545 130.979 58.2526 131.384 57.3077C132.057 55.8191 132.301 54.2047 132.974 52.7161C133.666 51.2758 134.521 49.9246 135.521 48.6905C137.571 46.2908 139.754 44.0157 142.061 41.8765C145.545 38.3961 149.151 35.0414 152.819 31.7497C158.082 26.8253 163.591 22.1855 169.322 17.849C172.266 15.6819 175.618 14.1748 179.163 13.4251C181.588 12.901 184.298 10.9721 182.953 8.05776C182.016 5.96113 179.408 5.9611 178.878 3.73867C178.789 3.1187 178.646 2.50824 178.45 1.9146C177.044 -1.50292 173.01 0.258245 171.543 2.52261C170.076 4.78698 169.669 7.74326 167.876 9.98666C162.486 16.2596 156.598 22.0594 150.272 27.3258L149.498 27.9548Z" fill="#EBE8E0"/>
<path d="M52.9707 98.251C53.435 98.2842 53.9003 98.1971 54.3105 98H32.3105C32.7217 98.1951 33.1862 98.2821 33.6504 98.251C41.0198 98.251 40.8901 109.969 40.674 121.417C40.5472 127.16 39.402 132.848 37.2811 138.27C36.5627 139.822 35.9845 141.423 35.5522 143.058C34.6445 147.459 38.1887 153 43.3105 153C48.4324 153 51.9549 147.459 51.0689 143.058C50.6465 141.421 50.0681 139.819 49.34 138.27C47.2093 132.831 46.071 127.121 45.9687 121.359C45.731 109.969 45.6229 98.251 52.9707 98.251Z" fill="#E85B18"/>
</svg>
