<svg width="128" height="152" viewBox="0 0 128 152"  xmlns="http://www.w3.org/2000/svg">
<rect x="0.787109" width="127" height="127" fill="currentColor"/>
<g clip-path="url(#clip0_1866_949)">
<path d="M115.958 134.108C119.185 133.888 122.607 133.28 125.151 131.123C127.442 129.183 128.403 126.223 127.379 123.354C127.023 122.296 126.396 121.35 125.562 120.61H39.9258C44.7124 120.858 49.4897 121.268 54.2577 121.839C62.7069 122.867 71.0855 124.413 79.3464 126.467C87.5132 128.492 95.4607 131.458 103.711 133.106C107.732 133.905 111.857 134.39 115.958 134.108Z" fill="currentColor"/>
</g>
<g clip-path="url(#clip1_1866_949)">
<path d="M47.9121 126.201C47.9544 126.229 47.9984 126.255 48.0438 126.278C48.5466 126.542 49.0264 126.847 49.4781 127.191C51.9502 129.2 52.6491 132.605 52.956 136.179C51.7506 141.119 48.971 147.876 54.4763 150.935C60.2804 154.149 64.3952 147.285 63.7579 142.284C63.4431 139.83 62.706 137.598 62.6052 135.236C63.1795 131.674 65.06 128.454 67.8807 126.201H47.9121Z" fill="currentColor"/>
</g>
<defs>
<clipPath id="clip0_1866_949">
<rect width="13.5786" height="87.8616" fill="white" transform="matrix(0 1 1 0 39.9258 120.61)"/>
</clipPath>
<clipPath id="clip1_1866_949">
<rect width="19.9686" height="25.5597" fill="white" transform="translate(47.9121 126.201)"/>
</clipPath>
</defs>
</svg>
