<svg width="128" height="164" viewBox="0 0 128 164"  xmlns="http://www.w3.org/2000/svg">
<g clip-path="url(#clip0_1866_920)">
<path d="M78.3867 126.853C78.7543 126.906 79.1273 126.906 79.4949 126.853C80.8734 126.865 82.2227 127.251 83.3989 127.969C84.5751 128.688 85.5339 129.712 86.173 130.932C88.2283 134.786 91.572 137.797 95.6214 139.44C98.0152 140.11 100.547 140.11 102.941 139.44C107.451 137.968 111.575 135.509 115.014 132.243C116.483 130.785 118.117 129.505 119.884 128.427C121.907 127.391 124.144 126.842 126.416 126.824C126.892 126.869 127.37 126.869 127.845 126.824L78.3867 126.853Z" fill="currentColor"/>
<path d="M127.787 0H0.787109V126.882H127.787V0Z" fill="currentColor"/>
<path d="M73.2837 126.474C72.2862 126.568 71.3056 126.793 70.3675 127.144C68.2457 128.205 66.4216 129.777 65.06 131.718C64.2343 132.726 63.2493 133.592 62.1438 134.282C61.5157 134.708 60.7741 134.936 60.0151 134.936C59.256 134.936 58.5143 134.708 57.8862 134.282C56.7197 133.379 55.7282 132.068 54.241 131.718C50.6541 130.844 48.7294 134.108 48.0295 137.138C47.3653 141.256 47.7054 145.474 49.021 149.433C49.9015 152.263 50.3537 155.209 50.3625 158.173C50.1583 161.261 47.7379 164.99 44.151 163.417C43.3553 162.991 42.6745 162.379 42.1667 161.633C41.659 160.888 41.3393 160.03 41.2348 159.134C40.4474 154.502 42.8095 149.87 43.2178 145.295C43.5094 142.091 43.2177 137.662 39.2517 136.904C37.8195 136.631 36.3404 136.742 34.9649 137.225C33.536 137.72 32.0488 138.682 30.3866 137.953C28.7243 137.225 28.1703 135.739 27.2954 134.69C24.1459 130.874 20.559 126.416 15.1641 126.416L73.2837 126.474Z" fill="currentColor"/>
</g>
<defs>
<clipPath id="clip0_1866_920">
<rect width="127" height="164" fill="white" transform="translate(0.787109)"/>
</clipPath>
</defs>
</svg>
