<svg width="41" height="40" viewBox="0 0 41 40" fill="none" xmlns="http://www.w3.org/2000/svg">
<g clip-path="url(#clip0_1297_38)">
<path d="M1.7847 19.1324C2.8277 19.1544 3.86883 19.1641 4.91068 19.1797C4.83491 19.1425 4.77182 19.0837 4.72932 19.0107C4.0857 18.9917 3.44309 18.9715 2.80148 18.9502C2.74798 18.948 2.6955 18.9349 2.64726 18.9116C2.59903 18.8883 2.55606 18.8555 2.52101 18.815C2.48596 18.7745 2.45957 18.7273 2.44345 18.6762C2.42733 18.6251 2.42183 18.5713 2.42729 18.518C2.17454 18.5007 1.91969 18.489 1.669 18.4728C1.20098 18.4404 1.1283 17.7439 1.62704 17.7199C9.83587 17.3227 18.0508 17.3233 26.2717 17.7217C28.512 17.8305 30.751 17.9703 32.9889 18.1411L32.9986 18.1406C33.0304 18.1433 33.0622 18.1444 33.0926 18.1488C33.1412 18.1503 33.1887 18.1638 33.2308 18.1883C33.2729 18.2128 33.3081 18.2474 33.3334 18.2889C33.4312 18.2888 33.5289 18.2884 33.6266 18.2877C29.6668 15.9202 25.8066 13.3962 22.0462 10.7157C21.8079 10.684 21.5888 10.5686 21.4278 10.3901C21.2669 10.2116 21.1747 9.9817 21.1678 9.74148C21.1653 9.67609 21.1798 9.61117 21.2098 9.55303C21.2398 9.49487 21.2843 9.44546 21.3391 9.40956C21.3938 9.37367 21.4568 9.35251 21.5221 9.34813C21.5874 9.34376 21.6527 9.35631 21.7117 9.38459C22.6785 9.94805 23.6335 10.5306 24.5896 11.1119C26.3203 12.0116 28.0531 12.9071 29.7748 13.8269C27.5573 12.2696 25.3809 10.6568 23.2456 8.98829C23.1826 8.92617 23.1434 8.84395 23.1347 8.75591C23.1261 8.66788 23.1485 8.57959 23.1982 8.50641C23.2479 8.43322 23.3217 8.37977 23.4067 8.35533C23.4917 8.3309 23.5826 8.33704 23.6636 8.37267C26.9624 10.197 30.0271 12.4157 32.7902 14.9801C34.3001 15.9956 35.8208 16.9941 37.3664 17.9562C37.7711 18.2077 37.4611 18.8693 37.0298 18.6297C35.9718 18.0431 34.9039 17.475 33.8419 16.8953C33.7943 16.8978 33.7468 16.8899 33.7027 16.872C33.6585 16.8541 33.6189 16.8267 33.5865 16.7918C33.5578 16.766 33.5296 16.7406 33.5052 16.7126C33.0975 16.4908 32.6896 16.269 32.2815 16.0472C33.7753 17.0571 35.2544 18.0871 36.7188 19.1372C37.0217 19.0547 37.3237 18.973 37.628 18.9025C38.0971 18.797 38.3314 19.513 37.8576 19.6196C37.7425 19.6458 37.6303 19.6791 37.5157 19.7074C37.5806 19.7626 37.6218 19.8406 37.6308 19.9253C37.6399 20.01 37.616 20.095 37.5642 20.1626C37.8111 20.116 38.0536 20.0532 38.3016 20.013C38.6823 19.9517 38.8296 20.5201 38.5255 20.7059C37.6244 21.2437 36.6651 21.6775 35.6662 21.999C37.122 21.6981 38.5837 21.4237 40.0403 21.1532C40.5003 21.0655 40.7514 21.7485 40.2699 21.8703C36.8949 22.7192 33.5172 23.5554 30.1368 24.3787C29.1199 24.8319 28.0886 25.2489 27.0431 25.6297C26.6524 25.7888 26.2655 25.9574 25.8716 26.1098C25.7973 26.1395 25.7146 26.141 25.6393 26.1138C24.7686 26.3991 23.8913 26.6662 23.0041 26.8993C22.6156 27.0009 22.2875 26.4317 22.6864 26.2236C22.7536 26.1886 22.8232 26.1604 22.8908 26.1258C22.5291 26.2119 22.1688 26.3015 21.8072 26.3876C21.7208 26.4122 21.6285 26.4053 21.5468 26.3682C21.4651 26.331 21.3992 26.266 21.361 26.1848C21.3228 26.1035 21.3147 26.0113 21.3383 25.9247C21.3618 25.838 21.4154 25.7626 21.4894 25.7118C23.974 23.6247 27.1183 23.0244 30.2515 22.4652C31.1066 21.7839 32.0202 21.1794 32.9817 20.6589C25.0815 20.3488 17.1795 20.1241 9.27574 19.9847C9.1472 19.9844 9.02069 19.9843 8.89232 19.9872C6.53672 19.9735 4.18149 19.9395 1.82666 19.8853C1.34445 19.873 1.29765 19.1272 1.7847 19.1324ZM19.2816 18.241C16.9763 18.1927 14.6707 18.1771 12.3646 18.1941C14.6708 18.1996 16.9762 18.2149 19.2816 18.241ZM5.34023 19.1013C5.30812 19.136 5.26989 19.1644 5.22746 19.1852C6.93354 19.2097 8.63935 19.224 10.3449 19.2282L9.31827 19.1523C8.00595 19.1161 6.69368 19.0756 5.38144 19.0308C5.37049 19.0558 5.35667 19.0795 5.34023 19.1013ZM23.6381 25.1733C24.702 24.9192 25.7652 24.6628 26.828 24.4042C27.8036 24.0447 28.7957 23.7321 29.7933 23.4396C29.746 23.4109 29.7046 23.3736 29.6709 23.3297C28.163 23.5796 26.6785 23.9548 25.2329 24.4512C24.6845 24.653 24.1515 24.8943 23.6381 25.1733ZM33.3947 21.2814C34.1196 21.0243 34.854 20.7971 35.598 20.5998L35.6241 20.5851C35.6841 20.55 35.7527 20.5324 35.8222 20.5343C36.2184 20.4328 36.6182 20.3535 37.0181 20.2698C36.8516 20.1751 36.6888 20.0746 36.5238 19.9782C35.9746 20.1474 35.4326 20.3391 34.9034 20.5599C34.8753 20.6107 34.8329 20.6523 34.7815 20.6793C34.7301 20.7064 34.6719 20.7179 34.614 20.7124L34.5613 20.7108C34.1639 20.8867 33.7765 21.0778 33.3954 21.2805L33.3947 21.2814ZM27.3494 19.6937C29.701 19.773 32.052 19.8609 34.4024 19.9574C34.8114 19.7797 35.229 19.6203 35.6512 19.4728C35.0941 19.15 34.5378 18.8272 33.9848 18.4982C34.0109 18.5517 34.0249 18.6103 34.026 18.6699C34.027 18.7294 34.015 18.7884 33.9909 18.8429C34.0257 18.8955 34.0457 18.9566 34.0488 19.0197C34.052 19.0827 34.0381 19.1455 34.0086 19.2013C33.9792 19.2572 33.9353 19.3041 33.8815 19.3372C33.8277 19.3702 33.766 19.3882 33.7029 19.3893C33.4626 19.4021 33.2189 19.412 32.9778 19.4241C32.9338 19.4668 32.8824 19.5013 32.8262 19.5258C32.5965 19.5988 32.3558 19.6315 32.1149 19.6226C31.197 19.6573 30.2778 19.6359 29.3605 19.5919C28.6252 19.6237 27.8903 19.6611 27.1552 19.6893C27.2202 19.689 27.2854 19.6903 27.3497 19.6925L27.3494 19.6937Z" fill="#EBE8E0"/>
</g>
<defs>
<clipPath id="clip0_1297_38">
<rect width="25.2873" height="31.7066" fill="currentColor" transform="matrix(-0.668239 0.743947 0.743947 0.668239 17.3845 -0.000976562)"/>
</clipPath>
</defs>
</svg>
