<svg width="41" height="40" viewBox="0 0 41 40" fill="none" xmlns="http://www.w3.org/2000/svg">
<g clip-path="url(#clip0_1297_36)">
<path d="M39.1884 19.1324C38.1454 19.1544 37.1043 19.1641 36.0625 19.1797C36.1382 19.1425 36.2013 19.0837 36.2438 19.0107C36.8874 18.9917 37.5301 18.9715 38.1717 18.9502C38.2252 18.948 38.2776 18.9349 38.3259 18.9116C38.3741 18.8883 38.4171 18.8555 38.4521 18.815C38.4872 18.7745 38.5136 18.7273 38.5297 18.6762C38.5458 18.6251 38.5513 18.5713 38.5459 18.518C38.7986 18.5007 39.0535 18.489 39.3041 18.4728C39.7722 18.4404 39.8448 17.7439 39.3461 17.7199C31.1373 17.3227 22.9224 17.3233 14.7014 17.7217C12.4612 17.8305 10.2221 17.9703 7.9842 18.1411L7.97459 18.1406C7.94272 18.1433 7.91093 18.1444 7.88057 18.1488C7.83193 18.1503 7.78442 18.1638 7.74236 18.1883C7.70029 18.2128 7.66501 18.2474 7.63971 18.2889C7.54199 18.2888 7.44428 18.2884 7.34659 18.2877C11.3064 15.9202 15.1665 13.3962 18.927 10.7157C19.1652 10.684 19.3844 10.5686 19.5453 10.3901C19.7062 10.2116 19.7984 9.9817 19.8054 9.74148C19.8078 9.67609 19.7933 9.61117 19.7633 9.55303C19.7333 9.49487 19.6888 9.44546 19.6341 9.40956C19.5794 9.37367 19.5163 9.35251 19.451 9.34813C19.3857 9.34376 19.3204 9.35631 19.2614 9.38459C18.2946 9.94805 17.3396 10.5306 16.3835 11.1119C14.6529 12.0116 12.9201 12.9071 11.1984 13.8269C13.4158 12.2696 15.5922 10.6568 17.7276 8.98829C17.7906 8.92617 17.8298 8.84395 17.8384 8.75591C17.8471 8.66788 17.8246 8.57959 17.7749 8.50641C17.7252 8.43322 17.6514 8.37977 17.5664 8.35533C17.4814 8.3309 17.3905 8.33704 17.3095 8.37267C14.0107 10.197 10.946 12.4157 8.18298 14.9801C6.67304 15.9956 5.15238 16.9941 3.60674 17.9562C3.20208 18.2077 3.51201 18.8693 3.94334 18.6297C5.00135 18.0431 6.06921 17.475 7.13126 16.8953C7.17882 16.8978 7.22634 16.8899 7.27047 16.872C7.3146 16.8541 7.35425 16.8267 7.38663 16.7918C7.41532 16.766 7.44359 16.7406 7.46798 16.7126C7.87561 16.4908 8.2835 16.269 8.69167 16.0472C7.19782 17.0571 5.71871 18.0871 4.25431 19.1372C3.95149 19.0547 3.64942 18.973 3.34516 18.9025C2.87609 18.797 2.64171 19.513 3.11554 19.6196C3.23061 19.6458 3.34288 19.6791 3.45744 19.7074C3.39254 19.7626 3.35133 19.8406 3.3423 19.9253C3.33327 20.01 3.35713 20.095 3.40893 20.1626C3.16202 20.116 2.91959 20.0532 2.67154 20.013C2.29087 19.9517 2.14352 20.5201 2.44763 20.7059C3.34876 21.2437 4.30801 21.6775 5.30697 21.999C3.85114 21.6981 2.38947 21.4237 0.932815 21.1532C0.472835 21.0655 0.221753 21.7485 0.703199 21.8703C4.0782 22.7192 7.45591 23.5554 10.8363 24.3787C11.8533 24.8319 12.8845 25.2489 13.93 25.6297C14.3207 25.7888 14.7077 25.9574 15.1015 26.1098C15.1759 26.1395 15.2585 26.141 15.3339 26.1138C16.2046 26.3991 17.0819 26.6662 17.969 26.8993C18.3576 27.0009 18.6857 26.4317 18.2868 26.2236C18.2196 26.1886 18.15 26.1604 18.0824 26.1258C18.444 26.2119 18.8043 26.3015 19.166 26.3876C19.2523 26.4122 19.3446 26.4053 19.4263 26.3682C19.5081 26.331 19.5739 26.266 19.6121 26.1848C19.6503 26.1035 19.6584 26.0113 19.6349 25.9247C19.6114 25.838 19.5578 25.7626 19.4837 25.7118C16.9991 23.6247 13.8548 23.0244 10.7216 22.4652C9.86652 21.7839 8.95289 21.1794 7.9914 20.6589C15.8917 20.3488 23.7937 20.1241 31.6974 19.9847C31.8259 19.9844 31.9525 19.9843 32.0808 19.9872C34.4364 19.9735 36.7917 19.9395 39.1465 19.8853C39.6287 19.873 39.6755 19.1272 39.1884 19.1324ZM21.6916 18.241C23.9968 18.1927 26.3025 18.1771 28.6085 18.1941C26.3023 18.1996 23.997 18.2149 21.6916 18.241ZM35.6329 19.1013C35.665 19.136 35.7033 19.1644 35.7457 19.1852C34.0396 19.2097 32.3338 19.224 30.6283 19.2282L31.6549 19.1523C32.9672 19.1161 34.2795 19.0756 35.5917 19.0308C35.6027 19.0558 35.6165 19.0795 35.6329 19.1013ZM17.335 25.1733C16.2712 24.9192 15.2079 24.6628 14.1451 24.4042C13.1696 24.0447 12.1775 23.7321 11.1798 23.4396C11.2271 23.4109 11.2686 23.3736 11.3022 23.3297C12.8101 23.5796 14.2946 23.9548 15.7403 24.4512C16.2886 24.653 16.8216 24.8943 17.335 25.1733ZM7.57849 21.2814C6.85354 21.0243 6.1191 20.7971 5.37516 20.5998L5.34903 20.5851C5.28905 20.55 5.22042 20.5324 5.15094 20.5343C4.75476 20.4328 4.35497 20.3535 3.95502 20.2698C4.12155 20.1751 4.28438 20.0746 4.44939 19.9782C4.99858 20.1474 5.54054 20.3391 6.0697 20.5599C6.09785 20.6107 6.14024 20.6523 6.19165 20.6793C6.24307 20.7064 6.30128 20.7179 6.35913 20.7124L6.41183 20.7108C6.80924 20.8867 7.19661 21.0778 7.57773 21.2805L7.57849 21.2814ZM13.6237 19.6937C11.2721 19.773 8.9211 19.8609 6.5707 19.9574C6.16173 19.7797 5.74415 19.6203 5.32192 19.4728C5.87901 19.15 6.43529 18.8272 6.9883 18.4982C6.96226 18.5517 6.94823 18.6103 6.94719 18.6699C6.94615 18.7294 6.95812 18.7884 6.98227 18.8429C6.94746 18.8955 6.92744 18.9566 6.92431 19.0197C6.92119 19.0827 6.93507 19.1455 6.96451 19.2013C6.99395 19.2572 7.03787 19.3041 7.09166 19.3372C7.14545 19.3702 7.20714 19.3882 7.27027 19.3893C7.51055 19.4021 7.75421 19.412 7.99534 19.4241C8.03935 19.4668 8.0907 19.5013 8.14692 19.5258C8.37668 19.5988 8.61733 19.6315 8.85824 19.6226C9.7761 19.6573 10.6954 19.6359 11.6126 19.5919C12.3479 19.6237 13.0829 19.6611 13.818 19.6893C13.7529 19.689 13.6878 19.6903 13.6234 19.6925L13.6237 19.6937Z" fill="#EBE8E0"/>
</g>
<defs>
<clipPath id="clip0_1297_36">
<rect width="25.2873" height="31.7066" fill="currentColor" transform="translate(23.5886 -0.000976562) rotate(48.0687)"/>
</clipPath>
</defs>
</svg>
