<svg width="31" height="31" viewBox="0 0 31 31" fill="none" xmlns="http://www.w3.org/2000/svg">
<g clip-path="url(#clip0_1308_122)">
<path d="M14.0232 22.6041C14.1369 22.6043 14.2494 22.6268 14.3544 22.6705C14.4594 22.7141 14.5547 22.778 14.635 22.8585C14.7152 22.939 14.7789 23.0345 14.8222 23.1396C14.8656 23.2447 14.8878 23.3573 14.8877 23.471C14.8875 23.5847 14.8649 23.6972 14.8213 23.8022C14.7776 23.9071 14.7137 24.0025 14.6332 24.0828C14.5527 24.163 14.4572 24.2267 14.3521 24.27C14.247 24.3134 14.1344 24.3356 14.0208 24.3354C13.7912 24.3351 13.5711 24.2436 13.409 24.081C13.2469 23.9184 13.156 23.6981 13.1563 23.4685C13.1566 23.2389 13.2482 23.0189 13.4107 22.8568C13.5733 22.6947 13.7936 22.6038 14.0232 22.6041ZM27.5981 17.2512C27.4844 17.2511 27.3719 17.2287 27.2669 17.1851C27.1619 17.1415 27.0665 17.0777 26.9862 16.9972C26.9058 16.9168 26.8421 16.8213 26.7987 16.7163C26.7553 16.6112 26.733 16.4986 26.733 16.3849C26.7331 16.2713 26.7556 16.1587 26.7992 16.0537C26.8428 15.9487 26.9066 15.8533 26.987 15.773C27.0675 15.6927 27.1629 15.629 27.268 15.5855C27.3731 15.5421 27.4856 15.5198 27.5993 15.5199C27.8289 15.52 28.049 15.6114 28.2113 15.7739C28.3735 15.9363 28.4645 16.1566 28.4644 16.3862C28.4642 16.6158 28.3729 16.8359 28.2104 16.9981C28.0479 17.1603 27.8277 17.2514 27.5981 17.2512ZM27.5981 13.7097C26.8883 13.7104 26.2078 13.9926 25.7059 14.4945C25.204 14.9964 24.9217 15.677 24.921 16.3868C24.921 16.6737 24.9691 16.9594 25.0627 17.2377L16.22 21.9453C15.9748 21.5893 15.6467 21.2982 15.264 21.0972C14.8813 20.8962 14.4555 20.7913 14.0232 20.7915C13.0024 20.7915 12.0727 21.3764 11.622 22.2889L3.67827 18.0997C2.83846 17.6588 2.21045 16.2772 2.27695 15.0187C2.31142 14.3624 2.538 13.8526 2.88402 13.6555C3.10321 13.5324 3.36673 13.5423 3.64749 13.6888L3.69921 13.7171C5.80489 14.8254 12.6933 18.4543 12.9839 18.5885C13.4309 18.7966 13.6797 18.8804 14.4431 18.5183L28.683 11.1127C28.8923 11.0339 29.1361 10.8332 29.1361 10.529C29.1361 10.1079 28.7002 9.94166 28.699 9.94166C27.8887 9.55378 26.6438 8.97133 25.4296 8.40242C22.8338 7.18704 19.892 5.81034 18.6003 5.13307C17.4847 4.54939 16.587 5.04195 16.4269 5.14046L16.1166 5.29438C10.3019 8.16969 2.51953 12.024 2.07623 12.2936C1.28444 12.7763 0.793115 13.7381 0.729083 14.9313C0.630571 16.8239 1.59475 18.7979 2.97515 19.5207L11.3757 23.8527C11.4683 24.4891 11.7867 25.0709 12.2727 25.4919C12.7588 25.9128 13.3802 26.1449 14.0232 26.1456C14.7255 26.1444 15.3993 25.8676 15.8997 25.3749C16.4001 24.8821 16.6871 24.2126 16.699 23.5104L25.9517 18.4949C26.4197 18.8619 27.0021 19.0626 27.5981 19.0626C28.3079 19.0619 28.9884 18.7797 29.4903 18.2778C29.9922 17.7759 30.2745 17.0953 30.2752 16.3856C30.2745 15.6758 29.9922 14.9952 29.4903 14.4933C28.9884 13.9914 28.3079 13.7092 27.5981 13.7085" fill="currentColor"/>
</g>
<defs>
<clipPath id="clip0_1308_122">
<rect width="29.5535" height="29.5535" fill="currentColor" transform="translate(0.72168 0.722656)"/>
</clipPath>
</defs>
</svg>
