<svg width="60" height="60" viewBox="0 0 60 60" fill="none" xmlns="http://www.w3.org/2000/svg">
<g >
<path d="M9.16406 27.7794C8.12854 27.7823 7.115 28.0783 6.2407 28.6332C5.36641 29.1881 4.66708 29.9792 4.22363 30.915C3.78017 31.8507 3.61072 32.8929 3.73487 33.921C3.85902 34.949 4.27171 35.9209 4.92517 36.7242L18.8556 53.7889C19.3522 54.4057 19.9889 54.895 20.7127 55.2163C21.4365 55.5375 22.2264 55.6815 23.017 55.6361C24.7079 55.5453 26.2344 54.6408 27.2077 53.1536L56.1446 6.55069C56.1494 6.54296 56.1543 6.53523 56.1594 6.52761C56.4309 6.11073 56.3429 5.28457 55.7824 4.76557C55.6285 4.62305 55.447 4.51355 55.2491 4.44382C55.0513 4.3741 54.8412 4.34561 54.6319 4.36013C54.4226 4.37465 54.2185 4.43186 54.0322 4.52824C53.8458 4.62461 53.6812 4.75812 53.5484 4.92054C53.538 4.93331 53.5273 4.94588 53.5163 4.95827L24.333 37.931C24.2219 38.0565 24.0871 38.1587 23.9362 38.2316C23.7853 38.3045 23.6215 38.3467 23.4542 38.3557C23.2869 38.3648 23.1194 38.3405 22.9616 38.2843C22.8037 38.2281 22.6586 38.1411 22.5347 38.0283L12.8493 29.2145C11.8434 28.2924 10.5287 27.7804 9.16406 27.7794Z" fill="currentColor"/>
</g>
</svg>
