<svg width="27" height="27" viewBox="0 0 27 27" fill="none" xmlns="http://www.w3.org/2000/svg">
<path d="M2.76194 26.7402C2.11227 26.778 1.47334 26.562 0.979889 26.1378C0.00670359 25.1589 0.00670359 23.5777 0.979889 22.5988L22.2895 1.28911C23.3017 0.34196 24.89 0.394612 25.8371 1.40681C26.6936 2.32214 26.7435 3.72902 25.954 4.7027L4.51887 26.1378C4.03178 26.5559 3.4031 26.7715 2.76194 26.7402Z" fill="currentColor"/>
<path d="M24.0471 26.7403C23.3887 26.7375 22.7576 26.4761 22.2901 26.0124L0.980487 4.70267C0.0788808 3.6498 0.201459 2.0653 1.25432 1.16361C2.19403 0.358875 3.57992 0.358875 4.51955 1.16361L25.9547 22.4733C26.9666 23.4207 27.0189 25.0091 26.0715 26.021C26.0339 26.0613 25.9949 26.1002 25.9547 26.1379C25.4298 26.5943 24.7391 26.8124 24.0471 26.7403Z" fill="currentColor"/>
</svg>
