<svg width="30" height="30" viewBox="0 0 30 30" fill="none" xmlns="http://www.w3.org/2000/svg">
<path d="M14.6024 13.7524C12.9093 13.7684 11.2118 13.7424 9.50989 13.6744C8.31719 13.6461 7.12596 13.551 5.94177 13.3897C4.66846 13.1856 3.38243 11.627 2.05721 12.5453C1.90438 12.6531 1.78206 12.7983 1.70172 12.9674C1.62138 13.1364 1.58565 13.3238 1.59789 13.5119C1.61402 13.9245 1.9624 14.2313 2.05569 14.6236C2.14898 15.0158 1.81497 15.4129 1.80222 15.8355C1.79053 16.1056 1.87314 16.3728 2.03593 16.5914C2.19872 16.8101 2.43158 16.9667 2.6947 17.0344C3.03052 17.0872 3.37285 17.0376 3.67683 16.8921C4.16155 16.6778 4.56986 16.3333 5.0643 16.1189C5.55019 15.9145 6.06 15.7701 6.58258 15.6889C7.61162 15.5482 8.6492 15.4699 9.68966 15.4544C11.3243 15.3727 12.9655 15.354 14.5973 15.3451C16.9919 15.3422 19.3869 15.3586 21.7645 15.6229C22.9804 15.7418 24.1612 16.1174 25.2286 16.7246C25.9734 17.1385 27.0745 17.262 27.348 16.2489C27.5375 15.5426 26.8801 14.948 27.25 14.264C27.36 14.0923 27.4542 13.9108 27.5315 13.7218C27.8934 12.5669 26.4867 12.1022 25.6285 12.3353C24.7702 12.5684 24.0394 13.1983 23.1014 13.3546C20.3848 13.6987 17.6403 13.8128 14.8971 13.6956L14.6024 13.7524Z" fill="currentColor"/>
<path d="M13.6959 15.4319C13.7309 17.1222 13.7173 18.8151 13.6552 20.5107C13.6436 21.6982 13.5631 22.883 13.414 24.059C13.2209 25.3241 11.6634 26.5664 12.6087 27.891C12.7183 28.0464 12.865 28.1725 13.0352 28.2575C13.2053 28.3426 13.3935 28.3839 13.5824 28.3776C13.9956 28.3696 14.3028 28.0319 14.6911 27.9475C15.0794 27.8631 15.4836 28.2106 15.9033 28.2266C16.1746 28.2479 16.4432 28.1737 16.6625 28.0169C16.8818 27.8601 17.0378 27.6307 17.1034 27.3685C17.1515 27.0347 17.1003 26.6926 16.9561 26.3846C16.7363 25.8908 16.3907 25.4769 16.1709 24.9832C15.9674 24.4951 15.822 23.9856 15.7377 23.4654C15.5971 22.4272 15.5169 21.3828 15.4975 20.3372C15.4065 18.7035 15.3738 17.0666 15.3701 15.4281C15.3153 13.0327 15.3852 10.6381 15.5794 8.25397C15.6939 7.04266 16.0624 5.87286 16.661 4.82026C17.0676 4.09786 17.1895 2.99711 16.1705 2.69775C15.4441 2.47481 14.8672 3.1287 14.1999 2.77611C14.0266 2.66311 13.8438 2.56568 13.6536 2.485C12.4966 2.09105 12.0402 3.48722 12.2763 4.34961C12.5124 5.212 13.1541 5.95987 13.3129 6.89942C13.6737 9.62088 13.807 12.364 13.7115 15.1004L13.6959 15.4319Z" fill="currentColor"/>
</svg>
