<svg width="28" height="28" viewBox="0 0 28 28" fill="none" xmlns="http://www.w3.org/2000/svg">
<g clip-path="url(#clip0_1308_139)">
<path d="M23.3101 5.4669C21.5792 4.67271 19.7231 4.08755 17.7823 3.75238C17.747 3.74591 17.7117 3.76209 17.6935 3.79439C17.4548 4.21899 17.1904 4.77285 17.0052 5.20821C14.9178 4.89569 12.8412 4.89569 10.7966 5.20821C10.6114 4.76319 10.3374 4.21899 10.0976 3.79439C10.0794 3.76315 10.0441 3.74697 10.0087 3.75238C8.06913 4.08644 6.213 4.67159 4.48098 5.4669C4.46597 5.47337 4.45313 5.48413 4.44459 5.49814C0.923911 10.758 -0.0405948 15.8886 0.432535 20.9555C0.434657 20.9803 0.448607 21.004 0.467861 21.0191C2.79071 22.7249 5.04083 23.7605 7.24911 24.447C7.28443 24.4578 7.32188 24.4449 7.34437 24.4157C7.86672 23.7024 8.33237 22.9502 8.73162 22.1592C8.75517 22.1129 8.73268 22.0579 8.68451 22.0396C7.94591 21.7594 7.24264 21.4178 6.56609 21.0299C6.51257 20.9987 6.50828 20.9221 6.55755 20.8855C6.69992 20.7788 6.84233 20.6678 6.97828 20.5557C7.00289 20.5352 7.03715 20.5309 7.06606 20.5438C11.5105 22.573 16.3222 22.573 20.7142 20.5438C20.7431 20.5298 20.7773 20.5342 20.803 20.5546C20.939 20.6667 21.0814 20.7787 21.2248 20.8854C21.274 20.9221 21.2708 20.9986 21.2173 21.0298C20.5408 21.4253 19.8375 21.7594 19.0978 22.0385C19.0497 22.0568 19.0282 22.1128 19.0518 22.1592C19.4597 22.949 19.9253 23.7012 20.438 24.4146C20.4595 24.4448 20.498 24.4578 20.5333 24.4469C22.7523 23.7605 25.0024 22.7249 27.3253 21.019C27.3456 21.004 27.3585 20.9813 27.3606 20.9565C27.9268 15.0986 26.4121 10.0101 23.3453 5.49914C23.3379 5.48413 23.3251 5.47337 23.3101 5.4669ZM9.39543 17.8703C8.05735 17.8703 6.95478 16.6418 6.95478 15.1331C6.95478 13.6244 8.03592 12.396 9.39543 12.396C10.7655 12.396 11.8575 13.6352 11.836 15.1331C11.836 16.6418 10.7548 17.8703 9.39543 17.8703ZM18.4192 17.8703C17.0812 17.8703 15.9786 16.6418 15.9786 15.1331C15.9786 13.6244 17.0598 12.396 18.4192 12.396C19.7894 12.396 20.8812 13.6352 20.8599 15.1331C20.8599 16.6418 19.7894 17.8703 18.4192 17.8703Z" fill="currentColor"/>
</g>
<defs>
<clipPath id="clip0_1308_139">
<rect width="27.1572" height="27.1572" fill="currentColor" transform="translate(0.320312 0.522461)"/>
</clipPath>
</defs>
</svg>
