<svg width="27" height="27" viewBox="0 0 27 27" fill="none" xmlns="http://www.w3.org/2000/svg">
<g clip-path="url(#clip0_1308_108)">
<path d="M17.6334 22.8027H9.36403C7.97318 22.8027 6.81325 23.8071 6.56941 25.1285H4.97095V26.679H22.0264V25.1285H20.428C20.1841 23.8071 19.0242 22.8027 17.6334 22.8027Z" fill="currentColor"/>
<path d="M15.6915 4.19656C15.4579 3.53589 14.9345 3.0125 14.2738 2.77894C14.2738 1.35884 14.2738 0.413084 14.2738 0.320312H12.7233V2.77894C12.0627 3.0125 11.5393 3.53589 11.3057 4.19656H0.319336V5.74706H3.80796L0.577753 13.4996H2.25746L4.97083 6.98746L7.68421 13.4996H9.36392L6.13371 5.74706H11.3057C11.5393 6.40773 12.0627 6.93113 12.7233 7.16468V18.9263H9.62233V21.2521H17.3748V18.9263H14.2738C14.2738 18.7936 14.2738 12.4173 14.2738 7.16468C14.9345 6.93107 15.4579 6.40773 15.6915 5.74706H20.8635L17.6332 13.4996H19.313L22.0263 6.98746L24.7397 13.4996H26.4194L23.1892 5.74706H26.6778V4.19656H15.6915Z" fill="currentColor"/>
<path d="M9.55734 15.0498H0.384277C1.34238 20.1861 8.6012 20.1825 9.55734 15.0498Z" fill="currentColor"/>
<path d="M22.0262 18.9261C24.327 18.9261 26.2426 17.2469 26.6128 15.0498H17.4397C17.8099 17.2469 19.7255 18.9261 22.0262 18.9261Z" fill="currentColor"/>
</g>
<defs>
<clipPath id="clip0_1308_108">
<rect width="26.3585" height="26.3585" fill="currentColor" transform="translate(0.319336 0.320312)"/>
</clipPath>
</defs>
</svg>
