<svg width="25" height="25" viewBox="0 0 25 25" fill="none" xmlns="http://www.w3.org/2000/svg">
<g clip-path="url(#clip0_1308_166)">
<path d="M24.9995 4.74844C24.0698 5.15625 23.0792 5.42656 22.0464 5.55781C23.1089 4.92344 23.9198 3.92656 24.3011 2.725C23.3104 3.31562 22.2167 3.73281 21.0511 3.96563C20.1104 2.96406 18.7698 2.34375 17.3073 2.34375C14.4698 2.34375 12.1854 4.64688 12.1854 7.47031C12.1854 7.87656 12.2198 8.26719 12.3042 8.63906C8.04326 8.43125 4.27295 6.38906 1.74014 3.27813C1.29795 4.04531 1.03857 4.92344 1.03857 5.86875C1.03857 7.64375 1.95264 9.21719 3.31514 10.1281C2.4917 10.1125 1.68389 9.87344 0.999512 9.49688C0.999512 9.5125 0.999512 9.53281 0.999512 9.55312C0.999512 12.0437 2.77607 14.1125 5.10576 14.5891C4.68857 14.7031 4.23389 14.7578 3.76201 14.7578C3.43389 14.7578 3.10264 14.7391 2.7917 14.6703C3.45576 16.7 5.34014 18.1922 7.58076 18.2406C5.83701 19.6047 3.62295 20.4266 1.22607 20.4266C0.805762 20.4266 0.402637 20.4078 -0.000488281 20.3563C2.26982 21.8203 4.96045 22.6562 7.86201 22.6562C17.2933 22.6562 22.4495 14.8438 22.4495 8.07187C22.4495 7.84531 22.4417 7.62656 22.4308 7.40938C23.4479 6.6875 24.3026 5.78594 24.9995 4.74844Z" fill="currentColor"/>
</g>
<defs>
<clipPath id="clip0_1308_166">
<rect width="25" height="25" fill="currentColor" transform="translate(-0.000488281)"/>
</clipPath>
</defs>
</svg>
