<svg width="53" height="53" viewBox="0 0 53 53" fill="none" xmlns="http://www.w3.org/2000/svg">
<g >
<path d="M46.9292 28.0596V30.218C46.9292 30.8655 46.4975 31.2972 45.85 31.2972H42.6125C41.5333 31.2972 40.4541 30.4338 40.2383 29.3547C40.2383 28.7071 40.4541 28.0596 40.8858 27.628C41.3175 27.1963 41.7491 26.9805 42.3966 26.9805H45.6342C46.4975 26.9805 46.9292 27.4121 46.9292 28.0596Z" fill="currentColor"/>
<path d="M39.5883 25.9013C38.5091 26.9804 38.0774 28.4913 38.5091 30.218C39.1566 32.1605 41.0991 33.4555 43.0416 33.4555H44.9841C46.2791 33.4555 47.1425 34.5347 47.1425 35.6138V36.0455C47.1425 40.578 43.4733 44.2472 38.9408 44.2472H14.1197C9.58717 44.2472 5.91797 40.578 5.91797 36.0455V21.5845C5.91797 18.9945 7.21298 16.6203 9.1555 15.1095C10.6663 14.0303 12.393 13.3828 14.1197 13.3828H38.9408C43.4733 13.3828 47.1425 17.052 47.1425 21.5845V22.4479C47.1425 23.7429 46.2791 24.6062 44.9841 24.6062H42.8258C41.5308 24.6062 40.4516 25.0379 39.5883 25.9013Z" fill="currentColor"/>
</g>
</svg>
