<svg width="152" height="248" viewBox="0 0 152 248" fill="none" xmlns="http://www.w3.org/2000/svg">
<path d="M0.476318 0H151.476V151H0.476318V0Z" fill="#E85B18"/>
<path d="M39.8589 150.119C40.2572 150.166 40.6596 150.166 41.0579 150.119C42.5627 150.124 44.0373 150.545 45.3209 151.336C46.6046 152.127 47.6481 153.257 48.3377 154.604C50.7701 158.52 54.1274 162.504 58.6152 163.936C61.2285 164.695 64.0013 164.695 66.6145 163.936C71.5279 162.331 76.0186 159.63 79.7526 156.036C81.3539 154.434 83.1361 153.027 85.0626 151.844C87.2655 150.717 89.7003 150.126 92.1712 150.119C92.6958 150.159 93.2225 150.159 93.7471 150.119H39.8589Z" fill="#E85B18"/>
<path d="M119.844 225.984C118.548 225.984 117.498 224.709 117.498 223.137C117.498 221.566 118.548 220.291 119.844 220.291C121.141 220.291 122.191 221.566 122.191 223.137C122.191 224.709 121.141 225.984 119.844 225.984Z" fill="#E85B18"/>
<path d="M119.913 238.041C120.119 238.044 120.32 238.103 120.495 238.213C121.117 238.655 121.575 239.292 121.797 240.024C122.352 241.107 122.734 242.271 122.927 243.474C123.167 245.51 121.985 248.287 119.502 247.959C117.412 247.683 116.607 245.32 116.829 243.474C117.037 242.273 117.424 241.109 117.977 240.024C118.405 239.248 118.885 238.023 119.913 238.041Z" fill="#E85B18"/>
<path d="M111.04 150.308H128.512C124.367 150.998 120.376 156.967 120.513 175.165C120.469 182.833 121.273 190.481 122.911 197.97C123.545 200.661 124.898 206.595 121.558 208.182C121 208.442 120.392 208.578 119.776 208.578C119.161 208.578 118.553 208.442 117.995 208.182C114.655 206.577 116.008 200.661 116.642 197.97C118.279 190.481 119.084 182.833 119.04 175.165C119.177 156.967 115.186 150.998 111.04 150.308Z" fill="#E85B18"/>
</svg>
