<svg xmlns="http://www.w3.org/2000/svg" width="563" height="282" fill="none">
  <g fill="#E75A17" clip-path="url(#a)">
    <path d="m556.588 129.723 4.342-1.81c.531-.23.954-.654 1.182-1.186a2.229 2.229 0 0 0-.006-1.672 2.207 2.207 0 0 0-1.188-1.18 2.27 2.27 0 0 0-1.673.004l-4.342 1.811c-.532.23-.955.654-1.183 1.186a2.229 2.229 0 0 0 .007 1.674c.225.534.652.958 1.188 1.179a2.26 2.26 0 0 0 1.673-.006ZM2.91 157.973a2009.414 2009.414 0 0 1 103.198-7.835 1996.173 1996.173 0 0 1 104.416-2.473 2005.308 2005.308 0 0 1 206.629 11.22 1994.716 1994.716 0 0 1 115.574 15.713c2.776.46 3.305-3.88.525-4.341a2013.406 2013.406 0 0 0-103.014-14.337 1979.686 1979.686 0 0 0-103.621-8.958 2004.01 2004.01 0 0 0-103.944-3.573 2022.6 2022.6 0 0 0-103.555 1.785 1994.743 1994.743 0 0 0-116.817 8.469c-2.802.284-2.194 4.615.608 4.33Z"/>
  </g>
  <defs>
    <clipPath id="a">
      <path fill="#E75A17" d="m37.232 0 525.483 124.281-37.232 157.423L0 157.424z"/>
    </clipPath>
  </defs>
</svg>