<svg width="563" height="297" viewBox="0 0 563 297" fill="none" xmlns="http://www.w3.org/2000/svg">
<path d="M510.559 30H0.558594V157H510.559V30Z" fill="#E85B18"/>
<path d="M435.218 266.259C437.121 266.259 438.663 264.603 438.663 262.56C438.663 260.517 437.121 258.86 435.218 258.86C433.316 258.86 431.773 260.517 431.773 262.56C431.773 264.603 433.316 266.259 435.218 266.259Z" fill="#E85B18"/>
<path d="M435.129 281.927C434.83 281.938 434.538 282.01 434.275 282.138C433.368 282.719 432.705 283.556 432.391 284.516C431.562 285.94 430.995 287.474 430.713 289.061C430.36 291.703 432.097 295.323 435.63 294.901C438.574 294.557 439.84 291.465 439.516 289.061C439.231 287.479 438.675 285.946 437.867 284.516C437.337 283.486 436.484 281.9 435.129 281.927Z" fill="#E85B18"/>
<path d="M448.026 152.803H422.559C428.624 153.701 434.335 161.469 434.335 185.143C434.408 195.111 433.233 205.055 430.832 214.788C429.919 218.276 427.888 225.965 432.804 227.999C433.618 228.347 434.508 228.527 435.41 228.527C436.311 228.527 437.201 228.347 438.016 227.999C442.873 225.912 440.96 218.223 439.988 214.788C437.602 205.053 436.427 195.111 436.485 185.143C436.249 161.469 442.137 153.701 448.026 152.803Z" fill="#E85B18"/>
<path d="M197.812 152.856C199.827 152.969 201.812 153.352 203.701 153.992C207.828 155.82 211.38 158.545 214.035 161.919C215.591 163.682 217.473 165.193 219.599 166.384C220.818 167.144 222.267 167.552 223.751 167.552C225.235 167.552 226.683 167.144 227.902 166.384C230.14 164.825 232.053 162.526 234.939 161.892C241.946 160.36 245.685 166.093 247.069 171.378C248.923 178.564 247.069 185.91 245.125 192.885C243.364 197.902 242.48 203.134 242.505 208.395C242.917 213.838 247.628 220.337 254.606 217.563C256.19 216.833 257.554 215.769 258.579 214.462C259.605 213.155 260.262 211.644 260.494 210.059C261.996 201.974 257.55 193.889 256.667 185.91C256.107 180.282 256.667 172.567 264.351 171.246C267.132 170.771 270.003 170.953 272.683 171.774C275.627 172.672 278.571 174.416 281.515 173.095C283.947 171.559 286.009 169.6 287.58 167.335C293.675 160.703 300.682 152.935 311.134 152.935L197.812 152.856Z" fill="#E85B18"/>
<path d="M195.105 153.752H197.814C196.913 153.674 196.006 153.674 195.105 153.752Z" fill="#E85B18"/>
<path d="M66.9432 152.803C67.5758 152.849 68.2096 152.729 68.7686 152.459H38.7969C39.357 152.726 39.9899 152.846 40.6223 152.803C50.6619 152.803 50.4853 168.841 50.1908 184.509C50.018 192.369 48.4579 200.154 45.5685 207.575C44.5898 209.7 43.8021 211.891 43.2131 214.128C41.9766 220.152 46.805 227.735 53.7827 227.735C60.7604 227.735 65.5594 220.152 64.3523 214.128C63.7768 211.888 62.9888 209.695 61.997 207.575C59.0942 200.131 57.5434 192.316 57.4041 184.43C57.0802 168.841 56.933 152.803 66.9432 152.803Z" fill="#E85B18"/>
<path d="M525.541 82.7043C521.017 78.0893 516.596 73.351 512.279 68.4894C509.201 65.1335 506.31 61.6051 503.62 57.9207C500.811 53.8781 501.695 46.2158 495.662 45.0004C494.962 44.8652 494.238 44.9131 493.561 45.1395C492.883 45.366 492.273 45.7636 491.788 46.2951C490.696 47.4312 490.774 49.2015 489.941 50.4962C489.109 51.7908 487.133 51.9229 485.937 53.0062C485.163 53.6887 484.647 54.6231 484.476 55.6496C484.305 56.6762 484.491 57.7311 485.001 58.634C485.744 59.6975 486.787 60.508 487.991 60.9592C489.863 61.7254 491.892 61.9368 493.79 62.7294C495.638 63.5252 497.384 64.5455 498.991 65.768C502.101 68.2265 505.062 70.8735 507.858 73.6945C512.409 77.9749 516.804 82.4401 521.147 86.9054C527.492 93.4845 533.785 100.116 539.35 107.356C542.24 111.015 544.332 115.257 545.487 119.801C546.319 122.945 548.893 126.3 552.404 124.372C554.848 123.024 554.744 119.642 557.605 118.849C558.368 118.698 559.116 118.477 559.841 118.189C563.976 116.128 561.531 111.029 558.619 109.285C555.706 107.541 552.04 107.197 549.127 105.031C540.991 98.4685 533.415 91.2209 526.478 83.3649L525.541 82.7043Z" fill="#EBE8E0"/>
<path d="M404.086 35.2287C399.336 39.5971 394.456 43.8334 389.446 47.9376C386.017 50.9032 382.423 53.6645 378.68 56.2076C374.571 58.8498 367.082 57.5287 365.678 63.5793C365.51 64.2858 365.519 65.024 365.706 65.7259C365.892 66.4277 366.249 67.0706 366.744 67.5954C367.81 68.758 369.553 68.7844 370.775 69.6828C371.997 70.5811 372.023 72.6155 373.037 73.8574C373.661 74.6875 374.552 75.2691 375.555 75.5008C376.557 75.7325 377.608 75.5998 378.524 75.1256C379.601 74.4205 380.451 73.41 380.968 72.2192C381.827 70.3433 382.139 68.3088 382.997 66.4328C383.88 64.6178 384.971 62.915 386.247 61.3599C388.864 58.3358 391.651 55.4686 394.595 52.7728C399.041 48.3867 403.644 44.1593 408.325 40.011C415.043 33.8053 422.074 27.9582 429.388 22.4934C433.145 19.7624 437.424 17.8631 441.949 16.9184C445.043 16.2578 448.502 13.827 446.785 10.1544C445.589 7.51222 442.261 7.51218 441.584 4.71147C441.47 3.93019 441.288 3.16089 441.038 2.41278C439.244 -1.89397 434.095 0.325441 432.223 3.179C430.351 6.03255 429.831 9.75807 427.542 12.5852C420.663 20.4903 413.148 27.7992 405.074 34.436L404.086 35.2287Z" fill="#EBE8E0"/>
</svg>
