<svg width="434" height="297" viewBox="0 0 434 297" fill="none" xmlns="http://www.w3.org/2000/svg">
<path d="M383.324 26.791H0.324219V154.459H383.324V26.791Z" fill="#E85B18"/>
<path d="M352.89 266.259C354.792 266.259 356.335 264.603 356.335 262.56C356.335 260.517 354.792 258.86 352.89 258.86C350.988 258.86 349.445 260.517 349.445 262.56C349.445 264.603 350.988 266.259 352.89 266.259Z" fill="#E85B18"/>
<path d="M352.801 281.927C352.502 281.938 352.21 282.01 351.947 282.138C351.04 282.719 350.377 283.556 350.063 284.516C349.233 285.94 348.667 287.474 348.385 289.061C348.032 291.703 349.769 295.323 353.302 294.901C356.246 294.557 357.512 291.465 357.188 289.061C356.903 287.479 356.347 285.946 355.539 284.516C355.009 283.486 354.155 281.9 352.801 281.927Z" fill="#E85B18"/>
<path d="M365.698 152.803H340.23C346.295 153.701 352.007 161.469 352.007 185.143C352.08 195.111 350.904 205.055 348.504 214.788C347.591 218.276 345.559 225.965 350.476 227.999C351.29 228.347 352.18 228.527 353.082 228.527C353.983 228.527 354.873 228.347 355.687 227.999C360.545 225.912 358.632 218.223 357.66 214.788C355.274 205.053 354.099 195.111 354.156 185.143C353.921 161.469 359.809 153.701 365.698 152.803Z" fill="#E85B18"/>
<path d="M192.578 152.856C194.593 152.969 196.578 153.352 198.466 153.992C202.593 155.82 206.146 158.545 208.801 161.919C210.357 163.682 212.239 165.193 214.365 166.384C215.584 167.144 217.032 167.552 218.516 167.552C220 167.552 221.449 167.144 222.668 166.384C224.905 164.825 226.819 162.526 229.704 161.892C236.711 160.36 240.45 166.093 241.834 171.378C243.689 178.564 241.834 185.91 239.891 192.885C238.13 197.902 237.246 203.134 237.271 208.395C237.683 213.838 242.394 220.337 249.371 217.563C250.956 216.833 252.319 215.769 253.345 214.462C254.371 213.155 255.028 211.644 255.26 210.059C256.761 201.974 252.315 193.889 251.432 185.91C250.873 180.282 251.432 172.567 259.117 171.246C261.898 170.771 264.769 170.953 267.449 171.774C270.393 172.672 273.337 174.416 276.281 173.095C278.712 171.559 280.775 169.6 282.346 167.335C288.441 160.703 295.448 152.935 305.899 152.935L192.578 152.856Z" fill="#E85B18"/>
<path d="M189.871 153.752H192.58C191.679 153.674 190.772 153.674 189.871 153.752Z" fill="#E85B18"/>
<path d="M384.2 82.7043C379.675 78.0893 375.254 73.351 370.937 68.4894C367.859 65.1335 364.968 61.6051 362.278 57.9207C359.47 53.8781 360.354 46.2158 354.321 45.0004C353.62 44.8652 352.897 44.9131 352.219 45.1395C351.541 45.366 350.931 45.7636 350.446 46.2951C349.354 47.4312 349.432 49.2015 348.6 50.4962C347.768 51.7908 345.791 51.9229 344.595 53.0062C343.821 53.6887 343.305 54.6231 343.134 55.6496C342.963 56.6762 343.149 57.7311 343.659 58.634C344.402 59.6975 345.445 60.508 346.649 60.9592C348.522 61.7254 350.55 61.9368 352.448 62.7294C354.296 63.5252 356.043 64.5455 357.649 65.768C360.759 68.2265 363.72 70.8735 366.517 73.6945C371.067 77.9749 375.462 82.4401 379.805 86.9054C386.15 93.4845 392.443 100.116 398.008 107.356C400.898 111.015 402.99 115.257 404.145 119.801C404.977 122.945 407.551 126.3 411.062 124.372C413.506 123.024 413.402 119.642 416.263 118.849C417.026 118.698 417.775 118.477 418.499 118.189C422.634 116.128 420.189 111.029 417.277 109.285C414.365 107.541 410.698 107.197 407.785 105.031C399.65 98.4685 392.073 91.2209 385.136 83.3649L384.2 82.7043Z" fill="#EBE8E0"/>
<path d="M262.744 35.2287C257.994 39.5971 253.114 43.8334 248.104 47.9376C244.676 50.9032 241.081 53.6645 237.338 56.2076C233.23 58.8498 225.74 57.5287 224.336 63.5793C224.168 64.2858 224.178 65.024 224.364 65.7259C224.55 66.4277 224.907 67.0706 225.402 67.5954C226.469 68.758 228.211 68.7844 229.433 69.6828C230.655 70.5811 230.681 72.6155 231.695 73.8574C232.32 74.6875 233.21 75.2691 234.213 75.5008C235.215 75.7325 236.266 75.5998 237.182 75.1256C238.259 74.4205 239.109 73.41 239.627 72.2192C240.485 70.3433 240.797 68.3088 241.655 66.4328C242.538 64.6178 243.629 62.915 244.906 61.3599C247.522 58.3358 250.309 55.4686 253.253 52.7728C257.7 48.3867 262.302 44.1593 266.983 40.011C273.701 33.8053 280.732 27.9582 288.047 22.4934C291.803 19.7624 296.082 17.8631 300.607 16.9184C303.701 16.2578 307.16 13.827 305.444 10.1544C304.247 7.51222 300.919 7.51218 300.243 4.71147C300.129 3.93019 299.946 3.16089 299.697 2.41278C297.902 -1.89397 292.753 0.325441 290.881 3.179C289.009 6.03255 288.489 9.75807 286.2 12.5852C279.322 20.4903 271.806 27.7992 263.733 34.436L262.744 35.2287Z" fill="#EBE8E0"/>
<path d="M61.7108 152.803C62.3434 152.849 62.9772 152.729 63.5362 152.459H33.5645C34.1245 152.726 34.7574 152.846 35.3899 152.803C45.4295 152.803 45.2528 168.841 44.9584 184.509C44.7856 192.369 43.2255 200.154 40.3361 207.575C39.3574 209.7 38.5697 211.891 37.9807 214.128C36.7442 220.152 41.5726 227.735 48.5503 227.735C55.528 227.735 60.327 220.152 59.1199 214.128C58.5444 211.888 57.7564 209.695 56.7646 207.575C53.8618 200.131 52.311 192.316 52.1716 184.43C51.8478 168.841 51.7006 152.803 61.7108 152.803Z" fill="#E85B18"/>
</svg>
