<svg width="257" height="153" viewBox="0 0 257 153" fill="none" xmlns="http://www.w3.org/2000/svg">
<path d="M227.793 22H0.792969V98H227.793V22Z" fill="#E85B18"/>
<path d="M226.793 98H208.793C213.08 98.6525 217.117 104.295 217.117 121.489C217.168 128.729 216.337 135.952 214.64 143.021C213.995 145.554 212.559 151.139 216.035 152.617C216.61 152.869 217.239 153 217.876 153C218.513 153 219.142 152.869 219.718 152.617C223.151 151.101 221.799 145.516 221.112 143.021C219.426 135.951 218.595 128.729 218.636 121.489C218.469 104.295 222.631 98.6525 226.793 98Z" fill="#E85B18"/>
<path d="M101.793 98C103.251 98.0829 104.687 98.3641 106.054 98.8343C109.04 100.177 111.61 102.177 113.532 104.655C114.658 105.95 116.02 107.059 117.558 107.933C118.44 108.492 119.488 108.791 120.562 108.791C121.636 108.791 122.684 108.492 123.566 107.933C125.185 106.789 126.57 105.101 128.658 104.635C133.728 103.51 136.434 107.72 137.435 111.6C138.777 116.877 137.435 122.271 136.029 127.393C134.754 131.077 134.115 134.919 134.133 138.781C134.431 142.778 137.84 147.551 142.889 145.514C144.035 144.978 145.022 144.196 145.764 143.237C146.506 142.277 146.982 141.168 147.15 140.004C148.236 134.067 145.019 128.13 144.38 122.271C143.975 118.139 144.38 112.473 149.941 111.503C151.953 111.155 154.031 111.288 155.97 111.891C158.1 112.551 160.23 113.831 162.361 112.861C164.12 111.733 165.612 110.295 166.75 108.632C171.16 103.762 176.23 98.0582 183.793 98.0582L101.793 98Z" fill="#E85B18"/>
<path d="M190.34 149.752H193.048C192.148 149.674 191.241 149.674 190.34 149.752Z" fill="#E85B18"/>
<path d="M228.112 55.7459C224.556 52.1122 221.082 48.3815 217.69 44.5536C215.271 41.9113 212.999 39.1331 210.885 36.2321C208.678 33.0492 209.373 27.0161 204.632 26.0592C204.081 25.9527 203.513 25.9904 202.981 26.1687C202.448 26.347 201.969 26.66 201.587 27.0785C200.729 27.9731 200.79 29.3669 200.137 30.3863C199.483 31.4057 197.93 31.5097 196.99 32.3627C196.382 32.9 195.976 33.6357 195.842 34.444C195.707 35.2522 195.853 36.0829 196.254 36.7938C196.838 37.6312 197.657 38.2693 198.604 38.6245C200.075 39.2278 201.669 39.3943 203.161 40.0184C204.613 40.645 205.985 41.4483 207.248 42.4108C209.692 44.3466 212.019 46.4307 214.216 48.6519C217.792 52.0221 221.246 55.5379 224.658 59.0537C229.644 64.2338 234.589 69.4555 238.962 75.1557C241.234 78.0371 242.878 81.3771 243.785 84.9543C244.439 87.4299 246.462 90.072 249.221 88.5533C251.142 87.4923 251.06 84.8295 253.308 84.2053C253.908 84.0858 254.496 83.9118 255.065 83.6853C258.314 82.0626 256.393 78.0475 254.105 76.6744C251.816 75.3014 248.935 75.0309 246.646 73.325C240.253 68.1581 234.299 62.4516 228.847 56.266L228.112 55.7459Z" fill="#EBE8E0"/>
<path d="M149.98 27.9548C146.258 31.4213 142.435 34.7829 138.509 38.0396C135.823 40.3929 133.006 42.5841 130.074 44.6021C126.855 46.6987 120.987 45.6504 119.886 50.4517C119.755 51.0124 119.762 51.5982 119.908 52.1551C120.054 52.712 120.334 53.2221 120.722 53.6386C121.557 54.5611 122.922 54.5821 123.88 55.295C124.838 56.0078 124.858 57.6222 125.653 58.6076C126.142 59.2664 126.84 59.7278 127.625 59.9117C128.411 60.0956 129.234 59.9903 129.952 59.614C130.795 59.0545 131.461 58.2526 131.867 57.3077C132.539 55.8191 132.784 54.2047 133.456 52.7161C134.148 51.2758 135.003 49.9246 136.003 48.6905C138.053 46.2908 140.237 44.0157 142.543 41.8765C146.027 38.3961 149.634 35.0414 153.301 31.7497C158.565 26.8253 164.073 22.1855 169.805 17.849C172.748 15.6819 176.101 14.1748 179.646 13.4251C182.07 12.901 184.78 10.9721 183.435 8.05776C182.498 5.96113 179.89 5.9611 179.361 3.73867C179.271 3.1187 179.128 2.50824 178.933 1.9146C177.527 -1.50292 173.493 0.258245 172.026 2.52261C170.559 4.78698 170.151 7.74326 168.358 9.98666C162.968 16.2596 157.08 22.0594 150.754 27.3258L149.98 27.9548Z" fill="#EBE8E0"/>
<path d="M53.4531 98.251C53.9174 98.2842 54.3827 98.1971 54.793 98H32.793C33.2041 98.1951 33.6687 98.2821 34.1329 98.251C41.5022 98.251 41.3725 109.969 41.1564 121.417C41.0296 127.16 39.8844 132.848 37.7635 138.27C37.0451 139.822 36.467 141.423 36.0346 143.058C35.127 147.459 38.6712 153 43.793 153C48.9148 153 52.4374 147.459 51.5513 143.058C51.1289 141.421 50.5505 139.819 49.8224 138.27C47.6917 132.831 46.5534 127.121 46.4511 121.359C46.2134 109.969 46.1053 98.251 53.4531 98.251Z" fill="#E85B18"/>
</svg>
