<svg width="375" height="211" viewBox="0 0 375 211" fill="none" xmlns="http://www.w3.org/2000/svg">
<path d="M18.5174 95.8428C-4.12312 95.8428 -14.3903 83.0088 -14.3903 56.2878V39.5706C-14.3903 12.9154 -3.85986 0.0813865 18.5174 0.0813865C39.9732 0.0813865 51.1618 10.7435 51.3593 36.4115L28.5871 39.6365C28.5871 23.7091 25.4938 18.8388 18.9781 18.8388C12.7914 18.8388 9.76393 23.7749 9.76393 33.9105V61.8163C9.76393 72.0176 12.7914 76.9538 18.9781 76.9538C24.9015 76.9538 28.3897 71.6886 28.5871 54.5107L51.7542 59.2495C51.2935 85.2465 39.3151 95.8428 18.5174 95.8428ZM88.3502 95.8428C65.249 95.8428 54.1262 84.1277 54.1262 56.8143V40.0972C54.1262 12.1256 65.249 0.0813865 88.3502 0.0813865C111.386 0.0813865 122.574 12.1256 122.574 40.0972V56.8143C122.574 84.1277 111.386 95.8428 88.3502 95.8428ZM88.3502 76.9538C95.1292 76.9538 98.4199 72.1493 98.4199 62.277V34.5687C98.4199 24.0382 95.1292 18.9704 88.3502 18.9704C81.5712 18.9704 78.2804 24.0382 78.2804 34.5687V62.277C78.2804 72.1493 81.5712 76.9538 88.3502 76.9538ZM126.723 94V1.8584H156.406L164.765 26.5392C167.331 37.0038 169.372 46.218 171.083 59.3153H172.399C174.242 46.218 176.282 36.8722 178.717 26.5392L186.681 1.8584H216.495V94H193.328L193.46 59.4469C193.46 53.1944 193.658 46.4154 194.25 38.0569L192.934 37.8594L179.77 94H163.185L150.219 37.8594L148.837 38.0569C149.43 46.3496 149.693 53.1944 149.693 59.4469V94H126.723ZM222.092 1.8584H245.983V94H222.092V1.8584ZM251.646 94V1.8584H278.038L292.715 39.8339C294.755 45.0333 296.532 50.496 298.573 58.1964L299.889 57.999C299.033 47.8634 298.441 39.3732 298.441 31.9361V1.8584H321.608V94H295.15L281.131 58.1306C278.499 50.8251 276.853 45.7573 274.682 36.7406L273.299 37.0038C274.155 46.2838 274.813 57.275 274.813 66.0284V94H251.646ZM351.359 95.1189C334.313 95.1189 325.823 82.4165 325.823 56.2878V39.5706C325.823 12.9154 336.551 0.0813865 359.652 0.0813865C380.779 0.0813865 391.441 9.62462 391.967 30.9488L369.261 34.108C369.063 22.0637 365.773 18.8388 360.047 18.8388C353.268 18.8388 349.977 24.0382 349.977 34.8977V59.776C349.977 70.8988 353.136 76.2957 359.718 76.2957C365.444 76.2957 368.932 72.61 369.985 58.6571H358.467V41.216H392.56V94H372.42C372.025 89.9853 373.012 84.4568 375.711 76.6247L374.197 76.0982C369.129 88.9322 363.469 95.1189 351.359 95.1189ZM78.9728 210.777C57.846 210.777 46.3942 200.839 46.7891 180.436L68.8372 177.935C69.2979 188.795 71.7989 192.941 80.0917 192.941C84.8962 192.941 87.7263 190.308 87.7263 186.689C87.7263 182.016 84.7646 178.133 75.6162 173.262L66.5337 168.326C57.4512 163.456 47.3156 156.874 47.4472 141.408C47.5788 124.032 58.2409 115.081 77.8539 115.081C98.7174 115.081 109.314 124.625 108.853 144.238L88.187 146.41C88.0553 136.735 84.5671 132.852 77.5249 132.852C72.7861 132.852 70.1535 135.155 70.1535 138.314C70.1535 141.737 72.3254 145.422 82.1319 150.227L91.4777 154.966C100.692 159.638 111.222 165.562 111.222 182.411C111.222 200.444 99.5072 210.777 78.9728 210.777ZM147.753 210.843C124.651 210.843 113.529 199.128 113.529 171.814V155.097C113.529 127.126 124.651 115.081 147.753 115.081C170.788 115.081 181.977 127.126 181.977 155.097V171.814C181.977 199.128 170.788 210.843 147.753 210.843ZM147.753 191.954C154.532 191.954 157.822 187.149 157.822 177.277V149.569C157.822 139.038 154.532 133.97 147.753 133.97C140.974 133.97 137.683 139.038 137.683 149.569V177.277C137.683 187.149 140.974 191.954 147.753 191.954ZM218.902 210.843C195.8 210.843 184.678 199.128 184.678 171.814V155.097C184.678 127.126 195.8 115.081 218.902 115.081C241.937 115.081 253.126 127.126 253.126 155.097V171.814C253.126 199.128 241.937 210.843 218.902 210.843ZM218.902 191.954C225.681 191.954 228.971 187.149 228.971 177.277V149.569C228.971 139.038 225.681 133.97 218.902 133.97C212.123 133.97 208.832 139.038 208.832 149.569V177.277C208.832 187.149 212.123 191.954 218.902 191.954ZM257.275 209V116.858H283.667L298.343 154.834C300.384 160.033 302.161 165.496 304.201 173.196L305.517 172.999C304.662 162.863 304.069 154.373 304.069 146.936V116.858H327.236V209H300.779L286.76 173.131C284.127 165.825 282.482 160.757 280.31 151.741L278.928 152.004C279.784 161.284 280.442 172.275 280.442 181.028V209H257.275Z" fill="#EBE8E0"/>
</svg>
