<svg width="1920" height="598" viewBox="0 0 1920 598" fill="none" xmlns="http://www.w3.org/2000/svg">
<path d="M69.8375 316.191C6.88386 316.191 -21.6649 280.505 -21.6649 206.205V159.721C-21.6649 85.6045 7.61588 49.9185 69.8375 49.9185C129.497 49.9185 160.608 79.5653 161.157 150.937L97.8373 159.904C97.8373 115.617 89.236 102.075 71.1186 102.075C53.9161 102.075 45.4979 115.8 45.4979 143.983V221.577C45.4979 249.943 53.9161 263.668 71.1186 263.668C87.589 263.668 97.2882 249.028 97.8373 201.264L162.255 214.44C160.974 286.727 127.667 316.191 69.8375 316.191ZM264.013 316.191C199.778 316.191 168.85 283.616 168.85 207.669V161.185C168.85 83.4084 199.778 49.9185 264.013 49.9185C328.065 49.9185 359.175 83.4084 359.175 161.185V207.669C359.175 283.616 328.065 316.191 264.013 316.191ZM264.013 263.668C282.862 263.668 292.013 250.309 292.013 222.858V145.813C292.013 116.532 282.862 102.441 264.013 102.441C245.163 102.441 236.013 116.532 236.013 145.813V222.858C236.013 250.309 245.163 263.668 264.013 263.668ZM370.712 311.066V54.8596H453.247L476.489 123.486C483.626 152.584 489.299 178.205 494.057 214.623H497.717C502.842 178.205 508.515 152.218 515.286 123.486L537.43 54.8596H620.331V311.066H555.913L556.279 214.989C556.279 197.603 556.828 178.754 558.475 155.512L554.815 154.963L518.214 311.066H472.097L436.045 154.963L432.202 155.512C433.849 178.571 434.581 197.603 434.581 214.989V311.066H370.712ZM635.893 54.8596H702.324V311.066H635.893V54.8596ZM718.07 311.066V54.8596H791.455L832.265 160.453C837.938 174.911 842.879 190.1 848.552 211.512L852.212 210.963C849.833 182.78 848.186 159.172 848.186 138.493V54.8596H912.604V311.066H839.036L800.056 211.329C792.736 191.015 788.161 176.924 782.122 151.852L778.278 152.584C780.658 178.388 782.488 208.95 782.488 233.289V311.066H718.07ZM995.33 314.177C947.931 314.177 924.324 278.858 924.324 206.205V159.721C924.324 85.6045 954.153 49.9185 1018.39 49.9185C1077.13 49.9185 1106.78 76.4542 1108.24 135.748L1045.11 144.532C1044.56 111.042 1035.41 102.075 1019.49 102.075C1000.64 102.075 991.486 116.532 991.486 146.728V215.904C991.486 246.832 1000.27 261.838 1018.57 261.838C1034.49 261.838 1044.19 251.59 1047.12 212.793H1015.09V164.297H1109.89V311.066H1053.89C1052.79 299.903 1055.54 284.531 1063.04 262.753L1058.83 261.289C1044.74 296.975 1029 314.177 995.33 314.177ZM1248.26 316.008C1189.51 316.008 1157.67 288.374 1158.77 231.642L1220.07 224.688C1221.36 254.884 1228.31 266.413 1251.37 266.413C1264.73 266.413 1272.6 259.093 1272.6 249.028C1272.6 236.034 1264.36 225.237 1238.92 211.695L1213.67 197.969C1188.41 184.427 1160.23 166.127 1160.6 123.12C1160.96 74.8072 1190.61 49.9185 1245.15 49.9185C1303.16 49.9185 1332.62 76.4542 1331.34 130.99L1273.88 137.029C1273.51 110.127 1263.81 99.3298 1244.23 99.3298C1231.05 99.3298 1223.73 105.735 1223.73 114.519C1223.73 124.035 1229.77 134.284 1257.04 147.643L1283.03 160.819C1308.65 173.813 1337.93 190.283 1337.93 237.132C1337.93 287.276 1305.35 316.008 1248.26 316.008ZM1439.5 316.191C1375.27 316.191 1344.34 283.616 1344.34 207.669V161.185C1344.34 83.4084 1375.27 49.9185 1439.5 49.9185C1503.56 49.9185 1534.67 83.4084 1534.67 161.185V207.669C1534.67 283.616 1503.56 316.191 1439.5 316.191ZM1439.5 263.668C1458.35 263.668 1467.5 250.309 1467.5 222.858V145.813C1467.5 116.532 1458.35 102.441 1439.5 102.441C1420.65 102.441 1411.5 116.532 1411.5 145.813V222.858C1411.5 250.309 1420.65 263.668 1439.5 263.668ZM1637.34 316.191C1573.11 316.191 1542.18 283.616 1542.18 207.669V161.185C1542.18 83.4084 1573.11 49.9185 1637.34 49.9185C1701.39 49.9185 1732.5 83.4084 1732.5 161.185V207.669C1732.5 283.616 1701.39 316.191 1637.34 316.191ZM1637.34 263.668C1656.19 263.668 1665.34 250.309 1665.34 222.858V145.813C1665.34 116.532 1656.19 102.441 1637.34 102.441C1618.49 102.441 1609.34 116.532 1609.34 145.813V222.858C1609.34 250.309 1618.49 263.668 1637.34 263.668ZM1744.04 311.066V54.8596H1817.42L1858.23 160.453C1863.91 174.911 1868.85 190.1 1874.52 211.512L1878.18 210.963C1875.8 182.78 1874.16 159.172 1874.16 138.493V54.8596H1938.57V311.066H1865.01L1826.02 211.329C1818.7 191.015 1814.13 176.924 1808.09 151.852L1804.25 152.584C1806.63 178.388 1808.46 208.95 1808.46 233.289V311.066H1744.04Z" fill="#EBE8E0"/>
<path d="M324.894 303.469C322.925 303.653 320.989 304.098 319.136 304.792C314.947 306.886 311.346 309.99 308.657 313.823C307.027 315.813 305.082 317.522 302.899 318.885C301.659 319.726 300.195 320.175 298.696 320.175C297.198 320.175 295.733 319.726 294.493 318.885C292.19 317.102 290.232 314.513 287.296 313.823C280.214 312.097 276.414 318.54 275.032 324.522C273.72 332.654 274.392 340.981 276.989 348.798C278.728 354.386 279.621 360.203 279.638 366.055C279.235 372.153 274.456 379.516 267.374 376.409C265.803 375.568 264.459 374.36 263.456 372.887C262.454 371.415 261.823 369.722 261.616 367.953C260.062 358.807 264.725 349.661 265.531 340.629C266.107 334.302 265.531 325.558 257.701 324.062C254.873 323.522 251.953 323.741 249.237 324.695C246.416 325.673 243.479 327.571 240.197 326.133C236.915 324.695 235.821 321.761 234.094 319.69C227.876 312.155 220.794 303.354 210.142 303.354L324.894 303.469Z" fill="#EBE8E0"/>
<path d="M1640.12 540.186C1644.48 540.186 1648.01 535.928 1648.01 530.676C1648.01 525.424 1644.48 521.167 1640.12 521.167C1635.77 521.167 1632.24 525.424 1632.24 530.676C1632.24 535.928 1635.77 540.186 1640.12 540.186Z" fill="#EBE8E0"/>
<path d="M1639.84 564.418C1639.17 564.46 1638.52 564.653 1637.94 564.982C1635.62 566.109 1634.63 568.856 1633.57 571.04C1631.71 574.693 1630.43 578.615 1629.77 582.663C1629 589.707 1632.94 598.653 1641.04 597.597C1648.08 596.681 1650.69 588.791 1649.98 582.663C1649.33 578.603 1648.02 574.677 1646.11 571.04C1644.91 568.433 1643.01 564.348 1639.84 564.418Z" fill="#EBE8E0"/>
<path d="M1669.56 310.473H1611.32C1625.41 312.797 1638.5 332.592 1638.01 393.031C1638.16 418.493 1635.47 443.893 1629.98 468.757C1627.87 477.703 1623.36 497.357 1634.56 502.64C1636.41 503.51 1638.43 503.967 1640.48 503.978C1642.54 503.977 1644.59 503.52 1646.46 502.64C1657.59 497.357 1653.08 477.703 1650.97 468.757C1645.52 443.887 1642.82 418.492 1642.94 393.031C1642.38 332.592 1655.69 312.797 1669.56 310.473Z" fill="#EBE8E0"/>
</svg>
