<svg width="768" height="111" viewBox="0 0 768 111" fill="none" xmlns="http://www.w3.org/2000/svg">
<path d="M16.1319 110.116C-9.86798 110.116 -21.6586 95.378 -21.6586 64.6921V45.4945C-21.6586 14.8841 -9.56565 0.14584 16.1319 0.14584C40.7713 0.14584 53.6201 12.39 53.8468 41.8666L27.6958 45.5701C27.6958 27.2794 24.1435 21.6864 16.661 21.6864C9.55635 21.6864 6.07962 27.355 6.07962 38.9945V71.0409C6.07962 82.7559 9.55635 88.4245 16.661 88.4245C23.4633 88.4245 27.4691 82.378 27.6958 62.6514L54.3003 68.0932C53.7713 97.9477 40.0155 110.116 16.1319 110.116ZM96.3264 110.116C69.7975 110.116 57.0243 96.6628 57.0243 65.2967V46.0991C57.0243 13.9772 69.7975 0.14584 96.3264 0.14584C122.78 0.14584 135.629 13.9772 135.629 46.0991V65.2967C135.629 96.6628 122.78 110.116 96.3264 110.116ZM96.3264 88.4245C104.111 88.4245 107.89 82.9071 107.89 71.5699V39.7503C107.89 27.6573 104.111 21.8376 96.3264 21.8376C88.5416 21.8376 84.7625 27.6573 84.7625 39.7503V71.5699C84.7625 82.9071 88.5416 88.4245 96.3264 88.4245ZM140.393 108V2.18653H174.48L184.079 30.5294C187.027 42.5468 189.37 53.1282 191.335 68.1688H192.846C194.963 53.1282 197.306 42.3956 200.102 30.5294L209.248 2.18653H243.486V108H216.881L217.032 68.3199C217.032 61.1397 217.259 53.3549 217.939 43.7561L216.428 43.5294L201.312 108H182.265L167.376 43.5294L165.788 43.7561C166.469 53.2793 166.771 61.1397 166.771 68.3199V108H140.393ZM249.913 2.18653H277.349V108H249.913V2.18653ZM283.852 108V2.18653H314.16L331.015 45.7968C333.358 51.7677 335.398 58.0409 337.741 66.8839L339.253 66.6572C338.27 55.0177 337.59 45.2677 337.59 36.7271V2.18653H364.195V108H333.811L317.712 66.8083C314.689 58.4188 312.8 52.5991 310.305 42.2445L308.718 42.5468C309.701 53.2037 310.457 65.8258 310.457 75.8781V108H283.852ZM398.36 109.285C378.785 109.285 369.035 94.6977 369.035 64.6921V45.4945C369.035 14.8841 381.355 0.14584 407.884 0.14584C432.145 0.14584 444.389 11.1051 444.994 35.5934L418.918 39.2212C418.692 25.3899 414.913 21.6864 408.337 21.6864C400.552 21.6864 396.773 27.6573 396.773 40.1282V68.6979C396.773 81.4711 400.401 87.6687 407.959 87.6687C414.535 87.6687 418.541 83.4362 419.75 67.413H406.523V47.384H445.674V108H422.546C422.093 103.39 423.227 97.0407 426.325 88.0466L424.587 87.442C418.767 102.18 412.267 109.285 398.36 109.285ZM502.819 110.041C478.558 110.041 465.407 98.6279 465.86 75.1978L491.18 72.3257C491.709 84.7966 494.581 89.5582 504.104 89.5582C509.622 89.5582 512.872 86.535 512.872 82.378C512.872 77.0118 509.471 72.5525 498.965 66.9595L488.535 61.2909C478.104 55.6979 466.465 48.1398 466.616 30.3783C466.767 10.4249 479.011 0.14584 501.535 0.14584C525.494 0.14584 537.662 11.1051 537.133 33.6282L513.401 36.1224C513.25 25.012 509.244 20.5527 501.157 20.5527C495.715 20.5527 492.692 23.1981 492.692 26.826C492.692 30.7562 495.186 34.9887 506.447 40.5061L517.18 45.948C527.761 51.3142 539.854 58.1165 539.854 77.4653C539.854 98.1745 526.401 110.041 502.819 110.041ZM581.805 110.116C555.276 110.116 542.503 96.6628 542.503 65.2967V46.0991C542.503 13.9772 555.276 0.14584 581.805 0.14584C608.258 0.14584 621.107 13.9772 621.107 46.0991V65.2967C621.107 96.6628 608.258 110.116 581.805 110.116ZM581.805 88.4245C589.59 88.4245 593.369 82.9071 593.369 71.5699V39.7503C593.369 27.6573 589.59 21.8376 581.805 21.8376C574.02 21.8376 570.241 27.6573 570.241 39.7503V71.5699C570.241 82.9071 574.02 88.4245 581.805 88.4245ZM663.511 110.116C636.982 110.116 624.209 96.6628 624.209 65.2967V46.0991C624.209 13.9772 636.982 0.14584 663.511 0.14584C689.964 0.14584 702.813 13.9772 702.813 46.0991V65.2967C702.813 96.6628 689.964 110.116 663.511 110.116ZM663.511 88.4245C671.296 88.4245 675.075 82.9071 675.075 71.5699V39.7503C675.075 27.6573 671.296 21.8376 663.511 21.8376C655.726 21.8376 651.947 27.6573 651.947 39.7503V71.5699C651.947 82.9071 655.726 88.4245 663.511 88.4245ZM707.578 108V2.18653H737.886L754.74 45.7968C757.083 51.7677 759.124 58.0409 761.467 66.8839L762.978 66.6572C761.996 55.0177 761.316 45.2677 761.316 36.7271V2.18653H787.92V108H757.537L741.438 66.8083C738.415 58.4188 736.525 52.5991 734.031 42.2445L732.444 42.5468C733.426 53.2037 734.182 65.8258 734.182 75.8781V108H707.578Z" fill="#EBE8E0"/>
</svg>
