<svg width="1998" height="426" viewBox="0 0 1998 426" fill="none" xmlns="http://www.w3.org/2000/svg">
<path d="M70.884 225.652C26.0223 225.652 5.67801 200.221 5.67801 147.274V114.149C5.67801 61.3324 26.5439 35.9021 70.884 35.9021C113.398 35.9021 135.568 57.0288 135.96 107.89L90.837 114.28C90.837 82.72 84.7077 73.0695 71.7969 73.0695C59.5382 73.0695 53.5392 82.8504 53.5392 102.934V158.229C53.5392 178.442 59.5382 188.223 71.7969 188.223C83.534 188.223 90.4458 177.79 90.837 143.753L136.742 153.142C135.829 204.655 112.094 225.652 70.884 225.652ZM209.256 225.652C163.482 225.652 141.442 202.438 141.442 148.317V115.193C141.442 59.7675 163.482 35.9021 209.256 35.9021C254.901 35.9021 277.071 59.7675 277.071 115.193V148.317C277.071 202.438 254.901 225.652 209.256 225.652ZM209.256 188.223C222.689 188.223 229.209 178.703 229.209 159.141V104.238C229.209 83.3721 222.689 73.3303 209.256 73.3303C195.824 73.3303 189.303 83.3721 189.303 104.238V159.141C189.303 178.703 195.824 188.223 209.256 188.223ZM285.292 222V39.4232H337.587L366.669 114.671C370.712 124.973 374.233 135.798 378.275 151.056L380.884 150.665C379.188 130.581 378.015 113.758 378.015 99.0215V39.4232H423.92V222H371.494L343.716 150.925C338.5 136.45 335.24 126.408 330.936 108.542L328.197 109.063C329.893 127.451 331.197 149.23 331.197 166.575V222H285.292ZM482.871 224.217C449.094 224.217 432.271 199.047 432.271 147.274V114.149C432.271 61.3324 453.528 35.9021 499.303 35.9021C541.165 35.9021 562.292 54.8118 563.335 97.0653L518.343 103.325C517.952 79.4597 511.431 73.0695 500.085 73.0695C486.653 73.0695 480.132 83.3721 480.132 104.89V154.186C480.132 176.225 486.392 186.919 499.433 186.919C510.779 186.919 517.691 179.616 519.778 151.969H496.956V117.41H564.509V222H524.603C523.82 214.045 525.777 203.09 531.124 187.571L528.124 186.528C518.082 211.958 506.867 224.217 482.871 224.217ZM573.773 222V39.4232H644.457C680.972 39.4232 699.882 55.9855 699.882 86.3715V92.1097C699.882 113.888 688.927 127.582 668.844 131.103V133.581C685.667 138.536 690.492 145.187 693.622 166.444L696.752 187.571C700.012 208.828 702.751 214.306 707.446 218.348L706.924 222H656.324C652.934 216.131 651.499 207.524 649.673 189.919L647.978 172.313C646.152 154.707 642.892 149.491 631.416 149.491H621.113V222H573.773ZM621.113 114.019H640.023C648.891 114.019 653.064 109.715 653.064 100.065V90.8055C653.064 81.1551 648.891 76.8515 640.023 76.8515H621.113V114.019ZM705.886 222L747.879 39.4232H809.694L852.599 222H802.521L798.87 200.091H755.051L751.4 222H705.886ZM762.094 166.314H791.958L784.003 126.017C781.655 110.107 779.569 96.6741 778.265 81.9375H775.656C774.613 96.6741 772.657 110.107 770.31 125.886L762.094 166.314ZM874.123 222V78.1556H836.955V39.4232H958.63V78.1556H921.462V222H874.123ZM1044.84 39.4232H1092.18V172.443C1092.18 207.003 1069.22 225.521 1027.49 225.521C985.5 225.521 962.547 207.003 962.547 172.443V39.4232H1010.02V169.705C1010.02 182.485 1016.15 189.267 1027.49 189.267C1038.58 189.267 1044.84 182.485 1044.84 169.705V39.4232ZM1102.75 222V39.4232H1150.08V183.268H1202.12V222H1102.75ZM1203.04 222L1245.03 39.4232H1306.85L1349.75 222H1299.67L1296.02 200.091H1252.2L1248.55 222H1203.04ZM1259.24 166.314H1289.11L1281.15 126.017C1278.81 110.107 1276.72 96.6741 1275.42 81.9375H1272.81C1271.76 96.6741 1269.81 110.107 1267.46 125.886L1259.24 166.314ZM1371.27 222V78.1556H1334.11V39.4232H1455.78V78.1556H1418.61V222H1371.27ZM1460.22 39.4232H1507.56V222H1460.22V39.4232ZM1583.73 225.652C1537.95 225.652 1515.91 202.438 1515.91 148.317V115.193C1515.91 59.7675 1537.95 35.9021 1583.73 35.9021C1629.37 35.9021 1651.54 59.7675 1651.54 115.193V148.317C1651.54 202.438 1629.37 225.652 1583.73 225.652ZM1583.73 188.223C1597.16 188.223 1603.68 178.703 1603.68 159.141V104.238C1603.68 83.3721 1597.16 73.3303 1583.73 73.3303C1570.29 73.3303 1563.77 83.3721 1563.77 104.238V159.141C1563.77 178.703 1570.29 188.223 1583.73 188.223ZM1659.76 222V39.4232H1712.06L1741.14 114.671C1745.18 124.973 1748.7 135.798 1752.74 151.056L1755.35 150.665C1753.66 130.581 1752.48 113.758 1752.48 99.0215V39.4232H1798.39V222H1745.96L1718.19 150.925C1712.97 136.45 1709.71 126.408 1705.41 108.542L1702.67 109.063C1704.36 127.451 1705.67 149.23 1705.67 166.575V222H1659.76ZM1869.6 225.521C1827.74 225.521 1805.05 205.829 1805.83 165.401L1849.52 160.446C1850.43 181.964 1855.38 190.179 1871.82 190.179C1881.34 190.179 1886.94 184.963 1886.94 177.79C1886.94 168.531 1881.08 160.837 1862.95 151.186L1844.95 141.405C1826.95 131.755 1806.87 118.714 1807.13 88.0669C1807.39 53.6381 1828.52 35.9021 1867.38 35.9021C1908.72 35.9021 1929.72 54.8118 1928.81 93.6746L1887.86 97.9782C1887.6 78.8076 1880.68 71.1133 1866.73 71.1133C1857.34 71.1133 1852.12 75.6778 1852.12 81.9375C1852.12 88.719 1856.43 96.022 1875.86 105.542L1894.38 114.932C1912.63 124.191 1933.5 135.928 1933.5 169.314C1933.5 205.046 1910.29 225.521 1869.6 225.521ZM1939.24 39.4232H1991.15L1986.19 167.879H1944.2L1939.24 39.4232ZM1939.51 177.269H1990.89V222H1939.51V177.269Z" fill="#88D1B8"/>
<path d="M249.245 216.209C247.842 216.34 246.462 216.657 245.142 217.152C242.157 218.644 239.59 220.856 237.674 223.588C236.513 225.005 235.127 226.224 233.571 227.195C232.688 227.794 231.644 228.115 230.576 228.115C229.508 228.115 228.465 227.794 227.581 227.195C225.94 225.924 224.545 224.079 222.452 223.588C217.405 222.358 214.697 226.949 213.712 231.212C212.778 237.007 213.256 242.941 215.107 248.511C216.346 252.494 216.983 256.639 216.995 260.809C216.708 265.154 213.302 270.401 208.255 268.188C207.136 267.588 206.178 266.727 205.464 265.678C204.749 264.629 204.299 263.422 204.152 262.162C203.044 255.644 206.368 249.126 206.942 242.69C207.353 238.181 206.942 231.95 201.362 230.884C199.347 230.5 197.266 230.655 195.331 231.335C193.32 232.032 191.228 233.385 188.889 232.36C186.55 231.335 185.77 229.245 184.54 227.769C180.108 222.399 175.061 216.127 167.471 216.127L249.245 216.209Z" fill="#88D1B8"/>
<path d="M1190.38 229.858C1193.42 229.651 1196.65 229.078 1199.05 227.046C1201.2 225.218 1202.11 222.429 1201.14 219.726C1200.81 218.73 1200.22 217.839 1199.43 217.142H1118.75C1123.26 217.375 1127.76 217.761 1132.25 218.299C1140.21 219.268 1148.11 220.724 1155.89 222.659C1163.59 224.567 1171.07 227.362 1178.85 228.914C1182.63 229.667 1186.52 230.124 1190.38 229.858Z" fill="#88D1B8"/>
<path d="M1483.76 384.897C1486.86 384.897 1489.38 381.863 1489.38 378.121C1489.38 374.378 1486.86 371.344 1483.76 371.344C1480.65 371.344 1478.14 374.378 1478.14 378.121C1478.14 381.863 1480.65 384.897 1483.76 384.897Z" fill="#88D1B8"/>
<path d="M1483.56 402.166C1483.08 402.196 1482.62 402.333 1482.21 402.567C1480.55 403.37 1479.85 405.328 1479.09 406.884C1477.77 409.488 1476.85 412.282 1476.38 415.167C1475.83 420.187 1478.64 426.562 1484.41 425.809C1489.43 425.157 1491.29 419.534 1490.79 415.167C1490.32 412.274 1489.39 409.476 1488.03 406.884C1487.17 405.027 1485.82 402.115 1483.56 402.166Z" fill="#88D1B8"/>
<path d="M1504.73 221.2H1463.24C1473.27 222.857 1482.61 236.963 1482.25 280.033C1482.36 298.177 1480.44 316.277 1476.53 333.996C1475.03 340.371 1471.82 354.377 1479.8 358.141C1481.11 358.762 1482.55 359.087 1484.01 359.095C1485.48 359.095 1486.94 358.769 1488.28 358.141C1496.2 354.377 1492.99 340.371 1491.49 333.996C1487.6 316.273 1485.68 298.176 1485.77 280.033C1485.36 236.963 1494.85 222.857 1504.73 221.2Z" fill="#88D1B8"/>
</svg>
