<svg width="256" height="328" viewBox="0 0 256 328" fill="none" xmlns="http://www.w3.org/2000/svg">
<g clip-path="url(#clip0_1866_581)">
<path d="M255.787 0.998047H0.787109V255.988H255.787V0.998047Z" fill="currentColor"/>
<path d="M38.082 255.725C38.7526 255.885 39.4432 255.944 40.1312 255.901C42.6991 255.91 45.2157 256.621 47.4086 257.957C49.6015 259.294 51.3871 261.204 52.5723 263.482C56.7292 270.156 62.4667 276.918 70.1363 279.348C74.6043 280.621 79.339 280.621 83.807 279.348C92.2038 276.623 99.8783 272.041 106.26 265.941C108.989 263.224 112.036 260.846 115.334 258.857C119.094 256.931 123.258 255.928 127.483 255.93C128.384 255.958 129.286 255.9 130.176 255.754L38.082 255.725Z" fill="currentColor"/>
<path d="M124.145 255.461C126.145 255.607 128.116 256.031 129.999 256.72C134.302 258.301 137.347 262.223 140.245 265.502C141.793 267.473 143.676 269.157 145.807 270.478C147.019 271.306 148.452 271.749 149.92 271.749C151.387 271.749 152.821 271.306 154.033 270.478C156.287 268.751 158.16 266.204 161.029 265.502C168.025 263.804 171.743 270.127 173.09 275.981C174.963 283.943 173.09 292.081 171.187 299.838C169.424 305.395 168.535 311.191 168.552 317.021C168.991 323.022 173.646 330.223 180.613 327.149C182.168 326.339 183.502 325.161 184.497 323.717C185.492 322.272 186.118 320.607 186.321 318.865C187.843 309.908 183.394 300.921 182.516 292.11C181.959 285.875 182.691 277.328 190.185 275.864C192.949 275.309 195.811 275.511 198.47 276.45C201.25 277.416 204.324 279.377 207.252 277.884C209.681 276.742 211.584 273.581 213.282 271.532C219.312 264.185 226.308 255.549 236.7 255.549L124.145 255.461Z" fill="currentColor"/>
<path d="M121.422 255.461H124.144C123.238 255.403 122.328 255.403 121.422 255.461Z" fill="currentColor"/>
</g>
<defs>
<clipPath id="clip0_1866_581">
<rect width="255" height="327" fill="white" transform="translate(0.787109 0.998047)"/>
</clipPath>
</defs>
</svg>
