<svg width="30" height="29" viewBox="0 0 30 29" fill="none" xmlns="http://www.w3.org/2000/svg">
<path d="M27.6392 18.7487C27.1192 20.6469 25.7263 22.1026 23.6184 22.1428C23.2976 22.1202 22.9748 22.1189 22.6583 22.07C22.1985 21.9997 22.0239 21.7469 22.0878 21.275C22.1112 21.1018 22.1536 20.9267 22.2187 20.7648C22.3749 20.3802 22.5322 19.9943 22.7191 19.6247C23.3867 18.3063 24.01 16.971 24.4096 15.536C24.5694 14.9587 24.7391 14.3795 24.9653 13.8267C25.3568 12.871 26.0754 12.7493 26.7903 13.4866C27.3884 14.1028 27.6878 14.8696 27.8378 15.7054C28.0222 16.7357 27.9122 17.7504 27.6386 18.7493M11.8621 17.9167C12.0115 16.8424 12.7719 16.2488 13.8237 16.3856C14.0726 16.4176 14.3203 16.4703 14.5601 16.5437C15.4311 16.8104 16.3028 17.0765 17.1652 17.3707C17.7517 17.5709 18.3448 17.7717 18.8962 18.0497C19.672 18.4425 20.0009 19.107 19.9068 19.892C19.7556 21.1696 18.8446 22.006 17.2605 22.0738C16.9716 22.0474 16.3993 22.0148 15.8325 21.9426C14.4986 21.7713 13.3688 21.1959 12.5242 20.1066C12.0293 19.4684 11.7459 18.7493 11.8615 17.9167M28.8785 11.6719C28.7666 11.4309 28.6474 11.1969 28.5232 10.9672C28.6449 10.8687 28.7199 10.71 28.6929 10.5336C28.2761 7.76892 26.4916 -0.58107 17.2003 1.08115C9.5459 2.45095 5.88039 6.79819 5.88469 10.5167C5.88469 10.7501 6.12689 10.8995 6.33281 10.7972C9.43771 9.25042 13.0405 8.20314 16.119 8.55077C16.2567 8.56645 16.2511 8.77039 16.1128 8.77667C12.7541 8.94232 9.0529 10.3899 6.13857 12.1513C3.10129 13.9873 0.919071 16.1603 0.875427 17.5722C0.81703 19.4415 6.76434 19.7201 8.7228 19.5682C8.71665 19.5538 8.70989 19.5356 8.70375 19.5211C8.94594 19.9033 9.19982 20.2697 9.45861 20.6092C9.64548 20.8539 9.70142 21.1765 9.60675 21.472C9.34181 22.2909 9.60061 23.1888 10.3038 23.6651C11.0507 24.1715 11.9008 24.3603 12.7657 24.5003C12.8666 24.5166 12.9686 24.5229 13.0694 24.5385C13.2643 24.5687 13.3663 24.6559 13.37 24.7826C13.335 24.8805 13.2501 24.9997 13.1088 25.1478C12.5955 25.685 12.3508 26.5829 13.2673 27.0316C14.1845 27.4802 14.6849 26.7818 14.7826 26.6576C14.7826 26.6576 14.4285 28.3418 16.9335 28.3537C17.7769 28.3537 18.4733 27.8416 18.7303 27.393C18.7303 27.393 18.4487 28.8776 20.331 28.7277C22.0854 28.5884 22.5962 27.43 22.6085 26.2127C22.6134 26.1575 22.6189 26.1022 22.622 26.047C22.6478 25.6373 22.858 25.4428 23.2668 25.407C23.8293 25.358 24.4022 25.3392 24.9474 25.2068C26.4221 24.8485 27.3817 23.8276 27.8851 22.363C28.0861 21.7807 28.308 21.2072 28.5896 20.6619C29.3266 19.2344 29.578 17.6807 29.6616 16.0988C29.7434 14.5596 29.5283 13.0662 28.8779 11.6713" fill="currentColor"/>
</svg>
