<svg width="1844" height="1216" viewBox="0 0 1844 1216" fill="none" xmlns="http://www.w3.org/2000/svg">
<g clip-path="url(#clip0_1790_2112)">
<path d="M411.419 885.94C386.889 860.04 371.829 828.56 398.109 804.86C424.389 781.16 456.789 803.9 469.479 820.28C469.479 820.28 493.119 847.78 483.829 879.04C474.539 910.3 435.959 911.84 411.419 885.95M530.649 767.4C551.539 762.82 565.019 776.95 573.289 789.2C575.679 792.73 578.519 796.8 581.189 801.18C588.319 812.98 594.069 827.11 585.809 839.27C570.639 861.59 542.409 847.52 528.149 837.93C512.189 827.22 482.399 806.25 499.989 784.57C505.999 777.17 520.699 769.58 530.649 767.4ZM529.229 968.53C557.109 942.67 530.349 923.61 535.189 906.04C535.199 906 535.219 905.95 535.229 905.9C537.439 897.81 544.269 891.8 552.649 891.3C578.029 889.82 623.479 917.58 640.649 874.7C648.959 853.95 645.309 831.89 637.439 812.05C637.049 811.1 636.669 810.15 636.279 809.19C622.529 775.42 601.479 749.31 569.579 731.02C503.869 693.35 423.319 708.89 364.889 753.41C343.659 771.75 334.009 794.91 336.319 820.54C336.619 825.26 337.319 830.21 338.489 835.38C340.819 845.74 344.969 857.03 351.289 869.33C358.209 882.1 365.829 894.48 374.079 906.5C396.259 938.8 426.319 967.32 465.339 976.9C487.159 982.26 512.849 983.73 529.229 968.54" fill="currentColor"/>
<path d="M611.029 461.52C610.859 480.67 606.679 499.87 600.209 517.73C593.169 537.11 584.849 557.68 568.939 571.59C535.689 600.66 480.949 590.06 442.419 580.15C421.329 574.73 400.769 567.23 381.149 557.78C363.029 549.04 343.009 539.67 334.829 519.94C331.469 511.86 330.769 503.02 332.029 494.42C333.369 485.55 336.959 475.71 342.799 464.9C350.199 451.44 360.479 446.87 373.589 451.2C383.219 454.39 400.689 467.2 425.999 489.65C450.479 511.39 475.539 532.08 509.739 533.61C517.249 533.95 524.929 533.38 531.889 530.54C545.889 524.85 550.749 510.47 555.139 497.2C563.269 472.58 558.859 441.64 535.819 426.02C529.899 422 522.949 419.78 515.969 418.19C482.809 410.68 449.429 420.23 416.729 425.9C397.419 429.3 383.769 429.67 375.779 427.03C365.739 423.71 361.649 415.44 363.529 402.18C364.999 392.22 368.189 382.58 373.079 373.29C384.289 352.44 403.779 341.95 431.549 341.8C451.409 341.54 478.459 347.07 512.689 358.37C518.229 360.2 525.369 362.68 534.119 365.8C545.109 369.65 551.949 372.03 554.609 372.9C582.189 382.05 604.709 411.71 609.359 439.43C610.579 446.74 611.119 454.13 611.049 461.53" fill="currentColor"/>
<path d="M729.11 139.01C749.09 162.82 762.76 188.53 770.17 216.14C777.95 246.24 776.19 271.52 764.9 291.98C756.21 307.73 737.97 322.6 722.15 330.82C691.79 346.59 661.27 332.84 636.14 313.8C613.84 293.62 591.49 273.36 569.07 253.01C559.35 244.19 540.65 226.41 525.82 231.69C521.06 233.39 517.79 237.8 515.41 242.28C512.13 248.46 509.96 255.38 510.17 262.39C510.99 290.02 552.03 301.03 572.78 307.79C605.71 318.5 626.27 326.89 634.47 332.96C650.63 344.49 652.12 359.71 638.98 378.62C635.13 384.11 627.35 390.64 615.66 398.18C597.33 409.91 575.61 410.38 550.5 399.61C527.58 390.1 506.2 373.51 486.38 349.86C466.26 325.88 453.31 301.39 447.52 276.37C443.19 258.25 442.28 236.38 453 220.17C466.26 200.14 487.89 185.62 510.69 178.58C536.24 170.68 563.02 176.34 585.07 190.95C598.39 199.78 620.75 221.73 652.16 256.8C661.34 267.03 675.93 286.21 691.81 283.33C696.23 282.52 700.06 279.6 702.76 276.01C707.69 269.49 710.9 260.22 710.2 252.02C709.13 239.7 697.87 232.31 688.06 226.71C674.06 218.71 658.92 212.63 643.88 206.91C610.97 194.38 590.41 183.23 582.23 173.48C562.13 149.53 590.23 116.51 609.18 101.88C625.6 89.2001 645.62 87.5201 665.1 93.4201C666.06 93.7101 667.03 94.0201 667.98 94.3401C690 101.78 710.38 116.66 729.11 138.99" fill="currentColor"/>
<path d="M1003.98 242C999.619 251.54 988.039 257.6 969.229 260.21C948.909 263.02 932.359 255.18 919.559 236.68C910.389 219.21 901.229 201.86 892.089 184.59C881.269 166.26 867.909 158.62 851.979 161.71C830.319 165.8 820.299 173.72 821.929 185.48C822.529 189.76 824.779 194.23 828.689 198.92C831.029 201.65 838.129 208.85 849.989 220.49C856.299 226.81 859.759 232.11 860.359 236.39C862.379 250.93 847.009 265.43 834.899 270.38C804.779 282.71 774.699 257.24 758.989 233.73C746.609 215.18 738.659 193.18 735.139 167.74C731.209 139.3 733.509 112.73 742.089 88.0102C748.589 68.5402 759.679 50.0202 775.679 36.8202C782.689 31.0302 791.259 26.7102 800.359 26.3202C811.159 25.8502 827.429 31.6002 829.149 43.9302C831.449 60.4402 815.819 76.9802 811.599 92.0902C809.639 99.1302 809.429 106.91 812.509 113.52C814.839 118.5 818.879 122.52 823.439 125.59C830.189 130.14 840.699 134.75 848.469 130.47C855.919 126.37 860.569 117.68 864.159 110.35C878.809 80.3402 888.789 46.8302 911.019 21.0802C922.189 8.12023 938.719 -1.79977 955.689 0.290227C960.069 0.840227 964.429 2.20023 967.999 4.82023C974.469 9.58023 977.989 18.7302 979.059 26.4502C980.689 38.2202 974.639 49.6202 960.909 60.6802C947.609 70.1502 934.219 79.6202 920.709 89.1202C905.789 100.98 898.049 113.5 897.479 126.65C897.399 129.28 897.549 131.88 897.899 134.44C900.029 149.83 912.419 162.94 935.049 173.75C953.629 182.08 972.219 190.4 990.809 198.73C1007.79 209.67 1012.17 224.1 1003.99 242.01" fill="currentColor"/>
<path d="M1353.85 148.2C1366.68 157.98 1374.42 173.26 1374.61 190.09C1374.86 206.42 1369.71 224.37 1359.13 243.92C1341.18 277.16 1315.77 304.4 1282.94 325.67C1263.31 338.38 1239.91 349.8 1215.96 349.68C1205.71 349.63 1196.89 346.21 1187.22 343.4C1165.09 336.99 1136.85 332.24 1124.24 310.32C1118.26 299.93 1117.58 287.14 1119.95 275.38C1125.88 245.92 1146.02 218.69 1162.79 194.44C1176.25 174.98 1184.67 161.24 1188.01 153.23C1193.53 140.75 1192.67 132.81 1185.43 129.4C1170.31 121.96 1157.83 127.36 1147.96 145.58C1144.17 152.6 1137.77 169.88 1128.79 197.42C1120.15 223.15 1111.2 253.53 1086.8 268.66C1059.17 285.78 1028.14 277.83 1002.1 262.18C980.959 249.53 971.269 221.84 973.009 179.11C974.659 139.77 984.509 103.39 1002.58 69.9501C1022.8 32.5501 1044.18 17.7301 1066.71 25.5001C1077.9 29.3401 1085.79 33.9001 1093.22 39.4301C1110.17 53.0001 1110.79 69.3801 1099.2 90.8401C1091.76 104.6 1083.58 117.76 1073.59 129.84C1061.71 144.22 1045.89 155.49 1037.13 172.46C1031.55 183.28 1029 196.83 1032.98 208.6C1037.14 220.89 1051.32 232.02 1064.8 228.99C1086.39 224.14 1090.3 194.13 1095.98 176.54C1102.11 157.57 1110 139.24 1118.85 121.41C1126.37 106.23 1133.08 89.3801 1147.83 79.6301C1166.61 67.2101 1187.66 74.3201 1205.85 84.1401C1221.89 92.7901 1235.15 104.32 1236.58 123.43C1239.31 159.72 1220.36 188.68 1201.5 217.8C1189 237.08 1169.99 257.8 1167.57 281.63C1167.31 284.22 1167.34 286.93 1168.4 289.29C1170.22 293.31 1174.59 295.52 1178.82 296.77C1193.34 301.05 1209.74 297.21 1220.9 286.97C1237.15 272.09 1242.22 245.81 1248.01 225.48C1254.87 201.45 1261.16 184.12 1266.91 173.5C1280.89 147.63 1308.85 130.01 1338.67 140.16C1344.28 142.07 1349.36 144.82 1353.84 148.23" fill="currentColor"/>
<path d="M1441.68 564.91C1413.39 577.76 1384.95 584.06 1356.37 583.79C1335.73 583.4 1314.43 579.47 1296.84 568.09C1278.33 556.11 1266.78 534.75 1260.52 513.97C1255.56 497.5 1255.63 481.28 1263.8 465.91C1271.81 450.83 1284.77 438.71 1298.21 428.48C1323.62 412.41 1349.14 396.3 1374.75 380.15C1385.73 373.23 1400.73 364.34 1405.2 351.34C1410.65 335.47 1391.63 321.41 1377.44 320.31C1368.24 319.59 1359.19 323.63 1352.03 329.44C1339.09 339.95 1330.06 355.31 1320.96 369.04C1301.82 397.88 1288.23 415.44 1280.18 421.71C1264.75 434.19 1249.67 431.54 1234.97 413.81C1230.72 408.63 1226.51 399.4 1222.38 386.11C1216.01 365.3 1221.37 344.25 1238.47 322.94C1253.78 303.41 1275.48 287.27 1303.59 274.5C1345.87 255.27 1414.59 239.97 1444.8 286.87C1470.95 327.46 1467.14 380.16 1430.2 412.18C1418.13 422.65 1390.98 438.31 1348.78 459.17C1338.26 464.36 1327.25 469.84 1318.98 478.41C1315.08 482.47 1312.12 487.89 1312.63 493.51C1314.13 510.16 1338.08 520.58 1352.11 514.21C1362.52 509.48 1378.18 492.93 1399.07 464.57C1419.98 436.22 1436.21 419.4 1447.81 414.13C1463.72 406.9 1478.94 413.26 1493.46 433.2C1506.03 450.54 1516.95 467.49 1512.87 489.94C1510.07 505.37 1501.53 519.33 1490.72 530.67C1476.93 545.14 1459.77 556.65 1441.66 564.88" fill="currentColor"/>
<path d="M726.879 1027.35C732.969 1014.68 737.169 1001.37 738.669 988.18C743.179 948.2 706.539 907.28 665.109 913.93C646.379 916.94 631.909 929.68 621.359 944.81C616.049 952.42 610.759 961.89 605.489 973.21C592.739 1000.91 589.849 1025.06 596.769 1045.69C601.259 1058.61 609.959 1069.85 621.369 1077.41C633.589 1085.51 651.719 1093.1 666.579 1090.48C680.599 1087.99 691.169 1076.87 700.269 1066.76C710.909 1054.96 719.999 1041.68 726.889 1027.34M770.389 1050.33C764.589 1061.28 758.849 1070.83 753.169 1078.98C728.619 1114.18 687.529 1140.97 643.269 1128.71C627.459 1124.33 612.239 1118.42 598.209 1109.85C583.079 1100.6 570.199 1088.33 559.559 1073.02C549.649 1058.68 542.399 1043.35 540.009 1025.98C534.299 984.51 553.079 937.47 580.639 906.69C590.029 896.22 601.079 887.19 613.539 880.59C621.749 876.23 630.369 873.03 639.279 870.44C647.529 868.03 658.769 867.59 672.989 869.09C709.009 873.1 738.529 889.88 763.919 915.24C779.129 930.42 789.389 946.92 791.279 968.64C793.079 989.32 787.909 1010.06 780.219 1029.13C777.319 1036.35 773.999 1043.41 770.399 1050.32" fill="currentColor"/>
<path d="M1083.12 1070.97C1082.96 1102.05 1076.77 1130.51 1064.54 1156.35C1056.94 1172.42 1046.09 1187.96 1031.82 1198.98C1015.09 1211.9 995.38 1216 974.56 1215.35C954.97 1214.73 935.35 1210.15 921.95 1195C909.5 1180.94 903.18 1162.19 899.16 1144.17C895.21 1114.37 891.26 1084.45 887.32 1054.42C883.37 1024.4 875.35 1009.36 863.27 1009.29C853.44 1009.24 841.95 1016.07 836.11 1023.73C819.5 1045.56 843.15 1079.84 854.71 1098.61C862.48 1111.18 870.13 1123.87 876.86 1137.04C882.65 1148.33 889.36 1161.65 885.72 1174.62C881.62 1189.19 865.39 1195.34 851.65 1196.41C832.1 1197.92 811.91 1193.64 797.14 1180.27C784.52 1168.86 776.38 1153.16 770.95 1137.25C767.35 1126.67 764.86 1115.71 763.39 1104.64C762.06 1094.77 761.52 1084.79 761.57 1074.82C761.74 1043.52 767.71 1016.46 779.48 993.65C787.92 977.27 799.93 962.14 817.49 955.13C838.06 946.91 862.02 950.39 882.56 956.86C899.34 962.15 914.16 972.26 924.6 986.49C931.39 995.74 936.42 1006.45 939.61 1017.45C949.99 1053.24 944.74 1091.66 949.35 1128.16C950.49 1137.29 952.75 1153.64 962.55 1157.88C965.15 1159.01 968.09 1159.08 970.91 1158.78C985.02 1157.31 998.88 1146.76 999.41 1131.77C999.79 1121.21 994.95 1110.31 990.8 1100.78C985.86 1089.45 980.12 1078.47 974.15 1067.65C957.15 1036.81 948.68 1015.02 948.74 1002.28C948.82 989.18 956.92 979.41 968.5 974.08C984.62 966.64 1003.23 962.74 1020.93 965.4C1040.66 968.37 1055.22 980.61 1065.33 997.38C1077.32 1017.31 1083.24 1041.83 1083.09 1070.97" fill="currentColor"/>
<path d="M1351.25 1028.64C1361.37 1049.73 1350.82 1071.08 1319.57 1092.68C1302.71 1104.36 1280.92 1115.35 1254.23 1125.7C1233.88 1133.48 1217.92 1138.49 1206.34 1140.72C1186.41 1144.53 1166.38 1140.42 1146.23 1128.37C1127.77 1117.26 1110.99 1100.79 1095.89 1078.95C1078.82 1054.29 1066.92 1027.6 1060.19 998.92C1053.04 969.22 1053.26 944.14 1060.87 923.65C1068.53 902.98 1084.7 886.81 1100.51 872.08C1116.37 857.3 1134.48 844.37 1154.73 836.38C1174.06 828.76 1211.93 818.83 1222.27 844.5C1225.73 853.09 1224.83 863 1221.39 871.6C1215.03 887.38 1201.82 900.67 1186.42 907.63C1171.1 914.55 1153.42 915.81 1138.61 923.8C1125.26 931.01 1119.1 946.01 1120.36 960.71C1121.57 974.77 1129.35 990.45 1143.14 995.79C1163.07 1003.5 1183.36 987.48 1196.07 973.67C1204.8 964.2 1212.24 953.62 1220.72 943.93C1225.57 938.39 1230.95 933 1237.7 930.06C1247.13 925.92 1258.76 927.3 1266.98 933.53C1270.82 936.43 1273.97 940.41 1275.28 945.04C1276.5 949.4 1276.05 954.11 1274.64 958.41C1270.18 972.04 1257 980.97 1243.64 986.18C1225.77 993.14 1205.62 996.22 1189.3 1006.8C1174.68 1016.27 1171.74 1034.35 1176.49 1050.12C1181.97 1068.32 1196.46 1081.54 1215.36 1084.9C1218.39 1085.45 1221.47 1085.68 1224.53 1085.43C1243.37 1083.87 1257.13 1064.12 1267.29 1050.15C1278.43 1034.85 1288.66 1018.46 1303.51 1006.38C1309.53 1001.48 1317.49 998.12 1325.04 999.95C1337.46 1002.98 1346.15 1017.97 1351.25 1028.59" fill="currentColor"/>
<path d="M1369.15 726.26C1379.95 737.75 1379.04 754.41 1372.1 767.64C1367.85 775.76 1361.46 784.07 1352.86 787.86C1342.97 792.2 1333.84 787.08 1325.94 781.08C1315.61 773.25 1304.49 766.85 1292.08 774.68C1287.8 777.39 1284.26 781.12 1280.94 784.96C1259.61 809.64 1236.51 858.58 1280.41 873.88C1299.45 880.53 1326.8 879.02 1343.41 866.87C1354.4 858.84 1360.71 846.43 1367.2 834.84C1374.34 822.1 1382.45 809.58 1391.38 798.04C1399.21 787.95 1411.95 783.13 1424.33 781.83C1438.96 780.46 1452.91 782.97 1466.15 789.35C1490.33 801.14 1505.46 820.95 1511.54 848.79C1515.16 865.4 1515.25 881.91 1510.69 898.39C1506.55 913.4 1499.42 927.44 1491.29 940.72C1479.48 960 1464.02 979.8 1442.98 989.53C1430.75 995.18 1417.42 998.32 1403.98 999C1385.44 999.95 1366.02 998.22 1353.74 982.53C1340.02 964.99 1344.1 942.01 1354.04 923.79C1358.93 914.84 1365.44 908.26 1373.55 904.03C1381.67 899.81 1388.99 899.49 1395.55 903.07C1409.65 910.76 1409.95 929.91 1419.75 940.94C1421.56 942.97 1423.76 944.71 1426.35 945.55C1430.89 947.01 1435.9 945.42 1439.96 942.94C1455.3 933.52 1467.53 918.91 1474.06 902.16C1481.11 884.04 1482.01 862.78 1474.27 844.78C1468.08 830.39 1455.93 815.28 1438.86 815.24C1429.45 815.21 1421.14 821.54 1415.34 828.94C1409.2 836.77 1404.57 845.73 1398.77 853.84C1392.27 862.93 1385.59 871.84 1378.32 880.35C1369.27 890.95 1360.72 901.84 1348.95 909.65C1321.83 927.55 1282.49 931.53 1253.45 915.67C1216.21 895.34 1209.22 850.76 1217.48 812.48C1226.76 769.55 1253.27 734.96 1294.3 718.04C1299.85 715.75 1305.57 713.81 1311.37 712.21C1330.62 706.9 1351.81 710.74 1367.03 724.23C1367.78 724.89 1368.49 725.58 1369.15 726.28" fill="currentColor"/>
<path d="M1097.65 674.62C1089.19 704.87 1066.53 728.07 1032.24 728.71C1027.02 728.35 1021.77 728.33 1016.62 727.55C1009.14 726.43 1006.3 722.4 1007.34 714.88C1007.72 712.12 1008.41 709.33 1009.47 706.75C1012.01 700.62 1014.57 694.47 1017.61 688.58C1028.47 667.57 1038.61 646.29 1045.11 623.42C1047.71 614.22 1050.47 604.99 1054.15 596.18C1060.52 580.95 1072.21 579.01 1083.84 590.76C1093.57 600.58 1098.44 612.8 1100.88 626.12C1103.88 642.54 1102.09 658.71 1097.64 674.63M840.991 661.36C843.421 644.24 855.791 634.78 872.901 636.96C876.951 637.47 880.981 638.31 884.881 639.48C899.051 643.73 913.231 647.97 927.261 652.66C936.801 655.85 946.451 659.05 955.421 663.48C968.041 669.74 973.391 680.33 971.861 692.84C969.401 713.2 954.581 726.53 928.811 727.61C924.111 727.19 914.801 726.67 905.581 725.52C883.881 722.79 865.501 713.62 851.761 696.26C843.711 686.09 839.101 674.63 840.981 661.36M1117.81 561.84C1115.99 558 1114.05 554.27 1112.03 550.61C1114.01 549.04 1115.23 546.51 1114.79 543.7C1108.01 499.64 1078.98 366.57 927.831 393.06C803.311 414.89 743.681 484.17 743.751 543.43C743.751 547.15 747.691 549.53 751.041 547.9C801.551 523.25 860.161 506.56 910.241 512.1C912.481 512.35 912.391 515.6 910.141 515.7C855.501 518.34 795.291 541.41 747.881 569.48C698.471 598.74 662.971 633.37 662.261 655.87C661.311 685.66 758.061 690.1 789.921 687.68C789.821 687.45 789.711 687.16 789.611 686.93C793.551 693.02 797.681 698.86 801.891 704.27C804.931 708.17 805.841 713.31 804.301 718.02C799.991 731.07 804.201 745.38 815.641 752.97C827.791 761.04 841.621 764.05 855.691 766.28C857.331 766.54 858.991 766.64 860.631 766.89C863.801 767.37 865.461 768.76 865.521 770.78C864.951 772.34 863.571 774.24 861.271 776.6C852.921 785.16 848.941 799.47 863.851 806.62C878.771 813.77 886.911 802.64 888.501 800.66C888.501 800.66 882.741 827.5 923.491 827.69C937.211 827.69 948.541 819.53 952.721 812.38C952.721 812.38 948.141 836.04 978.761 833.65C1007.3 831.43 1015.61 812.97 1015.81 793.57C1015.89 792.69 1015.98 791.81 1016.03 790.93C1016.45 784.4 1019.87 781.3 1026.52 780.73C1035.67 779.95 1044.99 779.65 1053.86 777.54C1077.85 771.83 1093.46 755.56 1101.65 732.22C1104.92 722.94 1108.53 713.8 1113.11 705.11C1125.1 682.36 1129.19 657.6 1130.55 632.39C1131.88 607.86 1128.38 584.06 1117.8 561.83" fill="currentColor"/>
</g>
<defs>
<clipPath id="clip0_1790_2112">
<rect width="1843.61" height="1215.41" fill="currentColor"/>
</clipPath>
</defs>
</svg>
