<svg width="41" height="40" viewBox="0 0 41 40" fill="none" xmlns="http://www.w3.org/2000/svg">
<g clip-path="url(#clip0_1142_1362)">
<path d="M1.40005 19.1334C2.44305 19.1554 3.48418 19.1651 4.52604 19.1807C4.45026 19.1435 4.38717 19.0847 4.34468 19.0117C3.70106 18.9927 3.05844 18.9725 2.41684 18.9512C2.36334 18.949 2.31086 18.9358 2.26262 18.9126C2.21439 18.8893 2.17142 18.8564 2.13637 18.816C2.10132 18.7755 2.07492 18.7282 2.0588 18.6772C2.04269 18.6261 2.03719 18.5723 2.04265 18.519C1.7899 18.5016 1.53505 18.49 1.28436 18.4737C0.816338 18.4414 0.743653 17.7448 1.24239 17.7209C9.45123 17.3237 17.6661 17.3243 25.8871 17.7227C28.1273 17.8315 30.3664 17.9713 32.6043 18.1421L32.6139 18.1416C32.6458 18.1443 32.6776 18.1454 32.7079 18.1498C32.7566 18.1512 32.8041 18.1648 32.8461 18.1893C32.8882 18.2137 32.9235 18.2483 32.9488 18.2899C33.0465 18.2898 33.1442 18.2893 33.2419 18.2887C29.2821 15.9212 25.422 13.3972 21.6615 10.7167C21.4233 10.685 21.2041 10.5696 21.0432 10.3911C20.8823 10.2126 20.7901 9.98268 20.7831 9.74246C20.7807 9.67706 20.7952 9.61215 20.8252 9.554C20.8552 9.49585 20.8997 9.44644 20.9544 9.41054C21.0091 9.37464 21.0722 9.35348 21.1375 9.34911C21.2028 9.34473 21.2681 9.35729 21.3271 9.38557C22.2939 9.94903 23.2489 10.5316 24.205 11.1129C25.9356 12.0125 27.6684 12.908 29.3901 13.8278C27.1727 12.2706 24.9963 10.6577 22.8609 8.98926C22.7979 8.92715 22.7587 8.84493 22.7501 8.75689C22.7414 8.66885 22.7639 8.58057 22.8136 8.50738C22.8633 8.4342 22.9371 8.38074 23.0221 8.35631C23.1071 8.33188 23.198 8.33801 23.279 8.37365C26.5778 10.1979 29.6425 12.4167 32.4055 14.9811C33.9155 15.9966 35.4361 16.9951 36.9818 17.9572C37.3864 18.2086 37.0765 18.8703 36.6452 18.6307C35.5871 18.044 34.5193 17.476 33.4572 16.8963C33.4097 16.8988 33.3622 16.8908 33.318 16.8729C33.2739 16.855 33.2342 16.8276 33.2019 16.7927C33.1732 16.767 33.1449 16.7416 33.1205 16.7136C32.7129 16.4918 32.305 16.27 31.8968 16.0482C33.3907 17.0581 34.8698 18.0881 36.3342 19.1382C36.637 19.0557 36.9391 18.974 37.2433 18.9035C37.7124 18.798 37.9468 19.514 37.473 19.6205C37.3579 19.6468 37.2456 19.6801 37.1311 19.7083C37.196 19.7635 37.2372 19.8416 37.2462 19.9263C37.2552 20.011 37.2314 20.096 37.1796 20.1636C37.4265 20.117 37.6689 20.0542 37.917 20.014C38.2976 19.9526 38.445 20.5211 38.1409 20.7069C37.2397 21.2447 36.2805 21.6785 35.2815 22C36.7374 21.699 38.199 21.4247 39.6557 21.1542C40.1157 21.0665 40.3667 21.7494 39.8853 21.8712C36.5103 22.7202 33.1326 23.5564 29.7522 24.3796C28.7352 24.8329 27.704 25.2499 26.6585 25.6307C26.2678 25.7898 25.8808 25.9583 25.487 26.1108C25.4126 26.1405 25.33 26.1419 25.2546 26.1148C24.3839 26.4001 23.5066 26.6672 22.6195 26.9003C22.2309 27.0019 21.9028 26.4327 22.3017 26.2245C22.3689 26.1896 22.4385 26.1614 22.5061 26.1268C22.1445 26.2129 21.7842 26.3025 21.4225 26.3885C21.3362 26.4132 21.2439 26.4063 21.1622 26.3692C21.0804 26.332 21.0146 26.267 20.9764 26.1857C20.9382 26.1045 20.9301 26.0123 20.9536 25.9256C20.9771 25.839 21.0307 25.7635 21.1048 25.7128C23.5894 23.6256 26.7337 23.0253 29.8669 22.4662C30.722 21.7848 31.6356 21.1804 32.5971 20.6599C24.6968 20.3498 16.7948 20.1251 8.8911 19.9857C8.76256 19.9854 8.63605 19.9853 8.50768 19.9882C6.15207 19.9744 3.79685 19.9405 1.44202 19.8862C0.959808 19.8739 0.913002 19.1282 1.40005 19.1334ZM18.8969 18.242C16.5917 18.1937 14.286 18.1781 11.98 18.1951C14.2862 18.2005 16.5915 18.2159 18.8969 18.242ZM4.95559 19.1023C4.92348 19.1369 4.88525 19.1654 4.84281 19.1862C6.5489 19.2107 8.2547 19.225 9.96023 19.2292L8.93362 19.1533C7.62131 19.117 6.30903 19.0765 4.99679 19.0318C4.98585 19.0568 4.97202 19.0804 4.95559 19.1023ZM23.2535 25.1743C24.3173 24.9202 25.3806 24.6638 26.4434 24.4052C27.4189 24.0457 28.411 23.733 29.4087 23.4406C29.3614 23.4119 29.3199 23.3746 29.2863 23.3307C27.7784 23.5806 26.2939 23.9557 24.8482 24.4522C24.2999 24.654 23.7669 24.8953 23.2535 25.1743ZM33.01 21.2824C33.735 21.0253 34.4694 20.7981 35.2133 20.6008L35.2395 20.5861C35.2994 20.551 35.3681 20.5334 35.4376 20.5353C35.8337 20.4338 36.2335 20.3545 36.6335 20.2708C36.4669 20.1761 36.3041 20.0756 36.1391 19.9792C35.5899 20.1484 35.048 20.3401 34.5188 20.5609C34.4907 20.6117 34.4483 20.6532 34.3968 20.6803C34.3454 20.7074 34.2872 20.7189 34.2294 20.7133L34.1767 20.7118C33.7793 20.8877 33.3919 21.0787 33.0108 21.2815L33.01 21.2824ZM26.9648 19.6947C29.3164 19.774 31.6674 19.8619 34.0178 19.9584C34.4268 19.7806 34.8444 19.6213 35.2666 19.4737C34.7095 19.151 34.1532 18.8282 33.6002 18.4992C33.6262 18.5527 33.6403 18.6113 33.6413 18.6708C33.6423 18.7304 33.6304 18.7894 33.6062 18.8438C33.641 18.8965 33.6611 18.9576 33.6642 19.0206C33.6673 19.0837 33.6534 19.1464 33.624 19.2023C33.5945 19.2582 33.5506 19.3051 33.4968 19.3381C33.4431 19.3712 33.3814 19.3892 33.3182 19.3902C33.078 19.4031 32.8343 19.413 32.5932 19.4251C32.5492 19.4678 32.4978 19.5023 32.4416 19.5268C32.2118 19.5998 31.9712 19.6325 31.7303 19.6236C30.8124 19.6583 29.8931 19.6369 28.9759 19.5929C28.2406 19.6247 27.5056 19.6621 26.7705 19.6903C26.8356 19.69 26.9007 19.6913 26.9651 19.6935L26.9648 19.6947Z" fill="white"/>
</g>
<defs>
<clipPath id="clip0_1142_1362">
<rect width="25.2873" height="31.7066" fill="white" transform="matrix(-0.668239 0.743947 0.743947 0.668239 17 0)"/>
</clipPath>
</defs>
</svg>
