<svg width="82" height="81" viewBox="0 0 82 81" fill="none" xmlns="http://www.w3.org/2000/svg">
<g filter="url(#filter0_d_2030_6817)">
<path d="M54.7294 45.2055C54.1697 47.2485 52.6705 48.8153 50.4019 48.8585C50.0566 48.8342 49.7092 48.8328 49.3685 48.7801C48.8736 48.7045 48.6857 48.4323 48.7545 47.9245C48.7797 47.7381 48.8253 47.5497 48.8955 47.3754C49.0635 46.9614 49.2329 46.5461 49.434 46.1483C50.1525 44.7294 50.8233 43.2923 51.2534 41.7478C51.4254 41.1264 51.608 40.5031 51.8515 39.9081C52.2729 38.8796 53.0463 38.7485 53.8157 39.5421C54.4595 40.2053 54.7817 41.0305 54.9431 41.9301C55.1416 43.039 55.0231 44.1311 54.7287 45.2062M37.7489 44.31C37.9097 43.1538 38.7281 42.515 39.8601 42.6622C40.128 42.6966 40.3946 42.7533 40.6527 42.8324C41.5901 43.1194 42.5283 43.4057 43.4565 43.7225C44.0877 43.9379 44.7261 44.154 45.3195 44.4532C46.1545 44.876 46.5084 45.5912 46.4072 46.436C46.2445 47.811 45.264 48.7113 43.559 48.7842C43.2481 48.7558 42.6322 48.7207 42.0222 48.643C40.5865 48.4587 39.3705 47.8394 38.4615 46.667C37.9289 45.9802 37.6239 45.2062 37.7483 44.31M56.0632 37.589C55.9428 37.3296 55.8144 37.0777 55.6808 36.8306C55.8118 36.7245 55.8925 36.5537 55.8634 36.3639C55.4148 33.3883 53.4942 24.4015 43.4942 26.1905C35.2561 27.6647 31.311 32.3435 31.3156 36.3457C31.3156 36.5969 31.5763 36.7576 31.7979 36.6475C35.1396 34.9828 39.0172 33.8556 42.3305 34.2298C42.4787 34.2467 42.4727 34.4662 42.3239 34.4729C38.7089 34.6512 34.7255 36.2092 31.5888 38.1049C28.3199 40.081 25.9713 42.4197 25.9243 43.9393C25.8614 45.9511 32.2623 46.251 34.3702 46.0875C34.3636 46.072 34.3563 46.0524 34.3497 46.0369C34.6103 46.4482 34.8836 46.8426 35.1621 47.2079C35.3632 47.4713 35.4234 47.8185 35.3216 48.1365C35.0364 49.0179 35.3149 49.9843 36.0718 50.4969C36.8756 51.0419 37.7906 51.2452 38.7215 51.3958C38.83 51.4133 38.9398 51.4201 39.0483 51.437C39.258 51.4694 39.3679 51.5633 39.3718 51.6997C39.3341 51.805 39.2428 51.9333 39.0907 52.0927C38.5382 52.6708 38.2749 53.6372 39.2613 54.1201C40.2484 54.603 40.787 53.8513 40.8922 53.7176C40.8922 53.7176 40.5111 55.5302 43.2071 55.5431C44.1148 55.5431 44.8644 54.992 45.1409 54.5091C45.1409 54.5091 44.8379 56.107 46.8637 55.9456C48.7519 55.7957 49.3017 54.549 49.3149 53.2388C49.3202 53.1794 49.3262 53.1199 49.3295 53.0605C49.3573 52.6195 49.5835 52.4101 50.0235 52.3716C50.6288 52.319 51.2454 52.2987 51.8323 52.1562C53.4194 51.7706 54.4522 50.6718 54.994 49.0955C55.2104 48.4688 55.4492 47.8515 55.7522 47.2647C56.5455 45.7283 56.8161 44.0561 56.906 42.3535C56.994 40.6969 56.7625 39.0896 56.0625 37.5883" fill="#EBE8E0"/>
</g>
<defs>
<filter id="filter0_d_2030_6817" x="0.923828" y="0.957031" width="81" height="80" filterUnits="userSpaceOnUse" color-interpolation-filters="sRGB">
<feFlood flood-opacity="0" result="BackgroundImageFix"/>
<feColorMatrix in="SourceAlpha" type="matrix" values="0 0 0 0 0 0 0 0 0 0 0 0 0 0 0 0 0 0 127 0" result="hardAlpha"/>
<feOffset/>
<feGaussianBlur stdDeviation="12.5"/>
<feComposite in2="hardAlpha" operator="out"/>
<feColorMatrix type="matrix" values="0 0 0 0 1 0 0 0 0 1 0 0 0 0 1 0 0 0 1 0"/>
<feBlend mode="normal" in2="BackgroundImageFix" result="effect1_dropShadow_2030_6817"/>
<feBlend mode="normal" in="SourceGraphic" in2="effect1_dropShadow_2030_6817" result="shape"/>
</filter>
</defs>
</svg>
