<svg width="130" height="14" viewBox="0 0 130 14" fill="none" xmlns="http://www.w3.org/2000/svg">
<path d="M8.60002 13.229C7.729 13.5196 6.79194 13.6302 5.88047 13.6154C4.89057 13.5989 3.82719 13.5411 2.94709 13.0366C1.10847 11.9815 0.735291 9.33048 0.58338 7.42746C0.500819 6.38554 0.519808 5.33537 0.642823 4.29759C0.756757 3.33823 0.869865 2.28393 1.63768 1.60363C1.95224 1.3254 2.34275 1.15532 2.75307 1.07937C3.17661 1.00176 3.6794 1.01085 4.26063 1.10744C4.98716 1.23376 5.35456 1.6284 5.36281 2.29053C5.36942 2.77764 5.05982 3.77002 4.43566 5.27015C3.83214 6.71991 3.28311 8.18124 3.74793 9.75649C3.84948 10.1024 3.99561 10.4426 4.23339 10.7142C4.70976 11.2607 5.43877 11.2566 6.10916 11.2484C7.35418 11.2335 8.68918 10.5507 9.03924 9.2603C9.12923 8.92924 9.1218 8.57835 9.08465 8.23738C8.90714 6.61506 7.95357 5.24868 7.18493 3.85258C6.72919 3.02945 6.49967 2.4152 6.49472 2.01148C6.48812 1.50373 6.8002 1.18918 7.43178 1.06699C7.90733 0.978648 8.39444 0.972867 8.89228 1.04965C10.0135 1.23293 10.7945 1.95369 11.2345 3.21191C11.5565 4.11017 11.7274 5.42371 11.7489 7.15418C11.753 7.43406 11.7514 7.7965 11.7464 8.2415C11.7431 8.80126 11.7423 9.14802 11.7439 9.28259C11.7596 10.677 10.7648 12.1631 9.57836 12.8071C9.26628 12.9772 8.93852 13.1159 8.60167 13.2282" fill="currentColor"/>
<path d="M26.1369 6.08083C26.2863 7.56527 26.1352 8.95477 25.6828 10.2501C25.1792 11.6545 24.4271 12.6106 23.4256 13.1175C22.6553 13.5088 21.5308 13.6054 20.6805 13.5047C19.0499 13.3107 18.2094 11.941 17.7264 10.5069C17.3871 9.1042 17.047 7.69654 16.7068 6.2831C16.5599 5.6705 16.2973 4.46017 15.5667 4.26945C15.3314 4.20753 15.0829 4.29504 14.8682 4.40898C14.5702 4.56584 14.2977 4.78133 14.1169 5.06451C13.4036 6.18403 14.7345 7.72874 15.3751 8.55765C16.3923 9.87119 16.9818 10.7595 17.1436 11.2219C17.4738 12.116 17.1221 12.76 16.0893 13.1563C15.7887 13.2702 15.3033 13.3189 14.6354 13.3032C13.591 13.2735 12.7167 12.7063 12.0116 11.6C11.3594 10.6035 10.959 9.36839 10.8103 7.89469C10.6593 6.39951 10.8062 5.07772 11.2529 3.9293C11.5707 3.09296 12.1239 2.20048 12.9875 1.84712C14.0542 1.41037 15.3049 1.41863 16.3997 1.75465C17.6265 2.13113 18.5364 3.07893 19.0169 4.25376C19.3075 4.96379 19.6022 6.43914 19.9011 8.67819C19.9894 9.33207 20.0505 10.4871 20.7581 10.8016C20.9554 10.8892 21.1866 10.876 21.3905 10.8074C21.762 10.6811 22.1401 10.4004 22.3325 10.0561C22.6231 9.53847 22.3763 8.94073 22.1377 8.45362C21.7983 7.75846 21.3616 7.10871 20.9191 6.47547C19.9515 5.08845 19.4363 4.09277 19.3752 3.4843C19.2241 1.9916 21.2303 1.43927 22.3779 1.37074C23.3728 1.3113 24.2124 1.78437 24.8258 2.54558C24.8556 2.58274 24.8853 2.62154 24.915 2.65952C25.5879 3.55035 25.9949 4.69051 26.1352 6.08248" fill="currentColor"/>
<path d="M38.3077 12.5593C38.0559 12.9953 37.4747 13.2322 36.5641 13.271C35.5808 13.3123 34.8253 12.8623 34.2978 11.9195C33.9395 11.0427 33.5812 10.1717 33.2228 9.30563C32.7894 8.38095 32.1859 7.95494 31.4106 8.02924C30.3572 8.12584 29.8428 8.45856 29.8667 9.02823C29.8758 9.23545 29.9625 9.45919 30.1285 9.70109C30.2275 9.84227 30.5347 10.2179 31.0474 10.8289C31.3198 11.1599 31.461 11.4283 31.4709 11.6347C31.5006 12.3389 30.7006 12.9614 30.0987 13.143C28.6036 13.5947 27.2826 12.2407 26.6395 11.046C26.1325 10.1023 25.8535 9.01502 25.8006 7.78321C25.7428 6.4061 25.9748 5.14705 26.4966 4.00524C26.8962 3.1045 27.5105 2.27064 28.3352 1.71253C28.6969 1.46815 29.1262 1.30055 29.5621 1.32367C30.0806 1.35091 30.8311 1.70014 30.8575 2.29706C30.8921 3.09624 30.069 3.81535 29.799 4.51794C29.6727 4.84488 29.6273 5.21557 29.7446 5.54582C29.8329 5.79432 30.0079 6.00485 30.2119 6.17245C30.5132 6.42096 30.9945 6.68928 31.385 6.52003C31.7599 6.35739 32.0224 5.9644 32.2263 5.63003C33.0635 4.26283 33.6934 2.70738 34.8732 1.57795C35.466 1.01076 36.3007 0.611168 37.1024 0.789499C37.3096 0.835733 37.511 0.92077 37.6696 1.06195C37.9569 1.31954 38.0832 1.77197 38.0989 2.1468C38.1228 2.71646 37.7818 3.23329 37.0759 3.69893C36.3981 4.09027 35.7145 4.48244 35.026 4.8746C34.259 5.37409 33.8321 5.93633 33.7446 6.56214C33.7281 6.6868 33.7232 6.8123 33.7289 6.93614C33.7603 7.68166 34.292 8.36361 35.3248 8.98447C36.1744 9.46662 37.0248 9.9496 37.8743 10.4318C38.6363 11.032 38.78 11.7412 38.3069 12.5602" fill="currentColor"/>
<path d="M53.7675 0.852007C54.5303 0.98493 55.1982 1.46461 55.5788 2.17628C55.9512 2.86649 56.1287 3.74493 56.1105 4.81162C56.08 6.65354 55.6416 8.55822 54.6682 10.1368C53.5503 11.9506 52.0015 12.7052 49.9722 13.0487C49.1556 13.1874 48.3201 13.3154 47.5746 12.8373C47.09 12.5269 46.7779 11.9977 46.6185 11.4445C46.219 10.0575 46.4741 8.45336 46.6524 7.04901C46.7952 5.92206 46.8497 5.15094 46.8142 4.73566C46.7729 4.08261 46.5608 3.76309 46.1768 3.77713C45.3686 3.79529 44.9558 4.30139 44.9393 5.29542C44.9335 5.67933 45.0433 6.55612 45.2695 7.92745C45.4718 9.2154 45.7624 10.7073 45.0573 11.8904C44.259 13.2311 42.7621 13.5787 41.3066 13.4896C40.126 13.4177 39.1006 12.4534 38.2296 10.5942C37.4287 8.88186 37.0432 7.11423 37.0729 5.29129C37.1067 3.2504 37.6896 2.14656 38.8215 1.97814C39.3829 1.89392 39.8205 1.91374 40.2589 1.98474C41.2818 2.18784 41.6707 2.87144 41.6517 4.04298C41.6393 4.79345 41.5815 5.53485 41.4238 6.27046C41.2364 7.14561 40.8121 7.97617 40.8137 8.89259C40.8154 9.47712 41.0061 10.1104 41.4362 10.5232C41.8853 10.9541 42.7349 11.1151 43.2426 10.6875C44.055 10.003 43.5572 8.6383 43.4102 7.76316C43.2517 6.82032 43.1824 5.86509 43.165 4.90904C43.1485 4.09582 43.0627 3.23058 43.4755 2.48836C44.0005 1.54387 45.054 1.3804 46.0464 1.39608C46.9207 1.41012 47.7405 1.60744 48.2252 2.39011C49.1441 3.87538 48.9781 5.52824 48.818 7.18606C48.7131 8.28329 48.3614 9.5861 48.7858 10.6553C48.832 10.7717 48.8931 10.8864 48.9913 10.9632C49.1573 11.0945 49.3926 11.0912 49.5998 11.0507C50.3131 10.912 50.9266 10.3853 51.1759 9.70251C51.5383 8.7093 51.1734 7.47832 50.9703 6.48264C50.7301 5.30863 50.6153 4.43101 50.6244 3.85061C50.6475 2.43882 51.4483 1.07079 52.9427 0.842927C53.2234 0.800821 53.5016 0.804121 53.7675 0.851181" fill="currentColor"/>
<path d="M69.182 4.41897C69.5675 5.86048 69.641 7.25576 69.4024 8.60727C69.2208 9.58149 68.8674 10.5598 68.1888 11.3021C67.4754 12.0839 66.3733 12.4629 65.3396 12.595C64.5214 12.6998 63.7544 12.5685 63.0907 12.0608C62.4401 11.5621 61.9687 10.8529 61.5897 10.1363C61.0299 8.80625 60.4685 7.47124 59.9063 6.13128C59.6652 5.55666 59.3639 4.77646 58.7826 4.46273C58.0743 4.07882 57.2586 4.86893 57.0943 5.53189C56.9878 5.96121 57.1075 6.42272 57.3263 6.80745C57.7217 7.50261 58.3781 8.05082 58.956 8.58994C60.1713 9.7235 60.8954 10.5053 61.1282 10.9363C61.5971 11.7652 61.3536 12.4587 60.3975 13.0144C60.1185 13.1754 59.6479 13.3017 58.9857 13.3925C57.9504 13.5304 56.996 13.1101 56.1225 12.1318C55.3184 11.2525 54.7256 10.0983 54.3417 8.66672C53.7654 6.51271 53.5838 3.13846 56.0425 2.07838C58.17 1.16113 60.6353 1.75805 61.8605 3.75932C62.2609 4.4132 62.7885 5.82168 63.4424 7.98477C63.6058 8.52389 63.7784 9.0886 64.1185 9.54764C64.2795 9.76477 64.514 9.94723 64.7831 9.96787C65.584 10.0281 66.2659 8.97715 66.0744 8.26134C65.9324 7.7313 65.2727 6.85947 64.0954 5.64665C62.9173 4.43301 62.2502 3.53145 62.0917 2.94114C61.8754 2.13039 62.2964 1.46 63.3557 0.929961C64.2754 0.471749 65.1646 0.0886663 66.1958 0.458538C66.9033 0.71365 67.4969 1.22718 67.9493 1.82905C68.5256 2.59604 68.9351 3.49925 69.182 4.42145" fill="currentColor"/>
<path d="M111.384 5.62695C111.582 7.10561 111.476 8.50005 111.067 9.80864C110.812 10.6227 110.399 11.4343 109.793 12.0526C109.083 12.7775 108.174 13.1028 107.179 13.2093C106.244 13.31 105.281 13.2217 104.543 12.5909C103.858 12.0048 103.433 11.156 103.124 10.3263C102.738 8.93515 102.352 7.53905 101.965 6.138C101.579 4.73694 101.098 4.07481 100.523 4.15242C100.056 4.21434 99.5544 4.61641 99.3274 5.01848C98.6826 6.16607 100.034 7.63895 100.708 8.45465C101.16 9.0012 101.608 9.55436 102.016 10.1356C102.366 10.6342 102.773 11.2229 102.686 11.8628C102.588 12.5835 101.857 12.9831 101.211 13.1243C100.292 13.3257 99.3043 13.2564 98.5134 12.7181C97.838 12.259 97.3468 11.5672 96.9835 10.8464C96.7424 10.3676 96.5525 9.86231 96.4081 9.3463C96.2801 8.88479 96.1876 8.41502 96.1249 7.94029C95.9251 6.45173 96.0291 5.1258 96.4378 3.96335C96.7309 3.12949 97.2015 2.3303 97.9891 1.87952C98.9129 1.35278 100.075 1.36021 101.094 1.53112C101.927 1.67064 102.698 2.0529 103.289 2.66054C103.673 3.05601 103.984 3.53156 104.208 4.03353C104.938 5.66575 104.943 7.52749 105.404 9.23154C105.519 9.65756 105.735 10.4204 106.229 10.5575C106.361 10.5938 106.5 10.5773 106.633 10.5443C107.294 10.3808 107.882 9.788 107.809 9.07137C107.757 8.56693 107.455 8.08148 107.194 7.65546C106.883 7.15019 106.538 6.66556 106.183 6.19083C105.171 4.83684 104.624 3.85767 104.542 3.25168C104.459 2.62917 104.78 2.11069 105.295 1.77962C106.012 1.31893 106.87 1.01016 107.729 1.01924C108.686 1.02997 109.46 1.51543 110.052 2.24526C110.754 3.11297 111.197 4.23993 111.384 5.62612" fill="currentColor"/>
<path d="M120.586 12.0331C120.481 13.0238 119.624 13.5679 118.015 13.6637C116.326 13.7644 114.515 13.6323 112.978 12.8802C111.116 11.9695 110.351 10.2316 110.246 8.21634C110.137 6.07802 110.611 3.39562 112.322 1.93017C113.721 0.732215 116.015 0.384637 117.78 0.689286C118.648 0.838721 120.235 1.31592 120.037 2.47837C119.97 2.86806 119.717 3.20904 119.401 3.44516C118.819 3.8786 118.046 4.07097 117.335 3.98345C116.628 3.89676 115.961 3.55166 115.249 3.51451C114.606 3.48066 114.049 3.89016 113.767 4.45405C113.496 4.99317 113.427 5.73539 113.806 6.23488C114.354 6.95564 115.443 6.82189 116.21 6.60063C116.736 6.44871 117.24 6.22828 117.763 6.06398C118.062 5.96986 118.375 5.89226 118.685 5.93436C119.118 5.9938 119.506 6.30011 119.664 6.70878C119.738 6.8995 119.763 7.11416 119.707 7.31148C119.654 7.49724 119.533 7.65823 119.386 7.78372C118.921 8.18166 118.246 8.21469 117.647 8.10901C116.847 7.96701 116.051 7.63428 115.226 7.6574C113.506 7.70611 113.401 10.1639 114.426 11.0762C114.522 11.1629 114.628 11.2397 114.744 11.2983C115.459 11.6583 116.396 11.2438 117.074 10.9607C117.817 10.6502 118.553 10.2795 119.358 10.1681C119.685 10.1227 120.047 10.1772 120.278 10.4108C120.659 10.7955 120.638 11.5336 120.585 12.0331" fill="currentColor"/>
<path d="M128.28 3.87403C128.237 4.54442 127.693 4.98777 127.079 5.14216C126.704 5.2371 126.259 5.2693 125.891 5.10253C125.468 4.91099 125.362 4.47507 125.319 4.05236C125.262 3.50003 125.137 2.96421 124.532 2.79083C124.323 2.73139 124.104 2.72396 123.889 2.72726C122.501 2.74707 120.308 3.40013 121.11 5.23297C121.458 6.02886 122.301 6.85777 123.162 7.04271C123.731 7.16489 124.3 7.0138 124.85 6.89327C125.454 6.75952 126.079 6.66292 126.697 6.62082C127.239 6.58366 127.759 6.85364 128.16 7.2103C128.629 7.63879 128.956 8.15479 129.143 8.75749C129.481 9.86297 129.306 10.9082 128.616 11.8915C128.205 12.4777 127.695 12.9491 127.051 13.2719C126.464 13.5658 125.82 13.7367 125.171 13.854C124.228 14.024 123.163 14.0934 122.248 13.6979C121.716 13.4684 121.231 13.1332 120.818 12.7237C120.249 12.159 119.737 11.4919 119.867 10.6547C120.013 9.71932 120.847 9.19753 121.702 8.99856C122.122 8.90031 122.516 8.92096 122.883 9.05966C123.251 9.19919 123.475 9.42375 123.554 9.73418C123.725 10.4021 123.139 10.9544 123.081 11.5802C123.07 11.695 123.081 11.8155 123.129 11.9212C123.216 12.107 123.411 12.2217 123.607 12.2812C124.346 12.5033 125.156 12.4785 125.866 12.211C126.635 11.922 127.322 11.3474 127.656 10.5903C127.923 9.98434 128.039 9.16864 127.544 8.62291C127.272 8.32239 126.832 8.23653 126.434 8.26212C126.011 8.28854 125.597 8.39505 125.177 8.44046C124.706 8.49082 124.234 8.53127 123.758 8.54035C123.165 8.55191 122.577 8.58906 121.993 8.43468C120.647 8.07801 119.378 6.93703 119.025 5.56157C118.574 3.79725 119.756 2.3095 121.186 1.4872C122.789 0.564994 124.636 0.428771 126.357 1.25685C126.59 1.36914 126.816 1.49628 127.035 1.63498C127.76 2.09815 128.258 2.8833 128.281 3.75101C128.281 3.79394 128.281 3.83605 128.279 3.87733" fill="currentColor"/>
<path d="M80.9285 11.4583C79.3805 11.9793 77.783 11.9975 77.3041 10.4495C76.8253 8.90144 78.3939 7.99327 79.3194 7.78109C79.3194 7.78109 80.9178 7.32948 82.0365 8.31691C83.1568 9.30516 82.4774 10.9382 80.9285 11.4583ZM78.3006 4.22108C78.5128 3.26502 79.359 2.97771 80.0278 2.86956C80.2201 2.83819 80.4439 2.79856 80.6775 2.77297C81.305 2.70361 82.0018 2.73664 82.3486 3.31456C82.9834 4.37464 81.8548 5.27703 81.182 5.68488C80.4298 6.14144 78.985 6.9753 78.4228 5.82688C78.2304 5.43389 78.1982 4.67764 78.2998 4.22108M86.6285 8.15509C86.091 6.49893 84.7841 7.24362 84.1476 6.70368C84.1459 6.70202 84.1434 6.70037 84.1418 6.69955C83.8487 6.45187 83.7306 6.05227 83.871 5.69478C84.2986 4.61241 86.328 3.25842 84.8766 1.71866C84.1748 0.973142 83.1882 0.700692 82.2123 0.646202C82.1661 0.6429 82.1182 0.640421 82.0712 0.63877C80.4034 0.559511 78.9132 0.931035 77.5386 1.9036C74.7076 3.90735 73.8011 7.55323 74.5251 10.8391C74.8777 12.0751 75.6546 12.923 76.7633 13.3201C76.9648 13.3985 77.1844 13.4646 77.4213 13.5149C77.8969 13.6181 78.4459 13.6635 79.0792 13.6371C79.7438 13.5958 80.4043 13.5174 81.0623 13.4059C82.8315 13.1063 84.5959 12.407 85.7451 10.9712C86.3891 10.1679 86.9447 9.12931 86.6293 8.15592" fill="currentColor"/>
<path d="M94.7669 6.3743C94.6422 5.68656 94.4226 5.02773 94.0973 4.45311C93.1115 2.7119 90.4415 2.1348 88.9678 3.61181C88.3015 4.27973 88.091 5.21514 88.1083 6.13239C88.1174 6.59391 88.1802 7.12972 88.2991 7.73902C88.5946 9.22676 89.1833 10.2835 90.0642 10.911C90.6223 11.2999 91.301 11.498 91.9804 11.4699C92.7086 11.4386 93.6614 11.2148 94.1823 10.6757C94.6744 10.1663 94.7751 9.41088 94.8469 8.73801C94.9311 7.95203 94.9089 7.15202 94.7677 6.3743M97.19 6.02919C97.2767 6.63932 97.3246 7.19247 97.3328 7.68536C97.3725 9.81955 96.5006 12.0974 94.3615 12.8966C93.597 13.1822 92.8118 13.3886 91.9961 13.453C91.1169 13.5232 90.2401 13.4052 89.3641 13.0997C88.5467 12.8115 87.807 12.4062 87.2035 11.7771C85.7628 10.2745 85.1461 7.83231 85.3566 5.78894C85.4284 5.09295 85.6101 4.40687 85.9188 3.77694C86.1228 3.36248 86.3762 2.98105 86.6594 2.61696C86.9219 2.27929 87.3603 1.93336 87.9771 1.57835C89.5441 0.687516 91.2225 0.500931 92.9852 0.780812C94.0403 0.94841 94.9353 1.3125 95.6453 2.13233C96.3215 2.91335 96.7194 3.8983 96.9671 4.88985C97.0612 5.2655 97.1339 5.64694 97.19 6.03002" fill="currentColor"/>
</svg>
