<svg width="24" height="37" viewBox="0 0 24 37" fill="none" xmlns="http://www.w3.org/2000/svg">
<g clip-path="url(#clip0_1256_1153)">
<path d="M8.63632 27.0113C9.06543 24.7157 9.52676 22.4261 10.0203 20.1424C10.2865 18.917 10.5621 17.6934 10.847 16.4715C10.9071 16.2132 10.511 16.1028 10.4505 16.3617C9.75608 19.3401 9.11902 22.3314 8.53937 25.3354C8.7627 23.4625 8.99935 21.5914 9.26543 19.7244C9.47565 18.2476 9.6994 16.7731 9.93667 15.3006C10.0107 15.2696 10.0838 15.236 10.1581 15.2049C10.3991 15.1048 10.2935 14.7058 10.0488 14.8074C9.2834 15.1253 8.52419 15.4585 7.76901 15.802C7.8099 15.6612 7.69157 15.4753 7.52121 15.5356C5.84201 16.1367 4.23065 16.9138 2.71383 17.8539L2.20242 18.0109C1.90134 18.1041 1.60057 18.1974 1.29887 18.2881C1.82855 16.059 2.40108 13.8415 3.01645 11.6356C3.04172 11.6494 3.06988 11.657 3.09865 11.6579C3.12742 11.6587 3.15598 11.6527 3.18199 11.6403C3.208 11.6279 3.23072 11.6096 3.2483 11.5867C3.26588 11.5639 3.27783 11.5371 3.28315 11.5088C3.69937 9.52253 4.21871 7.55948 4.83905 5.62762C4.52136 7.47804 4.04971 9.2985 3.42905 11.0699C3.34046 11.3207 3.7388 11.4286 3.82522 11.1796C4.57747 9.04429 5.11266 6.83814 5.42262 4.59479C5.42954 4.5418 5.41741 4.48806 5.3884 4.44323C5.35939 4.3984 5.3154 4.36541 5.26434 4.35019C5.56893 3.46894 5.89345 2.59556 6.2379 1.73006C6.33671 1.4839 5.93929 1.37698 5.84141 1.62034C5.72835 1.90318 5.61994 2.18757 5.51121 2.47196C5.47284 2.47594 5.43647 2.49114 5.40662 2.51568C5.37678 2.54021 5.35477 2.57299 5.34333 2.60996C3.98041 6.68199 2.7639 10.7992 1.69381 14.9615C1.4745 15.8153 1.26851 16.6726 1.06191 17.5298C1.02282 17.5426 0.988263 17.5665 0.962426 17.5986C0.936589 17.6307 0.920576 17.6696 0.916323 17.7107L0.880702 18.0177C0.658298 17.9574 0.333986 18.0771 0.352571 18.377C0.372705 18.6878 0.727683 18.8007 0.987257 18.7811C1.14192 18.7658 1.29479 18.7358 1.44383 18.6916C1.21617 18.8526 0.989735 19.0158 0.767022 19.1842C0.558558 19.3424 0.763305 19.7008 0.974557 19.5404C1.58973 19.0742 2.22782 18.6406 2.88171 18.235L2.94366 18.2163C2.90903 18.2449 2.87785 18.2775 2.85074 18.3133C2.69772 18.5191 2.75378 18.851 3.0527 18.8622C3.26519 18.8703 3.48232 18.6543 3.34386 18.4491C3.41511 18.41 3.48728 18.3721 3.56069 18.3338C3.70524 18.2568 3.8498 18.1801 3.99435 18.1038C4.28345 17.9515 4.5739 17.8011 4.86569 17.6525C4.90998 17.6299 4.9552 17.6087 4.9995 17.5863L6.53743 17.1145C6.58017 17.2559 6.74992 17.3529 6.86205 17.2078C6.94366 17.1031 7.03804 17.0091 7.143 16.928L8.17819 16.6104C8.22442 16.5956 8.26397 16.5649 8.28989 16.5238C8.31582 16.4826 8.32646 16.4336 8.31995 16.3854C8.31344 16.3372 8.2902 16.2928 8.2543 16.26C8.21841 16.2273 8.17215 16.2083 8.12368 16.2063C8.03615 16.2027 7.94848 16.2053 7.86132 16.2141C8.4038 15.9673 8.94897 15.7273 9.49682 15.494C9.43487 15.8744 9.38128 16.2554 9.32242 16.6362C9.29376 16.6059 9.25707 16.5845 9.21667 16.5744C9.17627 16.5643 9.13384 16.5661 9.09439 16.5794C9.05494 16.5927 9.0201 16.6171 8.99399 16.6496C8.96788 16.6821 8.95158 16.7215 8.947 16.763C8.64221 19.8918 8.33761 23.0214 8.03323 26.1516C7.84273 27.7716 7.66524 29.3952 7.50789 31.0208L7.5051 31.0519C7.3939 31.7105 7.27836 32.3685 7.17242 33.028C7.16495 33.0728 7.17188 33.1188 7.19221 33.1594C7.21253 33.1999 7.2452 33.2329 7.28548 33.2536C7.21878 33.6969 7.15229 34.1402 7.086 34.5836C7.07919 34.6245 7.08433 34.6666 7.10082 34.7046C7.11732 34.7427 7.14444 34.7751 7.17893 34.7981C7.16003 35.0305 7.13649 35.2624 7.11698 35.4949C7.09622 35.7613 7.50293 35.756 7.52833 35.4949L7.83808 32.2963C8.10592 30.5343 8.372 28.7726 8.63632 27.0113ZM4.9679 17.0654C4.97151 17.0871 4.97841 17.108 4.98835 17.1276C4.94127 17.1512 4.89542 17.1761 4.84772 17.1997L4.5135 17.3023C4.66528 17.2208 4.81551 17.1413 4.9679 17.0654Z" fill="white"/>
<path d="M23.4292 1.12112C22.2634 1.40093 21.0784 1.59292 19.8841 1.69549C19.8644 1.67219 19.8396 1.65387 19.8116 1.64203C19.1721 1.38938 18.4769 1.31328 17.7982 1.42167C17.7655 1.3946 17.724 1.38074 17.6817 1.38282C16.2625 1.46362 14.84 1.46674 13.4204 1.39214C13.2928 1.36883 13.1643 1.35174 13.037 1.32625C13.0083 1.31978 12.9786 1.31968 12.9499 1.32596C12.9212 1.33225 12.8943 1.34476 12.8709 1.36261C11.1623 1.25153 9.46289 1.02705 7.78384 0.690644C7.74581 0.683583 7.70659 0.686856 7.67025 0.700124C7.63391 0.713392 7.60176 0.736171 7.57715 0.766102C7.55253 0.796032 7.53634 0.832023 7.53026 0.870345C7.52417 0.908667 7.52841 0.947924 7.54254 0.984048L6.23166 0.846359C5.99965 0.821805 5.95536 1.19664 6.17714 1.25041C6.86511 1.42011 7.55958 1.55625 8.25652 1.67622C8.07315 1.72999 8.01677 2.02029 8.24382 2.06691C9.24122 2.27221 10.2523 2.40383 11.2689 2.46071C12.5969 2.59912 13.9282 2.69143 15.2628 2.73764C15.2752 2.7767 15.3001 2.81051 15.3338 2.83366C15.3675 2.85681 15.408 2.86798 15.4487 2.86538C16.0518 2.8573 16.6536 2.8256 17.2543 2.77742C18.2015 2.77929 19.1487 2.75856 20.0959 2.71526C20.1356 2.71508 20.1744 2.70307 20.2073 2.68077C20.2401 2.65847 20.2657 2.62687 20.2806 2.58998C20.2956 2.55309 20.2993 2.51258 20.2913 2.47357C20.2833 2.43457 20.2639 2.39883 20.2356 2.37088C20.5365 2.31266 20.8359 2.24935 21.1339 2.18098C20.3023 4.60819 19.3897 7.00506 18.396 9.37156C18.3426 9.35384 18.2845 9.35715 18.2334 9.38081C18.1823 9.40447 18.1421 9.44671 18.1209 9.49899C17.5054 11.0416 16.8897 12.584 16.2739 14.126C16.189 14.3383 16.5375 14.489 16.6437 14.2926C16.4889 14.6833 16.334 15.0749 16.1856 15.4684C16.1695 15.5038 16.1663 15.5438 16.1765 15.5813C16.1868 15.6189 16.2098 15.6516 16.2417 15.6739C16.0443 16.109 15.8481 16.5441 15.6531 16.9793C15.5494 16.9656 15.445 16.9556 15.3412 16.9395C15.0841 16.8997 14.9695 17.2907 15.2322 17.3373C15.3127 17.3516 15.3942 17.3603 15.4747 17.3743C15.4159 17.5061 15.3555 17.6372 15.2966 17.769C15.1894 18.0093 15.5444 18.2194 15.6516 17.9773C15.7318 17.797 15.8142 17.618 15.8947 17.438C16.1447 17.4772 16.3947 17.5185 16.6456 17.5518L16.1147 17.6699C15.8563 17.7271 15.9657 18.1249 16.224 18.0677L17.9199 17.6904C19.1348 17.8044 20.3551 17.8486 21.575 17.8228C21.1928 19.1182 20.3156 20.1703 19.3891 21.1292C19.2224 21.3016 19.0555 21.473 18.8882 21.6436C18.8662 21.6307 18.8418 21.6224 18.8165 21.6192C18.7912 21.616 18.7655 21.618 18.741 21.625C18.7165 21.632 18.6937 21.644 18.6739 21.6601C18.6541 21.6762 18.6377 21.6962 18.6258 21.7188L18.3359 22.2161C17.6819 22.8758 17.0702 23.5763 16.5043 24.3134C15.4423 25.8084 14.4709 27.3662 13.5954 28.9784L10.6116 32.4144C9.73126 33.4287 8.85104 34.4427 7.97093 35.4566L7.62586 35.7985C7.43753 35.985 7.72808 36.2768 7.91672 36.09L8.18962 35.8196C8.20072 35.8131 8.2111 35.8054 8.22059 35.7966L8.26272 35.7481L11.0734 32.963C10.4093 33.8699 9.6497 34.7025 8.80788 35.4463C8.60747 35.6201 8.90081 35.9107 9.09874 35.7382C10.4756 34.4874 11.6593 33.0381 12.611 31.4378L12.9592 31.0928C14.6142 29.4524 16.3101 27.8442 17.9289 26.1677C18.1569 25.9315 18.4883 25.3335 17.9908 25.1731C17.7031 25.0799 17.2831 25.3596 17.5005 25.6739C17.5269 25.7127 17.5656 25.7413 17.6104 25.7551C17.6551 25.7689 17.7032 25.767 17.7468 25.7497C17.6905 25.8205 17.6296 25.8874 17.5643 25.9499C17.3944 26.1191 17.2239 26.2881 17.0529 26.4568L16.0307 27.4706L14.0207 29.4623L13.479 29.9994C13.6314 29.7387 13.7827 29.4779 13.9331 29.2168L15.4633 27.4539C16.1664 26.6439 16.8881 25.8445 17.5216 24.9776C18.1585 24.1472 18.6342 23.204 18.9238 22.1971C19.101 22.0153 19.2776 21.8332 19.4566 21.651C20.5742 20.5141 21.6735 19.2668 22.0483 17.6727C22.0563 17.6421 22.0572 17.6101 22.051 17.5791C22.0447 17.5481 22.0316 17.5189 22.0125 17.4937C21.9934 17.4686 21.9689 17.4481 21.9407 17.4339C21.9126 17.4197 21.8816 17.412 21.8501 17.4116C21.0085 17.4377 20.1675 17.4203 19.3277 17.3805L19.5728 17.3261C20.1091 17.2401 20.6398 17.1221 21.1621 16.9727C21.2138 16.9574 21.2574 16.9223 21.2836 16.8751C21.3098 16.8278 21.3165 16.7721 21.3021 16.7199C21.2878 16.6678 21.2536 16.6234 21.207 16.5963C21.1604 16.5691 21.105 16.5615 21.0528 16.5749L19.4938 16.9214C18.3643 17.1068 17.2158 17.1451 16.0766 17.0355C17.525 13.8112 19.0242 10.6098 20.5742 7.43149C21.063 6.43089 21.5568 5.43308 22.0557 4.43808C22.0795 4.39207 22.0846 4.3386 22.07 4.28889C22.2853 3.93332 22.5015 3.57838 22.723 3.22623C22.7425 3.19071 22.7514 3.15021 22.7483 3.10973C22.7453 3.06925 22.7305 3.03055 22.7058 2.99838C22.6811 2.96622 22.6476 2.94199 22.6094 2.92869C22.5711 2.91538 22.5299 2.91358 22.4906 2.9235C22.0592 3.06871 21.6683 3.31495 21.3505 3.64184C21.0327 3.96872 20.7971 4.36685 20.6631 4.80328C20.5847 5.05752 20.9815 5.16631 21.0593 4.913C21.2194 4.39705 21.5454 3.9489 21.9864 3.63867C20.8863 5.42853 19.8689 7.26562 18.934 9.14996C19.5536 7.6618 20.1427 6.16121 20.7015 4.64819C21.0147 3.79408 21.3145 2.93376 21.6075 2.0725C22.2578 1.9115 22.9019 1.72668 23.5398 1.51802C23.5896 1.50102 23.631 1.46555 23.6555 1.41888C23.68 1.37221 23.6858 1.31789 23.6716 1.26708C23.6574 1.21627 23.6244 1.17283 23.5794 1.14568C23.5343 1.11854 23.4805 1.10975 23.4292 1.12112ZM11.8642 31.5979C12.0571 31.376 12.2499 31.1539 12.4425 30.9318C12.3914 31.0151 12.3378 31.0972 12.2877 31.1805L11.8642 31.5979ZM15.34 26.9668L15.0281 27.3258C15.5032 26.5236 15.9942 25.7307 16.5328 24.9696C16.7806 24.6171 17.0473 24.2824 17.3199 23.9545L17.1861 24.1838C17.1685 24.2151 17.1595 24.2505 17.1599 24.2864C17.1604 24.3223 17.1703 24.3575 17.1886 24.3883C17.2069 24.4192 17.233 24.4446 17.2643 24.4621C17.2956 24.4796 17.3309 24.4884 17.3667 24.4878C16.737 25.3512 16.0604 26.1791 15.34 26.9678V26.9668ZM11.0081 2.01967C11.2209 2.03614 11.4337 2.05292 11.6468 2.06473C11.5127 2.05976 11.3785 2.0551 11.2441 2.04733C11.1629 2.03894 11.0855 2.02806 11.0081 2.01967ZM15.5614 2.24003L16.7122 2.36094C16.1501 2.35493 15.5882 2.34053 15.0265 2.31773C15.2059 2.29225 15.3843 2.26738 15.5614 2.24003ZM18.221 1.79184C18.2501 1.79184 18.2795 1.78998 18.309 1.78905C18.2802 1.78842 18.2507 1.78998 18.2216 1.7906L18.221 1.79184Z" fill="white"/>
<path d="M7.63632 27.0113C8.06543 24.7157 8.52676 22.4261 9.0203 20.1424C9.28648 18.917 9.56206 17.6934 9.84703 16.4715C9.90713 16.2132 9.51095 16.1028 9.45055 16.3617C8.75608 19.3401 8.11902 22.3314 7.53937 25.3354C7.7627 23.4625 7.99935 21.5914 8.26543 19.7244C8.47565 18.2476 8.6994 16.7731 8.93667 15.3006C9.0107 15.2696 9.0838 15.236 9.15814 15.2049C9.39913 15.1048 9.2935 14.7058 9.0488 14.8074C8.2834 15.1253 7.52419 15.4585 6.76901 15.802C6.8099 15.6612 6.69157 15.4753 6.52121 15.5356C4.84201 16.1367 3.23065 16.9138 1.71383 17.8539L1.20242 18.0109C0.901341 18.1041 0.60057 18.1974 0.298869 18.2881C0.828549 16.059 1.40108 13.8415 2.01645 11.6356C2.04172 11.6494 2.06988 11.657 2.09865 11.6579C2.12742 11.6587 2.15598 11.6527 2.18199 11.6403C2.208 11.6279 2.23072 11.6096 2.2483 11.5867C2.26588 11.5639 2.27783 11.5371 2.28315 11.5088C2.69937 9.52253 3.21871 7.55948 3.83905 5.62762C3.52136 7.47804 3.04971 9.2985 2.42905 11.0699C2.34046 11.3207 2.7388 11.4286 2.82522 11.1796C3.57747 9.04429 4.11266 6.83814 4.42262 4.59479C4.42954 4.5418 4.41741 4.48806 4.3884 4.44323C4.35939 4.3984 4.3154 4.36541 4.26434 4.35019C4.56893 3.46894 4.89345 2.59556 5.2379 1.73006C5.33671 1.4839 4.93929 1.37698 4.84141 1.62034C4.72835 1.90318 4.61994 2.18757 4.51121 2.47196C4.47284 2.47594 4.43647 2.49114 4.40662 2.51568C4.37678 2.54021 4.35477 2.57299 4.34333 2.60996C2.98041 6.68199 1.7639 10.7992 0.693806 14.9615C0.4745 15.8153 0.268514 16.6726 0.0619077 17.5298C0.0228168 17.5426 -0.0117369 17.5665 -0.0375739 17.5986C-0.0634108 17.6307 -0.079424 17.6696 -0.0836766 17.7107L-0.119298 18.0177C-0.341702 17.9574 -0.666014 18.0771 -0.647429 18.377C-0.627295 18.6878 -0.272317 18.8007 -0.012743 18.7811C0.14192 18.7658 0.294792 18.7358 0.443834 18.6916C0.216165 18.8526 -0.0102649 19.0158 -0.232978 19.1842C-0.441442 19.3424 -0.236695 19.7008 -0.025443 19.5404C0.589728 19.0742 1.22782 18.6406 1.88171 18.235L1.94366 18.2163C1.90903 18.2449 1.87785 18.2775 1.85074 18.3133C1.69772 18.5191 1.75378 18.851 2.0527 18.8622C2.26519 18.8703 2.48232 18.6543 2.34386 18.4491C2.41511 18.41 2.48728 18.3721 2.56069 18.3338C2.70524 18.2568 2.8498 18.1801 2.99435 18.1038C3.28345 17.9515 3.5739 17.8011 3.86569 17.6525C3.90998 17.6299 3.9552 17.6087 3.9995 17.5863L5.53743 17.1145C5.58017 17.2559 5.74992 17.3529 5.86205 17.2078C5.94366 17.1031 6.03804 17.0091 6.143 16.928L7.17819 16.6104C7.22442 16.5956 7.26397 16.5649 7.28989 16.5238C7.31582 16.4826 7.32646 16.4336 7.31995 16.3854C7.31344 16.3372 7.2902 16.2928 7.2543 16.26C7.21841 16.2273 7.17215 16.2083 7.12368 16.2063C7.03615 16.2027 6.94848 16.2053 6.86132 16.2141C7.4038 15.9673 7.94897 15.7273 8.49682 15.494C8.43487 15.8744 8.38128 16.2554 8.32242 16.6362C8.29376 16.6059 8.25707 16.5845 8.21667 16.5744C8.17627 16.5643 8.13384 16.5661 8.09439 16.5794C8.05494 16.5927 8.0201 16.6171 7.99399 16.6496C7.96788 16.6821 7.95158 16.7215 7.947 16.763C7.64221 19.8918 7.33761 23.0214 7.03323 26.1516C6.84273 27.7716 6.66524 29.3952 6.50789 31.0208L6.5051 31.0519C6.3939 31.7105 6.27836 32.3685 6.17242 33.028C6.16495 33.0728 6.17188 33.1188 6.19221 33.1594C6.21253 33.1999 6.2452 33.2329 6.28548 33.2536C6.21878 33.6969 6.15229 34.1402 6.086 34.5836C6.07919 34.6245 6.08433 34.6666 6.10082 34.7046C6.11732 34.7427 6.14444 34.7751 6.17893 34.7981C6.16003 35.0305 6.13649 35.2624 6.11698 35.4949C6.09622 35.7613 6.50293 35.756 6.52833 35.4949L6.83808 32.2963C7.10592 30.5343 7.372 28.7726 7.63632 27.0113ZM3.9679 17.0654C3.97151 17.0871 3.97841 17.108 3.98835 17.1276C3.94127 17.1512 3.89542 17.1761 3.84772 17.1997L3.5135 17.3023C3.66528 17.2208 3.81551 17.1413 3.9679 17.0654Z" fill="white"/>
<path d="M22.4292 1.12112C21.2634 1.40093 20.0784 1.59292 18.8841 1.69549C18.8644 1.67219 18.8396 1.65387 18.8116 1.64203C18.1721 1.38938 17.4769 1.31328 16.7982 1.42167C16.7655 1.3946 16.724 1.38074 16.6817 1.38282C15.2625 1.46362 13.84 1.46674 12.4204 1.39214C12.2928 1.36883 12.1643 1.35174 12.037 1.32625C12.0083 1.31978 11.9786 1.31968 11.9499 1.32596C11.9212 1.33225 11.8943 1.34476 11.8709 1.36261C10.1623 1.25153 8.46289 1.02705 6.78384 0.690644C6.74581 0.683583 6.70659 0.686856 6.67025 0.700124C6.63391 0.713392 6.60176 0.736171 6.57715 0.766102C6.55253 0.796032 6.53634 0.832023 6.53026 0.870345C6.52417 0.908667 6.52841 0.947924 6.54254 0.984048L5.23166 0.846359C4.99965 0.821805 4.95536 1.19664 5.17714 1.25041C5.86511 1.42011 6.55958 1.55625 7.25652 1.67622C7.07315 1.72999 7.01677 2.02029 7.24382 2.06691C8.24122 2.27221 9.25229 2.40383 10.2689 2.46071C11.5969 2.59912 12.9282 2.69143 14.2628 2.73764C14.2752 2.7767 14.3001 2.81051 14.3338 2.83366C14.3675 2.85681 14.408 2.86798 14.4487 2.86538C15.0518 2.8573 15.6536 2.8256 16.2543 2.77742C17.2015 2.77929 18.1487 2.75856 19.0959 2.71526C19.1356 2.71508 19.1744 2.70307 19.2073 2.68077C19.2401 2.65847 19.2657 2.62687 19.2806 2.58998C19.2956 2.55309 19.2993 2.51258 19.2913 2.47357C19.2833 2.43457 19.2639 2.39883 19.2356 2.37088C19.5365 2.31266 19.8359 2.24935 20.1339 2.18098C19.3023 4.60819 18.3897 7.00506 17.396 9.37156C17.3426 9.35384 17.2845 9.35715 17.2334 9.38081C17.1823 9.40447 17.1421 9.44671 17.1209 9.49899C16.5054 11.0416 15.8897 12.584 15.2739 14.126C15.189 14.3383 15.5375 14.489 15.6437 14.2926C15.4889 14.6833 15.334 15.0749 15.1856 15.4684C15.1695 15.5038 15.1663 15.5438 15.1765 15.5813C15.1868 15.6189 15.2098 15.6516 15.2417 15.6739C15.0443 16.109 14.8481 16.5441 14.6531 16.9793C14.5494 16.9656 14.445 16.9556 14.3412 16.9395C14.0841 16.8997 13.9695 17.2907 14.2322 17.3373C14.3127 17.3516 14.3942 17.3603 14.4747 17.3743C14.4159 17.5061 14.3555 17.6372 14.2966 17.769C14.1894 18.0093 14.5444 18.2194 14.6516 17.9773C14.7318 17.797 14.8142 17.618 14.8947 17.438C15.1447 17.4772 15.3947 17.5185 15.6456 17.5518L15.1147 17.6699C14.8563 17.7271 14.9657 18.1249 15.224 18.0677L16.9199 17.6904C18.1348 17.8044 19.3551 17.8486 20.575 17.8228C20.1928 19.1182 19.3156 20.1703 18.3891 21.1292C18.2224 21.3016 18.0555 21.473 17.8882 21.6436C17.8662 21.6307 17.8418 21.6224 17.8165 21.6192C17.7912 21.616 17.7655 21.618 17.741 21.625C17.7165 21.632 17.6937 21.644 17.6739 21.6601C17.6541 21.6762 17.6377 21.6962 17.6258 21.7188L17.3359 22.2161C16.6819 22.8758 16.0702 23.5763 15.5043 24.3134C14.4423 25.8084 13.4709 27.3662 12.5954 28.9784L9.61158 32.4144C8.73126 33.4287 7.85104 34.4427 6.97093 35.4566L6.62586 35.7985C6.43753 35.985 6.72808 36.2768 6.91672 36.09L7.18962 35.8196C7.20072 35.8131 7.2111 35.8054 7.22059 35.7966L7.26272 35.7481L10.0734 32.963C9.40926 33.8699 8.6497 34.7025 7.80788 35.4463C7.60747 35.6201 7.90081 35.9107 8.09874 35.7382C9.47557 34.4874 10.6593 33.0381 11.611 31.4378L11.9592 31.0928C13.6142 29.4524 15.3101 27.8442 16.9289 26.1677C17.1569 25.9315 17.4883 25.3335 16.9908 25.1731C16.7031 25.0799 16.2831 25.3596 16.5005 25.6739C16.5269 25.7127 16.5656 25.7413 16.6104 25.7551C16.6551 25.7689 16.7032 25.767 16.7468 25.7497C16.6905 25.8205 16.6296 25.8874 16.5643 25.9499C16.3944 26.1191 16.2239 26.2881 16.0529 26.4568L15.0307 27.4706L13.0207 29.4623L12.479 29.9994C12.6314 29.7387 12.7827 29.4779 12.9331 29.2168L14.4633 27.4539C15.1664 26.6439 15.8881 25.8445 16.5216 24.9776C17.1585 24.1472 17.6342 23.204 17.9238 22.1971C18.101 22.0153 18.2776 21.8332 18.4566 21.651C19.5742 20.5141 20.6735 19.2668 21.0483 17.6727C21.0563 17.6421 21.0572 17.6101 21.051 17.5791C21.0447 17.5481 21.0316 17.5189 21.0125 17.4937C20.9934 17.4686 20.9689 17.4481 20.9407 17.4339C20.9126 17.4197 20.8816 17.412 20.8501 17.4116C20.0085 17.4377 19.1675 17.4203 18.3277 17.3805L18.5728 17.3261C19.1091 17.2401 19.6398 17.1221 20.1621 16.9727C20.2138 16.9574 20.2574 16.9223 20.2836 16.8751C20.3098 16.8278 20.3165 16.7721 20.3021 16.7199C20.2878 16.6678 20.2536 16.6234 20.207 16.5963C20.1604 16.5691 20.105 16.5615 20.0528 16.5749L18.4938 16.9214C17.3643 17.1068 16.2158 17.1451 15.0766 17.0355C16.525 13.8112 18.0242 10.6098 19.5742 7.43149C20.063 6.43089 20.5568 5.43308 21.0557 4.43808C21.0795 4.39207 21.0846 4.3386 21.07 4.28889C21.2853 3.93332 21.5015 3.57838 21.723 3.22623C21.7425 3.19071 21.7514 3.15021 21.7483 3.10973C21.7453 3.06925 21.7305 3.03055 21.7058 2.99838C21.6811 2.96622 21.6476 2.94199 21.6094 2.92869C21.5711 2.91538 21.5299 2.91358 21.4906 2.9235C21.0592 3.06871 20.6683 3.31495 20.3505 3.64184C20.0327 3.96872 19.7971 4.36685 19.6631 4.80328C19.5847 5.05752 19.9815 5.16631 20.0593 4.913C20.2194 4.39705 20.5454 3.9489 20.9864 3.63867C19.8863 5.42853 18.8689 7.26562 17.934 9.14996C18.5536 7.6618 19.1427 6.16121 19.7015 4.64819C20.0147 3.79408 20.3145 2.93376 20.6075 2.0725C21.2578 1.9115 21.9019 1.72668 22.5398 1.51802C22.5896 1.50102 22.631 1.46555 22.6555 1.41888C22.68 1.37221 22.6858 1.31789 22.6716 1.26708C22.6574 1.21627 22.6244 1.17283 22.5794 1.14568C22.5343 1.11854 22.4805 1.10975 22.4292 1.12112ZM10.8642 31.5979C11.0571 31.376 11.2499 31.1539 11.4425 30.9318C11.3914 31.0151 11.3378 31.0972 11.2877 31.1805L10.8642 31.5979ZM14.34 26.9668L14.0281 27.3258C14.5032 26.5236 14.9942 25.7307 15.5328 24.9696C15.7806 24.6171 16.0473 24.2824 16.3199 23.9545L16.1861 24.1838C16.1685 24.2151 16.1595 24.2505 16.1599 24.2864C16.1604 24.3223 16.1703 24.3575 16.1886 24.3883C16.2069 24.4192 16.233 24.4446 16.2643 24.4621C16.2956 24.4796 16.3309 24.4884 16.3667 24.4878C15.737 25.3512 15.0604 26.1791 14.34 26.9678V26.9668ZM10.0081 2.01967C10.2209 2.03614 10.4337 2.05292 10.6468 2.06473C10.5127 2.05976 10.3785 2.0551 10.2441 2.04733C10.1629 2.03894 10.0855 2.02806 10.0081 2.01967ZM14.5614 2.24003L15.7122 2.36094C15.1501 2.35493 14.5882 2.34053 14.0265 2.31773C14.2059 2.29225 14.3843 2.26738 14.5614 2.24003ZM17.221 1.79184C17.2501 1.79184 17.2795 1.78998 17.309 1.78905C17.2802 1.78842 17.2507 1.78998 17.2216 1.7906L17.221 1.79184Z" fill="white"/>
<path d="M9.63632 27.0113C10.0654 24.7157 10.5268 22.4261 11.0203 20.1424C11.2865 18.917 11.5621 17.6934 11.847 16.4715C11.9071 16.2132 11.511 16.1028 11.4505 16.3617C10.7561 19.3401 10.119 22.3314 9.53937 25.3354C9.7627 23.4625 9.99935 21.5914 10.2654 19.7244C10.4756 18.2476 10.6994 16.7731 10.9367 15.3006C11.0107 15.2696 11.0838 15.236 11.1581 15.2049C11.3991 15.1048 11.2935 14.7058 11.0488 14.8074C10.2834 15.1253 9.52419 15.4585 8.76901 15.802C8.8099 15.6612 8.69157 15.4753 8.52121 15.5356C6.84201 16.1367 5.23065 16.9138 3.71383 17.8539L3.20242 18.0109C2.90134 18.1041 2.60057 18.1974 2.29887 18.2881C2.82855 16.059 3.40108 13.8415 4.01645 11.6356C4.04172 11.6494 4.06988 11.657 4.09865 11.6579C4.12742 11.6587 4.15598 11.6527 4.18199 11.6403C4.208 11.6279 4.23072 11.6096 4.2483 11.5867C4.26588 11.5639 4.27783 11.5371 4.28315 11.5088C4.69937 9.52253 5.21871 7.55948 5.83905 5.62762C5.52136 7.47804 5.04971 9.2985 4.42905 11.0699C4.34046 11.3207 4.7388 11.4286 4.82522 11.1796C5.57747 9.04429 6.11266 6.83814 6.42262 4.59479C6.42954 4.5418 6.41741 4.48806 6.3884 4.44323C6.35939 4.3984 6.3154 4.36541 6.26434 4.35019C6.56893 3.46894 6.89345 2.59556 7.2379 1.73006C7.33671 1.4839 6.93929 1.37698 6.84141 1.62034C6.72835 1.90318 6.61994 2.18757 6.51121 2.47196C6.47284 2.47594 6.43647 2.49114 6.40662 2.51568C6.37678 2.54021 6.35477 2.57299 6.34333 2.60996C4.98041 6.68199 3.7639 10.7992 2.69381 14.9615C2.4745 15.8153 2.26851 16.6726 2.06191 17.5298C2.02282 17.5426 1.98826 17.5665 1.96243 17.5986C1.93659 17.6307 1.92058 17.6696 1.91632 17.7107L1.8807 18.0177C1.6583 17.9574 1.33399 18.0771 1.35257 18.377C1.37271 18.6878 1.72768 18.8007 1.98726 18.7811C2.14192 18.7658 2.29479 18.7358 2.44383 18.6916C2.21617 18.8526 1.98974 19.0158 1.76702 19.1842C1.55856 19.3424 1.7633 19.7008 1.97456 19.5404C2.58973 19.0742 3.22782 18.6406 3.88171 18.235L3.94366 18.2163C3.90903 18.2449 3.87785 18.2775 3.85074 18.3133C3.69772 18.5191 3.75378 18.851 4.0527 18.8622C4.26519 18.8703 4.48232 18.6543 4.34386 18.4491C4.41511 18.41 4.48728 18.3721 4.56069 18.3338C4.70524 18.2568 4.8498 18.1801 4.99435 18.1038C5.28345 17.9515 5.5739 17.8011 5.86569 17.6525C5.90998 17.6299 5.9552 17.6087 5.9995 17.5863L7.53743 17.1145C7.58017 17.2559 7.74992 17.3529 7.86205 17.2078C7.94366 17.1031 8.03804 17.0091 8.143 16.928L9.17819 16.6104C9.22442 16.5956 9.26397 16.5649 9.28989 16.5238C9.31582 16.4826 9.32646 16.4336 9.31995 16.3854C9.31344 16.3372 9.2902 16.2928 9.2543 16.26C9.21841 16.2273 9.17215 16.2083 9.12368 16.2063C9.03615 16.2027 8.94848 16.2053 8.86132 16.2141C9.4038 15.9673 9.94897 15.7273 10.4968 15.494C10.4349 15.8744 10.3813 16.2554 10.3224 16.6362C10.2938 16.6059 10.2571 16.5845 10.2167 16.5744C10.1763 16.5643 10.1338 16.5661 10.0944 16.5794C10.0549 16.5927 10.0201 16.6171 9.99399 16.6496C9.96788 16.6821 9.95158 16.7215 9.947 16.763C9.64221 19.8918 9.33761 23.0214 9.03323 26.1516C8.84273 27.7716 8.66524 29.3952 8.50789 31.0208L8.5051 31.0519C8.3939 31.7105 8.27836 32.3685 8.17242 33.028C8.16495 33.0728 8.17188 33.1188 8.19221 33.1594C8.21253 33.1999 8.2452 33.2329 8.28548 33.2536C8.21878 33.6969 8.15229 34.1402 8.086 34.5836C8.07919 34.6245 8.08433 34.6666 8.10082 34.7046C8.11732 34.7427 8.14444 34.7751 8.17893 34.7981C8.16003 35.0305 8.13649 35.2624 8.11698 35.4949C8.09622 35.7613 8.50293 35.756 8.52833 35.4949L8.83808 32.2963C9.10592 30.5343 9.372 28.7726 9.63632 27.0113ZM5.9679 17.0654C5.97151 17.0871 5.97841 17.108 5.98835 17.1276C5.94127 17.1512 5.89542 17.1761 5.84772 17.1997L5.5135 17.3023C5.66528 17.2208 5.81551 17.1413 5.9679 17.0654Z" fill="white"/>
<path d="M24.4292 1.12112C23.2634 1.40093 22.0784 1.59292 20.8841 1.69549C20.8644 1.67219 20.8396 1.65387 20.8116 1.64203C20.1721 1.38938 19.4769 1.31328 18.7982 1.42167C18.7655 1.3946 18.724 1.38074 18.6817 1.38282C17.2625 1.46362 15.84 1.46674 14.4204 1.39214C14.2928 1.36883 14.1643 1.35174 14.037 1.32625C14.0083 1.31978 13.9786 1.31968 13.9499 1.32596C13.9212 1.33225 13.8943 1.34476 13.8709 1.36261C12.1623 1.25153 10.4629 1.02705 8.78384 0.690644C8.74581 0.683583 8.70659 0.686856 8.67025 0.700124C8.63391 0.713392 8.60176 0.736171 8.57715 0.766102C8.55253 0.796032 8.53634 0.832023 8.53026 0.870345C8.52417 0.908667 8.52841 0.947924 8.54254 0.984048L7.23166 0.846359C6.99965 0.821805 6.95536 1.19664 7.17714 1.25041C7.86511 1.42011 8.55958 1.55625 9.25652 1.67622C9.07315 1.72999 9.01677 2.02029 9.24382 2.06691C10.2412 2.27221 11.2523 2.40383 12.2689 2.46071C13.5969 2.59912 14.9282 2.69143 16.2628 2.73764C16.2752 2.7767 16.3001 2.81051 16.3338 2.83366C16.3675 2.85681 16.408 2.86798 16.4487 2.86538C17.0518 2.8573 17.6536 2.8256 18.2543 2.77742C19.2015 2.77929 20.1487 2.75856 21.0959 2.71526C21.1356 2.71508 21.1744 2.70307 21.2073 2.68077C21.2401 2.65847 21.2657 2.62687 21.2806 2.58998C21.2956 2.55309 21.2993 2.51258 21.2913 2.47357C21.2833 2.43457 21.2639 2.39883 21.2356 2.37088C21.5365 2.31266 21.8359 2.24935 22.1339 2.18098C21.3023 4.60819 20.3897 7.00506 19.396 9.37156C19.3426 9.35384 19.2845 9.35715 19.2334 9.38081C19.1823 9.40447 19.1421 9.44671 19.1209 9.49899C18.5054 11.0416 17.8897 12.584 17.2739 14.126C17.189 14.3383 17.5375 14.489 17.6437 14.2926C17.4889 14.6833 17.334 15.0749 17.1856 15.4684C17.1695 15.5038 17.1663 15.5438 17.1765 15.5813C17.1868 15.6189 17.2098 15.6516 17.2417 15.6739C17.0443 16.109 16.8481 16.5441 16.6531 16.9793C16.5494 16.9656 16.445 16.9556 16.3412 16.9395C16.0841 16.8997 15.9695 17.2907 16.2322 17.3373C16.3127 17.3516 16.3942 17.3603 16.4747 17.3743C16.4159 17.5061 16.3555 17.6372 16.2966 17.769C16.1894 18.0093 16.5444 18.2194 16.6516 17.9773C16.7318 17.797 16.8142 17.618 16.8947 17.438C17.1447 17.4772 17.3947 17.5185 17.6456 17.5518L17.1147 17.6699C16.8563 17.7271 16.9657 18.1249 17.224 18.0677L18.9199 17.6904C20.1348 17.8044 21.3551 17.8486 22.575 17.8228C22.1928 19.1182 21.3156 20.1703 20.3891 21.1292C20.2224 21.3016 20.0555 21.473 19.8882 21.6436C19.8662 21.6307 19.8418 21.6224 19.8165 21.6192C19.7912 21.616 19.7655 21.618 19.741 21.625C19.7165 21.632 19.6937 21.644 19.6739 21.6601C19.6541 21.6762 19.6377 21.6962 19.6258 21.7188L19.3359 22.2161C18.6819 22.8758 18.0702 23.5763 17.5043 24.3134C16.4423 25.8084 15.4709 27.3662 14.5954 28.9784L11.6116 32.4144C10.7313 33.4287 9.85104 34.4427 8.97093 35.4566L8.62586 35.7985C8.43753 35.985 8.72808 36.2768 8.91672 36.09L9.18962 35.8196C9.20072 35.8131 9.2111 35.8054 9.22059 35.7966L9.26272 35.7481L12.0734 32.963C11.4093 33.8699 10.6497 34.7025 9.80788 35.4463C9.60747 35.6201 9.90081 35.9107 10.0987 35.7382C11.4756 34.4874 12.6593 33.0381 13.611 31.4378L13.9592 31.0928C15.6142 29.4524 17.3101 27.8442 18.9289 26.1677C19.1569 25.9315 19.4883 25.3335 18.9908 25.1731C18.7031 25.0799 18.2831 25.3596 18.5005 25.6739C18.5269 25.7127 18.5656 25.7413 18.6104 25.7551C18.6551 25.7689 18.7032 25.767 18.7468 25.7497C18.6905 25.8205 18.6296 25.8874 18.5643 25.9499C18.3944 26.1191 18.2239 26.2881 18.0529 26.4568L17.0307 27.4706L15.0207 29.4623L14.479 29.9994C14.6314 29.7387 14.7827 29.4779 14.9331 29.2168L16.4633 27.4539C17.1664 26.6439 17.8881 25.8445 18.5216 24.9776C19.1585 24.1472 19.6342 23.204 19.9238 22.1971C20.101 22.0153 20.2776 21.8332 20.4566 21.651C21.5742 20.5141 22.6735 19.2668 23.0483 17.6727C23.0563 17.6421 23.0572 17.6101 23.051 17.5791C23.0447 17.5481 23.0316 17.5189 23.0125 17.4937C22.9934 17.4686 22.9689 17.4481 22.9407 17.4339C22.9126 17.4197 22.8816 17.412 22.8501 17.4116C22.0085 17.4377 21.1675 17.4203 20.3277 17.3805L20.5728 17.3261C21.1091 17.2401 21.6398 17.1221 22.1621 16.9727C22.2138 16.9574 22.2574 16.9223 22.2836 16.8751C22.3098 16.8278 22.3165 16.7721 22.3021 16.7199C22.2878 16.6678 22.2536 16.6234 22.207 16.5963C22.1604 16.5691 22.105 16.5615 22.0528 16.5749L20.4938 16.9214C19.3643 17.1068 18.2158 17.1451 17.0766 17.0355C18.525 13.8112 20.0242 10.6098 21.5742 7.43149C22.063 6.43089 22.5568 5.43308 23.0557 4.43808C23.0795 4.39207 23.0846 4.3386 23.07 4.28889C23.2853 3.93332 23.5015 3.57838 23.723 3.22623C23.7425 3.19071 23.7514 3.15021 23.7483 3.10973C23.7453 3.06925 23.7305 3.03055 23.7058 2.99838C23.6811 2.96622 23.6476 2.94199 23.6094 2.92869C23.5711 2.91538 23.5299 2.91358 23.4906 2.9235C23.0592 3.06871 22.6683 3.31495 22.3505 3.64184C22.0327 3.96872 21.7971 4.36685 21.6631 4.80328C21.5847 5.05752 21.9815 5.16631 22.0593 4.913C22.2194 4.39705 22.5454 3.9489 22.9864 3.63867C21.8863 5.42853 20.8689 7.26562 19.934 9.14996C20.5536 7.6618 21.1427 6.16121 21.7015 4.64819C22.0147 3.79408 22.3145 2.93376 22.6075 2.0725C23.2578 1.9115 23.9019 1.72668 24.5398 1.51802C24.5896 1.50102 24.631 1.46555 24.6555 1.41888C24.68 1.37221 24.6858 1.31789 24.6716 1.26708C24.6574 1.21627 24.6244 1.17283 24.5794 1.14568C24.5343 1.11854 24.4805 1.10975 24.4292 1.12112ZM12.8642 31.5979C13.0571 31.376 13.2499 31.1539 13.4425 30.9318C13.3914 31.0151 13.3378 31.0972 13.2877 31.1805L12.8642 31.5979ZM16.34 26.9668L16.0281 27.3258C16.5032 26.5236 16.9942 25.7307 17.5328 24.9696C17.7806 24.6171 18.0473 24.2824 18.3199 23.9545L18.1861 24.1838C18.1685 24.2151 18.1595 24.2505 18.1599 24.2864C18.1604 24.3223 18.1703 24.3575 18.1886 24.3883C18.2069 24.4192 18.233 24.4446 18.2643 24.4621C18.2956 24.4796 18.3309 24.4884 18.3667 24.4878C17.737 25.3512 17.0604 26.1791 16.34 26.9678V26.9668ZM12.0081 2.01967C12.2209 2.03614 12.4337 2.05292 12.6468 2.06473C12.5127 2.05976 12.3785 2.0551 12.2441 2.04733C12.1629 2.03894 12.0855 2.02806 12.0081 2.01967ZM16.5614 2.24003L17.7122 2.36094C17.1501 2.35493 16.5882 2.34053 16.0265 2.31773C16.2059 2.29225 16.3843 2.26738 16.5614 2.24003ZM19.221 1.79184C19.2501 1.79184 19.2795 1.78998 19.309 1.78905C19.2802 1.78842 19.2507 1.78998 19.2216 1.7906L19.221 1.79184Z" fill="white"/>
</g>
<defs>
<clipPath id="clip0_1256_1153">
<rect width="23.3316" height="35.464" fill="white" transform="translate(0.352539 0.686035)"/>
</clipPath>
</defs>
</svg>
